<svg width="24" height="24" viewBox="0 0 24 24" fill="none" xmlns="http://www.w3.org/2000/svg">
<path fill-rule="evenodd" clip-rule="evenodd" d="M17.9032 10.3605C17.9032 7.04075 16.0726 4.73663 13.704 4.04492C13.6182 3.82301 13.4826 3.61672 13.2984 3.44362C12.6689 2.85213 11.6879 2.85213 11.0584 3.44362C10.8745 3.61634 10.7392 3.8221 10.6534 4.04344C8.28169 4.73213 6.45351 7.03122 6.45351 10.3605C6.45351 12.5146 6.01923 13.7216 5.21527 14.5963C5.08086 14.7426 4.71668 15.0776 4.46998 15.3045C4.35327 15.4119 4.26285 15.4951 4.23551 15.5226L4 15.7615V18.5504H8.97897C9.14732 19.419 9.6186 20.0001 10.4709 20.5202C11.5193 21.16 12.8374 21.16 13.8859 20.5202C14.638 20.0612 15.1424 19.3558 15.347 18.5504H20.3567V15.7615L20.1212 15.5226C20.0964 15.4975 20.0097 15.4175 19.8963 15.3129C19.6504 15.086 19.279 14.7435 19.1426 14.5944C18.3381 13.7156 17.9032 12.507 17.9032 10.3605ZM13.5988 18.5504H10.6888C10.8043 18.7654 11.0012 18.9277 11.3229 19.124C11.8482 19.4445 12.5086 19.4445 13.0338 19.124C13.2771 18.9755 13.4671 18.7791 13.5988 18.5504ZM17.9361 15.6989C18.1082 15.8868 18.477 16.2305 18.7211 16.455V16.9147H5.63567V16.4553C5.87781 16.2335 6.24777 15.8901 6.41956 15.7032C7.51197 14.5146 8.08919 12.9103 8.08919 10.3605C8.08919 7.26898 9.99701 5.4636 12.1784 5.4636C14.3536 5.4636 16.2676 7.2783 16.2676 10.3605C16.2676 12.9022 16.8449 14.5069 17.9361 15.6989Z" fill="#6E7274"/>
</svg>
