<svg width="24" height="24" viewBox="0 0 24 24" fill="none" xmlns="http://www.w3.org/2000/svg">
<path d="M17.5 3H7.5C6.83696 3 6.20107 3.25854 5.73223 3.71873C5.26339 4.17893 5 4.80309 5 5.45391V20.1774C5 20.349 5.05503 20.5164 5.1573 20.6556C5.25957 20.7949 5.40388 20.8991 5.56981 20.9533C5.73574 21.0076 5.91486 21.0093 6.08181 20.9581C6.24875 20.9069 6.39506 20.8055 6.5 20.6681L8.19083 18.4596L9.25417 20.5471C9.31733 20.6713 9.41166 20.7777 9.5283 20.8563C9.64493 20.9349 9.78002 20.983 9.92083 20.9961C10.0628 21.0099 10.2059 20.9869 10.336 20.9295C10.4662 20.8721 10.5787 20.7823 10.6625 20.669L12.5 18.269L14.3333 20.6681C14.4172 20.7813 14.5298 20.871 14.6599 20.9284C14.79 20.9858 14.9331 21.0089 15.075 20.9953C15.2158 20.9822 15.3509 20.934 15.4675 20.8555C15.5842 20.7769 15.6785 20.6705 15.7417 20.5463L16.8092 18.4596L18.5 20.6681C18.5776 20.7697 18.6783 20.8522 18.794 20.909C18.9097 20.9658 19.0373 20.9953 19.1667 20.9953C19.3877 20.9953 19.5996 20.9091 19.7559 20.7557C19.9122 20.6023 20 20.3943 20 20.1774V5.45391C20 4.80309 19.7366 4.17893 19.2678 3.71873C18.7989 3.25854 18.163 3 17.5 3ZM18.3333 17.7234L17.3333 16.4147C17.2494 16.3015 17.1369 16.2118 17.0068 16.1544C16.8767 16.097 16.7336 16.074 16.5917 16.0875C16.4508 16.1007 16.3158 16.1488 16.1991 16.2274C16.0825 16.3059 15.9882 16.4123 15.925 16.5366L14.8617 18.624L13.1667 16.4147C13.089 16.3131 12.9884 16.2307 12.8727 16.1739C12.757 16.1171 12.6294 16.0875 12.5 16.0875C12.3706 16.0875 12.243 16.1171 12.1273 16.1739C12.0116 16.2307 11.911 16.3131 11.8333 16.4147L10.1425 18.6273L9.08333 16.5398C9.01988 16.4139 8.92444 16.3061 8.80621 16.2269C8.68798 16.1476 8.55095 16.0996 8.40833 16.0875C8.26642 16.0743 8.12345 16.0975 7.99343 16.1548C7.86341 16.2122 7.75081 16.3017 7.66667 16.4147L6.66667 17.7234V5.45391C6.66667 5.23697 6.75446 5.02891 6.91074 4.87552C7.06702 4.72212 7.27899 4.63594 7.5 4.63594H17.5C17.721 4.63594 17.933 4.72212 18.0893 4.87552C18.2455 5.02891 18.3333 5.23697 18.3333 5.45391V17.7234ZM16.6667 9.54375C16.6667 9.76069 16.5789 9.96875 16.4226 10.1221C16.2663 10.2755 16.0543 10.3617 15.8333 10.3617H9.16667C8.94565 10.3617 8.73369 10.2755 8.57741 10.1221C8.42113 9.96875 8.33333 9.76069 8.33333 9.54375C8.33333 9.32681 8.42113 9.11876 8.57741 8.96536C8.73369 8.81196 8.94565 8.72578 9.16667 8.72578H15.8333C16.0543 8.72578 16.2663 8.81196 16.4226 8.96536C16.5789 9.11876 16.6667 9.32681 16.6667 9.54375ZM13.3333 12.8156C13.3333 13.0326 13.2455 13.2406 13.0893 13.394C12.933 13.5474 12.721 13.6336 12.5 13.6336H9.16667C8.94565 13.6336 8.73369 13.5474 8.57741 13.394C8.42113 13.2406 8.33333 13.0326 8.33333 12.8156C8.33333 12.5987 8.42113 12.3906 8.57741 12.2372C8.73369 12.0838 8.94565 11.9977 9.16667 11.9977H12.5C12.721 11.9977 12.933 12.0838 13.0893 12.2372C13.2455 12.3906 13.3333 12.5987 13.3333 12.8156Z" fill="#6E7274"/>
</svg>
