<svg width="24" height="24" viewBox="0 0 24 24" fill="none" xmlns="http://www.w3.org/2000/svg">
<path d="M7.33333 3C6.71449 3 6.121 3.2586 5.68342 3.71892C5.24583 4.17924 5 4.80356 5 5.45455V18.5455C5 19.1964 5.24583 19.8208 5.68342 20.2811C6.121 20.7414 6.71449 21 7.33333 21H16.6667C17.2855 21 17.879 20.7414 18.3166 20.2811C18.7542 19.8208 19 19.1964 19 18.5455V5.45455C19 4.80356 18.7542 4.17924 18.3166 3.71892C17.879 3.2586 17.2855 3 16.6667 3H7.33333ZM17.4444 5.45455V18.5455C17.4444 18.7625 17.3625 18.9706 17.2166 19.124C17.0708 19.2774 16.8729 19.3636 16.6667 19.3636H7.33333C7.12705 19.3636 6.92922 19.2774 6.78336 19.124C6.6375 18.9706 6.55556 18.7625 6.55556 18.5455V5.45455C6.55556 5.23755 6.6375 5.02944 6.78336 4.876C6.92922 4.72256 7.12705 4.63636 7.33333 4.63636H16.6667C16.8729 4.63636 17.0708 4.72256 17.2166 4.876C17.3625 5.02944 17.4444 5.23755 17.4444 5.45455ZM9.66667 10.3636C9.66667 10.5255 9.62105 10.6836 9.53559 10.8182C9.45012 10.9527 9.32865 11.0576 9.18653 11.1195C9.04441 11.1815 8.88803 11.1977 8.73715 11.1661C8.58628 11.1345 8.44769 11.0566 8.33892 10.9422C8.23014 10.8278 8.15607 10.682 8.12606 10.5233C8.09605 10.3645 8.11145 10.2 8.17032 10.0505C8.22918 9.90103 8.32887 9.77325 8.45678 9.68334C8.58468 9.59344 8.73506 9.54545 8.88889 9.54545C9.09517 9.54545 9.293 9.63166 9.43886 9.78509C9.58472 9.93853 9.66667 10.1466 9.66667 10.3636ZM12.7778 10.3636C12.7778 10.5255 12.7322 10.6836 12.6467 10.8182C12.5612 10.9527 12.4398 11.0576 12.2976 11.1195C12.1555 11.1815 11.9991 11.1977 11.8483 11.1661C11.6974 11.1345 11.5588 11.0566 11.45 10.9422C11.3413 10.8278 11.2672 10.682 11.2372 10.5233C11.2072 10.3645 11.2226 10.2 11.2814 10.0505C11.3403 9.90103 11.44 9.77325 11.5679 9.68334C11.6958 9.59344 11.8462 9.54545 12 9.54545C12.2063 9.54545 12.4041 9.63166 12.55 9.78509C12.6958 9.93853 12.7778 10.1466 12.7778 10.3636ZM15.8889 10.3636C15.8889 10.5255 15.8433 10.6836 15.7578 10.8182C15.6723 10.9527 15.5509 11.0576 15.4088 11.1195C15.2666 11.1815 15.1102 11.1977 14.9594 11.1661C14.8085 11.1345 14.6699 11.0566 14.5611 10.9422C14.4524 10.8278 14.3783 10.682 14.3483 10.5233C14.3183 10.3645 14.3337 10.2 14.3925 10.0505C14.4514 9.90103 14.5511 9.77325 14.679 9.68334C14.8069 9.59344 14.9573 9.54545 15.1111 9.54545C15.3174 9.54545 15.5152 9.63166 15.6611 9.78509C15.8069 9.93853 15.8889 10.1466 15.8889 10.3636ZM9.66667 13.6364C9.66667 13.7982 9.62105 13.9564 9.53559 14.0909C9.45012 14.2255 9.32865 14.3303 9.18653 14.3923C9.04441 14.4542 8.88803 14.4704 8.73715 14.4388C8.58628 14.4073 8.44769 14.3293 8.33892 14.2149C8.23014 14.1005 8.15607 13.9547 8.12606 13.796C8.09605 13.6373 8.11145 13.4728 8.17032 13.3233C8.22918 13.1738 8.32887 13.046 8.45678 12.9561C8.58468 12.8662 8.73506 12.8182 8.88889 12.8182C9.09517 12.8182 9.293 12.9044 9.43886 13.0578C9.58472 13.2113 9.66667 13.4194 9.66667 13.6364ZM12.7778 13.6364C12.7778 13.7982 12.7322 13.9564 12.6467 14.0909C12.5612 14.2255 12.4398 14.3303 12.2976 14.3923C12.1555 14.4542 11.9991 14.4704 11.8483 14.4388C11.6974 14.4073 11.5588 14.3293 11.45 14.2149C11.3413 14.1005 11.2672 13.9547 11.2372 13.796C11.2072 13.6373 11.2226 13.4728 11.2814 13.3233C11.3403 13.1738 11.44 13.046 11.5679 12.9561C11.6958 12.8662 11.8462 12.8182 12 12.8182C12.2063 12.8182 12.4041 12.9044 12.55 13.0578C12.6958 13.2113 12.7778 13.4194 12.7778 13.6364ZM15.8889 13.6364C15.8889 13.7982 15.8433 13.9564 15.7578 14.0909C15.6723 14.2255 15.5509 14.3303 15.4088 14.3923C15.2666 14.4542 15.1102 14.4704 14.9594 14.4388C14.8085 14.4073 14.6699 14.3293 14.5611 14.2149C14.4524 14.1005 14.3783 13.9547 14.3483 13.796C14.3183 13.6373 14.3337 13.4728 14.3925 13.3233C14.4514 13.1738 14.5511 13.046 14.679 12.9561C14.8069 12.8662 14.9573 12.8182 15.1111 12.8182C15.3174 12.8182 15.5152 12.9044 15.6611 13.0578C15.8069 13.2113 15.8889 13.4194 15.8889 13.6364ZM12.7778 16.9091C12.7778 17.0709 12.7322 17.2291 12.6467 17.3636C12.5612 17.4982 12.4398 17.6031 12.2976 17.665C12.1555 17.7269 11.9991 17.7431 11.8483 17.7116C11.6974 17.68 11.5588 17.6021 11.45 17.4876C11.3413 17.3732 11.2672 17.2274 11.2372 17.0687C11.2072 16.91 11.2226 16.7455 11.2814 16.596C11.3403 16.4465 11.44 16.3187 11.5679 16.2288C11.6958 16.1389 11.8462 16.0909 12 16.0909C12.2063 16.0909 12.4041 16.1771 12.55 16.3305C12.6958 16.484 12.7778 16.6921 12.7778 16.9091ZM15.8889 7.09091C15.8889 7.3079 15.8069 7.51601 15.6611 7.66945C15.5152 7.82289 15.3174 7.90909 15.1111 7.90909H8.88889C8.68261 7.90909 8.48478 7.82289 8.33892 7.66945C8.19306 7.51601 8.11111 7.3079 8.11111 7.09091C8.11111 6.87391 8.19306 6.66581 8.33892 6.51237C8.48478 6.35893 8.68261 6.27273 8.88889 6.27273H15.1111C15.3174 6.27273 15.5152 6.35893 15.6611 6.51237C15.8069 6.66581 15.8889 6.87391 15.8889 7.09091Z" fill="#6E7274"/>
</svg>
