<svg width="24" height="24" viewBox="0 0 24 24" fill="none" xmlns="http://www.w3.org/2000/svg">
<path d="M20.1 3H3.9C3.66131 3 3.43239 3.09482 3.2636 3.2636C3.09482 3.43239 3 3.66131 3 3.9V20.1C3 20.3387 3.09482 20.5676 3.2636 20.7364C3.43239 20.9052 3.66131 21 3.9 21H20.1C20.3387 21 20.5676 20.9052 20.7364 20.7364C20.9052 20.5676 21 20.3387 21 20.1V3.9C21 3.66131 20.9052 3.43239 20.7364 3.2636C20.5676 3.09482 20.3387 3 20.1 3ZM4.8 4.8H19.2V6.6H4.8V4.8ZM19.2 19.2H4.8V8.4H19.2V19.2ZM6.6 12C6.6 11.7613 6.69482 11.5324 6.8636 11.3636C7.03239 11.1948 7.2613 11.1 7.5 11.1H16.5C16.7387 11.1 16.9676 11.1948 17.1364 11.3636C17.3052 11.5324 17.4 11.7613 17.4 12C17.4 12.2387 17.3052 12.4676 17.1364 12.6364C16.9676 12.8052 16.7387 12.9 16.5 12.9H7.5C7.2613 12.9 7.03239 12.8052 6.8636 12.6364C6.69482 12.4676 6.6 12.2387 6.6 12ZM6.6 15.6C6.6 15.3613 6.69482 15.1324 6.8636 14.9636C7.03239 14.7948 7.2613 14.7 7.5 14.7H12C12.2387 14.7 12.4676 14.7948 12.6364 14.9636C12.8052 15.1324 12.9 15.3613 12.9 15.6C12.9 15.8387 12.8052 16.0676 12.6364 16.2364C12.4676 16.4052 12.2387 16.5 12 16.5H7.5C7.2613 16.5 7.03239 16.4052 6.8636 16.2364C6.69482 16.0676 6.6 15.8387 6.6 15.6Z" fill="#6E7274"/>
</svg>
