<svg width="24" height="24" viewBox="0 0 24 24" fill="none" xmlns="http://www.w3.org/2000/svg">
<path d="M8.11203 10.2685C8.31656 9.79973 8.37515 9.28024 8.28016 8.77772C8.18517 8.2752 7.94101 7.81297 7.57951 7.45131L5.87399 5.74531C5.59456 5.46247 5.25191 5.25013 4.87431 5.12579C4.4967 5.00145 4.09496 4.96869 3.70221 5.03019C3.305 5.08854 2.92732 5.24039 2.60023 5.47325C2.27315 5.70611 2.00602 6.01332 1.82081 6.36962C0.995589 7.92267 0.783357 9.72903 1.22613 11.4311C2.31325 15.7514 8.24863 21.6884 12.5677 22.7758C13.1506 22.9237 13.7495 22.999 14.3509 23C15.4936 22.9993 16.6188 22.7183 17.6278 22.1818C17.9815 21.9973 18.2869 21.7321 18.5191 21.4076C18.7514 21.0832 18.9041 20.7087 18.9649 20.3143C19.0256 19.9199 18.9928 19.5167 18.8689 19.1374C18.745 18.7581 18.5337 18.4132 18.2519 18.1308L16.5497 16.4239C16.1878 16.0626 15.7256 15.8185 15.2231 15.7235C14.7207 15.6285 14.2013 15.687 13.7325 15.8913C13.2853 16.0844 12.8774 16.3582 12.5292 16.6989C12.1112 17.117 10.5734 16.5107 9.03227 14.9708C7.49117 13.4309 6.88667 11.8918 7.30139 11.4729C7.64334 11.1247 7.91815 10.7164 8.11203 10.2685ZM7.87399 16.1294C9.75047 18.0047 12.2732 19.2681 13.6818 17.8575C13.8893 17.6587 14.1313 17.4993 14.3959 17.387C14.5619 17.3162 14.7454 17.297 14.9225 17.3319C15.0996 17.3667 15.2621 17.4541 15.3889 17.5825L17.0944 19.2885C17.1946 19.3876 17.2699 19.5091 17.3139 19.643C17.358 19.7768 17.3697 19.9192 17.348 20.0585C17.327 20.2016 17.2721 20.3376 17.188 20.4553C17.104 20.5729 16.9931 20.6689 16.8646 20.7352C15.6702 21.3772 14.2761 21.5398 12.966 21.1901C9.25559 20.2532 3.75129 14.7474 2.81631 11.0319C2.46622 9.72036 2.62885 8.32472 3.27112 7.12893C3.33779 7.001 3.43388 6.89074 3.5515 6.80723C3.66911 6.72373 3.80487 6.66937 3.9476 6.64863C3.99306 6.64143 4.03901 6.63787 4.08503 6.638C4.20266 6.63802 4.31912 6.66139 4.42766 6.70676C4.5362 6.75212 4.63466 6.81858 4.71734 6.90228L6.42286 8.60828C6.55112 8.73507 6.63834 8.89748 6.6732 9.07446C6.70806 9.25143 6.68895 9.4348 6.61836 9.60078C6.50665 9.86716 6.34726 10.1109 6.14802 10.32C4.73779 11.7265 5.99996 14.2475 7.87399 16.1294ZM16.8891 13.6526C17.3238 12.7372 17.4647 11.7096 17.2923 10.711C17.1199 9.71228 16.6427 8.79144 15.9263 8.07482C15.2099 7.3582 14.2893 6.88092 13.2909 6.70849C12.2925 6.53606 11.2652 6.67692 10.3501 7.11175C10.2527 7.16085 10.1465 7.18998 10.0377 7.19743C9.92895 7.20489 9.81978 7.19052 9.71663 7.15516C9.61348 7.1198 9.51845 7.06417 9.4371 6.99154C9.35576 6.91892 9.28975 6.83075 9.24296 6.73224C9.19617 6.63373 9.16955 6.52685 9.16465 6.4179C9.15975 6.30894 9.17667 6.2001 9.21443 6.09779C9.25219 5.99547 9.31001 5.90173 9.38451 5.82209C9.45901 5.74245 9.54867 5.67851 9.64822 5.63404C10.8683 5.05434 12.2378 4.86647 13.5688 5.09622C14.8998 5.32596 16.1272 5.96206 17.0824 6.91723C18.0377 7.8724 18.6741 9.09985 18.9043 10.4312C19.1345 11.7625 18.9472 13.1324 18.3681 14.353C18.2719 14.5438 18.1049 14.6894 17.9028 14.7587C17.7008 14.828 17.4796 14.8154 17.2866 14.7237C17.0937 14.632 16.9442 14.4685 16.8703 14.268C16.7963 14.0675 16.8036 13.8461 16.8908 13.651L16.8891 13.6526ZM13.6098 12.7059C13.9165 12.3991 14.0888 11.9829 14.0888 11.549C14.0888 11.115 13.9165 10.6989 13.6098 10.392C13.2982 10.0943 12.884 9.92818 12.4531 9.92818C12.0223 9.92818 11.608 10.0943 11.2965 10.392C11.1422 10.541 10.9356 10.6235 10.7211 10.6217C10.5066 10.6198 10.3015 10.5337 10.1498 10.382C9.99814 10.2303 9.91211 10.0251 9.91025 9.81057C9.90839 9.59604 9.99084 9.38935 10.1398 9.23503C10.7628 8.63946 11.5914 8.30709 12.4531 8.30709C13.3149 8.30709 14.1435 8.63946 14.7664 9.23503C15.3798 9.84879 15.7244 10.6811 15.7244 11.549C15.7244 12.4168 15.3798 13.2491 14.7664 13.8629C14.6122 14.0119 14.4055 14.0944 14.1911 14.0926C13.9766 14.0907 13.7714 14.0046 13.6197 13.8529C13.4681 13.7012 13.3821 13.496 13.3802 13.2815C13.3783 13.0669 13.4608 12.8603 13.6098 12.7059Z" fill="#6E7274"/>
</svg>
