<svg width="24" height="24" viewBox="0 0 24 24" fill="none" xmlns="http://www.w3.org/2000/svg">
<path d="M21 3.9C21 3.66131 20.9052 3.43239 20.7364 3.2636C20.5676 3.09482 20.3387 3 20.1 3H3.9C3.66131 3 3.43239 3.09482 3.2636 3.2636C3.09482 3.43239 3 3.66131 3 3.9V16.5C3 16.7387 3.09482 16.9676 3.2636 17.1364C3.43239 17.3052 3.66131 17.4 3.9 17.4H8.85L11.28 20.64C11.3638 20.7518 11.4725 20.8425 11.5975 20.905C11.7225 20.9675 11.8603 21 12 21C12.1397 21 12.2775 20.9675 12.4025 20.905C12.5275 20.8425 12.6362 20.7518 12.72 20.64L15.15 17.4H20.1C20.3387 17.4 20.5676 17.3052 20.7364 17.1364C20.9052 16.9676 21 16.7387 21 16.5V3.9ZM19.2 15.6H14.7C14.5603 15.6 14.4225 15.6325 14.2975 15.695C14.1725 15.7575 14.0638 15.8482 13.98 15.96L12 18.5997L10.02 15.96C9.93617 15.8482 9.82746 15.7575 9.70249 15.695C9.57752 15.6325 9.43972 15.6 9.3 15.6H4.8V4.8H19.2V15.6ZM7.5 8.4C7.5 8.1613 7.59482 7.93239 7.7636 7.7636C7.93239 7.59482 8.1613 7.5 8.4 7.5H15.6C15.8387 7.5 16.0676 7.59482 16.2364 7.7636C16.4052 7.93239 16.5 8.1613 16.5 8.4C16.5 8.63869 16.4052 8.86761 16.2364 9.0364C16.0676 9.20518 15.8387 9.3 15.6 9.3H8.4C8.1613 9.3 7.93239 9.20518 7.7636 9.0364C7.59482 8.86761 7.5 8.63869 7.5 8.4ZM7.5 12.9C7.5 12.6613 7.59482 12.4324 7.7636 12.2636C7.93239 12.0948 8.1613 12 8.4 12H12C12.2387 12 12.4676 12.0948 12.6364 12.2636C12.8052 12.4324 12.9 12.6613 12.9 12.9C12.9 13.1387 12.8052 13.3676 12.6364 13.5364C12.4676 13.7052 12.2387 13.8 12 13.8H8.4C8.1613 13.8 7.93239 13.7052 7.7636 13.5364C7.59482 13.3676 7.5 13.1387 7.5 12.9Z" fill="#6E7274"/>
</svg>
