<svg width="24" height="24" viewBox="0 0 24 24" fill="none" xmlns="http://www.w3.org/2000/svg">
<path d="M12 3C10.22 3 8.47991 3.52784 6.99987 4.51677C5.51983 5.50571 4.36628 6.91131 3.68509 8.55585C3.0039 10.2004 2.82567 12.01 3.17294 13.7558C3.5202 15.5016 4.37737 17.1053 5.63604 18.364C6.89471 19.6226 8.49836 20.4798 10.2442 20.8271C11.99 21.1743 13.7996 20.9961 15.4442 20.3149C17.0887 19.6337 18.4943 18.4802 19.4832 17.0001C20.4722 15.5201 21 13.78 21 12C20.9972 9.61391 20.0481 7.32636 18.3609 5.63915C16.6736 3.95193 14.3861 3.00281 12 3ZM12 19.3636C10.5436 19.3636 9.11993 18.9318 7.90899 18.1226C6.69804 17.3135 5.75423 16.1635 5.19689 14.8179C4.63955 13.4724 4.49373 11.9918 4.77786 10.5634C5.06198 9.13502 5.7633 7.82294 6.79313 6.79312C7.82295 5.7633 9.13502 5.06198 10.5634 4.77785C11.9918 4.49373 13.4724 4.63955 14.8179 5.19689C16.1635 5.75422 17.3135 6.69804 18.1226 7.90898C18.9318 9.11993 19.3636 10.5436 19.3636 12C19.3613 13.9522 18.5847 15.8238 17.2042 17.2042C15.8238 18.5847 13.9522 19.3613 12 19.3636ZM16.6939 9.40145C16.7666 9.48064 16.8229 9.57335 16.8597 9.67431C16.8965 9.77527 16.913 9.88248 16.9084 9.98984C16.9038 10.0972 16.878 10.2026 16.8327 10.3C16.7873 10.3974 16.7232 10.4849 16.644 10.5575L11.7349 15.0575C11.5795 15.2001 11.375 15.2771 11.1642 15.2725C10.9534 15.2679 10.7525 15.1821 10.6034 15.033L8.14882 12.5785C7.99541 12.4249 7.90926 12.2167 7.90934 11.9997C7.90941 11.7827 7.99571 11.5746 8.14923 11.4211C8.30275 11.2677 8.51093 11.1816 8.72797 11.1817C8.94501 11.1817 9.15313 11.268 9.30655 11.4215L11.2072 13.3222L15.5386 9.35154C15.6985 9.20509 15.91 9.12809 16.1266 9.13745C16.3432 9.14681 16.5473 9.24176 16.6939 9.40145Z" fill="#6E7274"/>
</svg>
