<svg width="24" height="24" viewBox="0 0 24 24" fill="none" xmlns="http://www.w3.org/2000/svg">
<path d="M19 5.45455C19 5.23755 18.9181 5.02944 18.7722 4.876C18.6263 4.72256 18.4285 4.63636 18.2222 4.63636H15.8889V3.81818C15.8889 3.60119 15.8069 3.39308 15.6611 3.23964C15.5152 3.0862 15.3174 3 15.1111 3H8.88889C8.68261 3 8.48478 3.0862 8.33892 3.23964C8.19306 3.39308 8.11111 3.60119 8.11111 3.81818V4.63636H5.77778C5.5715 4.63636 5.37367 4.72256 5.22781 4.876C5.08194 5.02944 5 5.23755 5 5.45455V20.1818C5 20.3988 5.08194 20.6069 5.22781 20.7604C5.37367 20.9138 5.5715 21 5.77778 21H18.2222C18.4285 21 18.6263 20.9138 18.7722 20.7604C18.9181 20.6069 19 20.3988 19 20.1818V5.45455ZM9.66667 4.63636H14.3333V6.27273H9.66667V4.63636ZM17.4444 19.3636H6.55556V6.27273H8.11111V7.09091C8.11111 7.3079 8.19306 7.51601 8.33892 7.66945C8.48478 7.82289 8.68261 7.90909 8.88889 7.90909H15.1111C15.3174 7.90909 15.5152 7.82289 15.6611 7.66945C15.8069 7.51601 15.8889 7.3079 15.8889 7.09091V6.27273H17.4444V19.3636ZM12.7778 16.9091C12.7778 17.1261 12.6958 17.3342 12.55 17.4876C12.4041 17.6411 12.2063 17.7273 12 17.7273H8.88889C8.68261 17.7273 8.48478 17.6411 8.33892 17.4876C8.19306 17.3342 8.11111 17.1261 8.11111 16.9091C8.11111 16.6921 8.19306 16.484 8.33892 16.3305C8.48478 16.1771 8.68261 16.0909 8.88889 16.0909H12C12.2063 16.0909 12.4041 16.1771 12.55 16.3305C12.6958 16.484 12.7778 16.6921 12.7778 16.9091ZM15.8889 13.6364C15.8889 13.8534 15.8069 14.0615 15.6611 14.2149C15.5152 14.3683 15.3174 14.4545 15.1111 14.4545H8.88889C8.68261 14.4545 8.48478 14.3683 8.33892 14.2149C8.19306 14.0615 8.11111 13.8534 8.11111 13.6364C8.11111 13.4194 8.19306 13.2113 8.33892 13.0578C8.48478 12.9044 8.68261 12.8182 8.88889 12.8182H15.1111C15.3174 12.8182 15.5152 12.9044 15.6611 13.0578C15.8069 13.2113 15.8889 13.4194 15.8889 13.6364ZM15.8889 10.3636C15.8889 10.5806 15.8069 10.7887 15.6611 10.9422C15.5152 11.0956 15.3174 11.1818 15.1111 11.1818H8.88889C8.68261 11.1818 8.48478 11.0956 8.33892 10.9422C8.19306 10.7887 8.11111 10.5806 8.11111 10.3636C8.11111 10.1466 8.19306 9.93853 8.33892 9.78509C8.48478 9.63166 8.68261 9.54545 8.88889 9.54545H15.1111C15.3174 9.54545 15.5152 9.63166 15.6611 9.78509C15.8069 9.93853 15.8889 10.1466 15.8889 10.3636Z" fill="#6E7274"/>
</svg>
