<svg width="24" height="24" viewBox="0 0 24 24" fill="none" xmlns="http://www.w3.org/2000/svg">
<path d="M8.66667 15.2727C8.66667 15.0557 8.57887 14.8476 8.42259 14.6942C8.26631 14.5407 8.05435 14.4545 7.83333 14.4545C7.61232 14.4545 7.40036 14.5407 7.24408 14.6942C7.0878 14.8476 7 15.0557 7 15.2727C7.00132 16.3573 7.44073 17.3971 8.22185 18.164C9.00296 18.9309 10.062 19.3623 11.1667 19.3636V20.1818C11.1667 20.3988 11.2545 20.6069 11.4107 20.7604C11.567 20.9138 11.779 21 12 21C12.221 21 12.433 20.9138 12.5893 20.7604C12.7455 20.6069 12.8333 20.3988 12.8333 20.1818V19.3636C13.9384 19.3636 14.9982 18.9326 15.7796 18.1654C16.561 17.3982 17 16.3577 17 15.2727C17 14.1878 16.561 13.1472 15.7796 12.38C14.9982 11.6128 13.9384 11.1818 12.8333 11.1818V6.27273C13.4964 6.27273 14.1323 6.53133 14.6011 6.99165C15.0699 7.45196 15.3333 8.07629 15.3333 8.72727C15.3333 8.94427 15.4211 9.15238 15.5774 9.30581C15.7337 9.45925 15.9457 9.54545 16.1667 9.54545C16.3877 9.54545 16.5996 9.45925 16.7559 9.30581C16.9122 9.15238 17 8.94427 17 8.72727C16.9987 7.64269 16.5593 6.60291 15.7782 5.836C14.997 5.06909 13.938 4.63766 12.8333 4.63636V3.81818C12.8333 3.60119 12.7455 3.39308 12.5893 3.23964C12.433 3.0862 12.221 3 12 3C11.779 3 11.567 3.0862 11.4107 3.23964C11.2545 3.39308 11.1667 3.60119 11.1667 3.81818V4.63636C10.0616 4.63636 9.00179 5.06737 8.22039 5.83456C7.43899 6.60176 7 7.6423 7 8.72727C7 9.81225 7.43899 10.8528 8.22039 11.62C9.00179 12.3872 10.0616 12.8182 11.1667 12.8182V17.7273C10.5036 17.7273 9.86774 17.4687 9.3989 17.0084C8.93006 16.548 8.66667 15.9237 8.66667 15.2727ZM12.8333 12.8182C13.4964 12.8182 14.1323 13.0768 14.6011 13.5371C15.0699 13.9974 15.3333 14.6217 15.3333 15.2727C15.3333 15.9237 15.0699 16.548 14.6011 17.0084C14.1323 17.4687 13.4964 17.7273 12.8333 17.7273V12.8182ZM8.66667 8.72727C8.66667 8.07629 8.93006 7.45196 9.3989 6.99165C9.86774 6.53133 10.5036 6.27273 11.1667 6.27273V11.1818C10.5036 11.1818 9.86774 10.9232 9.3989 10.4629C8.93006 10.0026 8.66667 9.37826 8.66667 8.72727Z" fill="#6E7274"/>
</svg>
