<svg width="251" height="188" viewBox="0 0 251 188" fill="none" xmlns="http://www.w3.org/2000/svg">
<path d="M145.255 34.5102C188.06 52.14 249.026 70.8302 244.209 122.902C239.429 174.571 176.406 163.214 132.743 169.759C98.3751 174.911 56.1921 190.207 38.4545 153.745C20.7301 117.31 51.6126 81.3224 76.3092 53.7503C95.0254 32.855 119.937 24.0828 145.255 34.5102Z" fill="#E8F2FB"/>
<rect x="12.9197" y="139.364" width="13.1117" height="13.1117" transform="rotate(-19.8156 12.9197 139.364)" stroke="#FF4500" stroke-width="3"/>
<rect y="75.4244" width="7.15187" height="7.15187" transform="rotate(-19.8156 0 75.4244)" fill="#2296F3"/>
<circle cx="106.5" cy="20.5" r="6.5" fill="#FFE1D6"/>
<circle cx="65.5" cy="40.5" r="3.5" fill="#FF8B60"/>
<circle cx="68.5" cy="3.5" r="3.5" fill="#FF4500"/>
<circle cx="52.5" cy="57.5" r="2.5" fill="#FFF4F0"/>
<circle cx="94.5" cy="49.5" r="5.5" fill="#2296F3"/>
<path d="M91.2696 98.1048C89.957 97.5865 88.535 98.5538 88.535 99.965V145.915C88.535 147.02 89.4305 147.915 90.535 147.915H184C185.105 147.915 186 147.02 186 145.915V99.965C186 98.5538 184.578 97.5865 183.265 98.1048L139.282 115.472C137.988 115.978 136.547 115.978 135.253 115.472L91.2696 98.1048Z" fill="#2296F3"/>
<path d="M136.533 104.462C137.005 104.649 137.53 104.649 138.002 104.462L184.734 86.0139C185.498 85.7123 186 84.9747 186 84.1536V75.1003C186 73.9958 185.105 73.1003 184 73.1003H90.535C89.4305 73.1003 88.535 73.9958 88.535 75.1003V84.1536C88.535 84.9747 89.0369 85.7123 89.8007 86.0139L136.533 104.462Z" fill="#2296F3"/>
</svg>
