<svg width="24" height="24" viewBox="0 0 24 24" fill="none" xmlns="http://www.w3.org/2000/svg">
<path d="M3.05601 12.3027C4.59587 16.375 8.10759 19 12 19C15.8924 19 19.4041 16.375 20.944 12.3027C21.0187 12.1074 21.0187 11.8926 20.944 11.6973C19.4041 7.625 15.8924 5 12 5C8.10759 5 4.59587 7.625 3.05601 11.6973C2.98133 11.8926 2.98133 12.1074 3.05601 12.3027ZM12 6.75C15.0356 6.75 17.8058 8.80012 19.1359 12C17.8058 15.1999 15.0356 17.25 12 17.25C8.96437 17.25 6.19423 15.1999 4.86406 12C6.19423 8.80012 8.96437 6.75 12 6.75ZM12 15.5C12.712 15.5 13.408 15.2947 14 14.9101C14.592 14.5256 15.0534 13.9789 15.3259 13.3394C15.5984 12.6999 15.6696 11.9961 15.5307 11.3172C15.3918 10.6383 15.049 10.0146 14.5455 9.52513C14.0421 9.03564 13.4006 8.7023 12.7023 8.56725C12.004 8.4322 11.2802 8.50151 10.6224 8.76642C9.96457 9.03133 9.40234 9.47993 9.00678 10.0555C8.61121 10.6311 8.40008 11.3078 8.40008 12C8.40008 12.9283 8.77936 13.8185 9.45447 14.4749C10.1296 15.1313 11.0452 15.5 12 15.5ZM12 10.25C12.356 10.25 12.704 10.3526 13 10.5449C13.296 10.7372 13.5267 11.0105 13.6629 11.3303C13.7992 11.6501 13.8348 12.0019 13.7654 12.3414C13.6959 12.6809 13.5245 12.9927 13.2728 13.2374C13.021 13.4822 12.7003 13.6489 12.3512 13.7164C12.002 13.7839 11.6401 13.7492 11.3112 13.6168C10.9823 13.4843 10.7012 13.26 10.5034 12.9722C10.3056 12.6845 10.2 12.3461 10.2 12C10.2 11.5359 10.3897 11.0908 10.7272 10.7626C11.0648 10.4344 11.5226 10.25 12 10.25Z" fill="#6E7274"/>
</svg>
