<svg width="24" height="24" viewBox="0 0 24 24" fill="none" xmlns="http://www.w3.org/2000/svg">
<path d="M4 23H20C20.2652 23 20.5196 22.8946 20.7071 22.7071C20.8946 22.5196 21 22.2652 21 22V6C20.9999 5.73481 20.8946 5.48049 20.707 5.293L16.707 1.293C16.5195 1.10545 16.2652 1.00006 16 1H4C3.73478 1 3.48043 1.10536 3.29289 1.29289C3.10536 1.48043 3 1.73478 3 2V22C3 22.2652 3.10536 22.5196 3.29289 22.7071C3.48043 22.8946 3.73478 23 4 23ZM5 3H15.586L19 6.414V21H5V3ZM13 16V17C13 17.2652 12.8946 17.5196 12.7071 17.7071C12.5196 17.8946 12.2652 18 12 18C11.7348 18 11.4804 17.8946 11.2929 17.7071C11.1054 17.5196 11 17.2652 11 17V16C11 15.7348 11.1054 15.4804 11.2929 15.2929C11.4804 15.1054 11.7348 15 12 15C12.2652 15 12.5196 15.1054 12.7071 15.2929C12.8946 15.4804 13 15.7348 13 16ZM14.954 8.571C15.079 9.25899 14.9709 9.96902 14.6469 10.5887C14.3228 11.2083 13.8014 11.7022 13.165 11.992C13.1088 12.0324 13.064 12.0868 13.0351 12.1497C13.0062 12.2126 12.9941 12.282 13 12.351V13C13 13.2652 12.8946 13.5196 12.7071 13.7071C12.5196 13.8946 12.2652 14 12 14C11.7348 14 11.4804 13.8946 11.2929 13.7071C11.1054 13.5196 11 13.2652 11 13V12.351C10.9898 11.8929 11.1133 11.4417 11.3554 11.0526C11.5974 10.6635 11.9476 10.3534 12.363 10.16C12.5912 10.0483 12.7758 9.86389 12.8877 9.63578C12.9995 9.40767 13.0324 9.14882 12.981 8.9C12.9498 8.69058 12.8571 8.49515 12.7147 8.33848C12.5722 8.18181 12.3865 8.07097 12.181 8.02C12.0451 7.99259 11.9048 7.99634 11.7705 8.03098C11.6363 8.06562 11.5117 8.13025 11.406 8.22C11.2771 8.33126 11.1744 8.46964 11.1053 8.62523C11.0361 8.78082 11.0022 8.94978 11.006 9.12C11.006 9.38522 10.9006 9.63957 10.7131 9.82711C10.5256 10.0146 10.2712 10.12 10.006 10.12C9.74078 10.12 9.48643 10.0146 9.29889 9.82711C9.11136 9.63957 9.006 9.38522 9.006 9.12C9.00292 8.65603 9.10234 8.1971 9.29715 7.776C9.49197 7.3549 9.77739 6.98202 10.133 6.684C10.4651 6.40785 10.8538 6.2081 11.2717 6.09888C11.6895 5.98967 12.1263 5.97366 12.551 6.052C13.1586 6.18115 13.713 6.49071 14.1418 6.94016C14.5705 7.3896 14.8536 7.95801 14.954 8.571Z" fill="#6E7274"/>
</svg>
