<svg xmlns="http://www.w3.org/2000/svg" fill="none" viewBox="0 0 18 16" height="16" width="18">
<path stroke-width="1.5" stroke="#3667FE" fill="#3667FE" d="M2.70857 8.59018L8.50241 14.0329C8.64756 14.1692 8.72013 14.2374 8.79905 14.272C8.92694 14.328 9.07241 14.328 9.20029 14.272C9.27921 14.2374 9.35179 14.1692 9.49693 14.0329L15.2908 8.59019C16.9209 7.05884 17.1189 4.53884 15.7478 2.77173L15.4901 2.43946C13.8499 0.325494 10.5577 0.680022 9.40523 3.09472C9.24244 3.43581 8.75691 3.43581 8.59412 3.09472C7.44165 0.680022 4.14944 0.325496 2.50929 2.43946L2.2515 2.77173C0.880464 4.53884 1.07842 7.05883 2.70857 8.59018Z"></path>
</svg>
