<svg width="24" height="24" viewBox="0 0 24 24" fill="none" xmlns="http://www.w3.org/2000/svg">
<path d="M12.4978 3.15435C12.3508 3.05376 12.1774 3 12 3C11.8226 3 11.6492 3.05376 11.5022 3.15435L4.39111 8.01423C4.27061 8.0967 4.17193 8.20785 4.10374 8.33793C4.03555 8.46801 3.99993 8.61304 4 8.76031V20.1C4 20.3387 4.09365 20.5676 4.26035 20.7364C4.42705 20.9052 4.65314 21 4.88889 21H19.1111C19.3469 21 19.573 20.9052 19.7397 20.7364C19.9064 20.5676 20 20.3387 20 20.1V8.76031C20.0001 8.61304 19.9645 8.46801 19.8963 8.33793C19.8281 8.20785 19.7294 8.0967 19.6089 8.01423L12.4978 3.15435ZM13.7778 19.2H10.2222V13.8002H13.7778V19.2ZM18.2222 19.2H15.5556V12.9002C15.5556 12.6615 15.4619 12.4326 15.2952 12.2638C15.1285 12.095 14.9024 12.0002 14.6667 12.0002H9.33333C9.09759 12.0002 8.87149 12.095 8.70479 12.2638C8.5381 12.4326 8.44444 12.6615 8.44444 12.9002V19.2H5.77778V9.2391L12 4.98671L18.2222 9.2391V19.2Z" fill="#6E7274"/>
</svg>
