<svg width="24" height="24" viewBox="0 0 24 24" fill="none" xmlns="http://www.w3.org/2000/svg">
<path d="M5.45455 7.90909C5.94001 7.90909 6.41457 7.76513 6.81822 7.49543C7.22187 7.22572 7.53647 6.84237 7.72225 6.39386C7.90803 5.94535 7.95664 5.45182 7.86193 4.97569C7.76722 4.49955 7.53345 4.0622 7.19017 3.71892C6.8469 3.37565 6.40954 3.14187 5.9334 3.04716C5.45727 2.95246 4.96374 3.00106 4.51523 3.18684C4.06672 3.37262 3.68337 3.68723 3.41367 4.09087C3.14396 4.49452 3 4.96908 3 5.45455C3 6.10553 3.2586 6.72986 3.71892 7.19017C4.17924 7.65049 4.80356 7.90909 5.45455 7.90909ZM5.45455 4.63636C5.61637 4.63636 5.77455 4.68435 5.9091 4.77425C6.04365 4.86416 6.14852 4.99194 6.21045 5.14144C6.27237 5.29094 6.28858 5.45545 6.25701 5.61417C6.22544 5.77288 6.14751 5.91866 6.03309 6.03309C5.91866 6.14751 5.77288 6.22544 5.61416 6.25701C5.45545 6.28858 5.29094 6.27237 5.14144 6.21045C4.99194 6.14852 4.86416 6.04365 4.77425 5.9091C4.68435 5.77455 4.63636 5.61637 4.63636 5.45455C4.63636 5.23755 4.72256 5.02944 4.876 4.876C5.02944 4.72257 5.23755 4.63636 5.45455 4.63636ZM5.45455 14.4545C5.94001 14.4545 6.41457 14.3106 6.81822 14.0409C7.22187 13.7712 7.53647 13.3878 7.72225 12.9393C7.90803 12.4908 7.95664 11.9973 7.86193 11.5211C7.76722 11.045 7.53345 10.6076 7.19017 10.2644C6.8469 9.9211 6.40954 9.68733 5.9334 9.59262C5.45727 9.49791 4.96374 9.54652 4.51523 9.7323C4.06672 9.91807 3.68337 10.2327 3.41367 10.6363C3.14396 11.04 3 11.5145 3 12C3 12.651 3.2586 13.2753 3.71892 13.7356C4.17924 14.1959 4.80356 14.4545 5.45455 14.4545ZM5.45455 11.1818C5.61637 11.1818 5.77455 11.2298 5.9091 11.3197C6.04365 11.4096 6.14852 11.5374 6.21045 11.6869C6.27237 11.8364 6.28858 12.0009 6.25701 12.1596C6.22544 12.3183 6.14751 12.4641 6.03309 12.5785C5.91866 12.693 5.77288 12.7709 5.61416 12.8025C5.45545 12.834 5.29094 12.8178 5.14144 12.7559C4.99194 12.694 4.86416 12.5891 4.77425 12.4546C4.68435 12.32 4.63636 12.1618 4.63636 12C4.63636 11.783 4.72256 11.5749 4.876 11.4215C5.02944 11.268 5.23755 11.1818 5.45455 11.1818ZM5.45455 21C5.94001 21 6.41457 20.856 6.81822 20.5863C7.22187 20.3166 7.53647 19.9333 7.72225 19.4848C7.90803 19.0363 7.95664 18.5427 7.86193 18.0666C7.76722 17.5905 7.53345 17.1531 7.19017 16.8098C6.8469 16.4666 6.40954 16.2328 5.9334 16.1381C5.45727 16.0434 4.96374 16.092 4.51523 16.2778C4.06672 16.4635 3.68337 16.7781 3.41367 17.1818C3.14396 17.5854 3 18.06 3 18.5455C3 19.1964 3.2586 19.8208 3.71892 20.2811C4.17924 20.7414 4.80356 21 5.45455 21ZM5.45455 17.7273C5.61637 17.7273 5.77455 17.7753 5.9091 17.8652C6.04365 17.9551 6.14852 18.0828 6.21045 18.2324C6.27237 18.3819 6.28858 18.5464 6.25701 18.7051C6.22544 18.8638 6.14751 19.0096 6.03309 19.124C5.91866 19.2384 5.77288 19.3163 5.61416 19.3479C5.45545 19.3795 5.29094 19.3633 5.14144 19.3014C4.99194 19.2394 4.86416 19.1346 4.77425 19C4.68435 18.8655 4.63636 18.7073 4.63636 18.5455C4.63636 18.3285 4.72256 18.1204 4.876 17.9669C5.02944 17.8135 5.23755 17.7273 5.45455 17.7273ZM21 5.45455C21 5.67154 20.9138 5.87965 20.7604 6.03309C20.6069 6.18653 20.3988 6.27273 20.1818 6.27273H10.3636C10.1466 6.27273 9.93853 6.18653 9.78509 6.03309C9.63166 5.87965 9.54545 5.67154 9.54545 5.45455C9.54545 5.23755 9.63166 5.02944 9.78509 4.876C9.93853 4.72257 10.1466 4.63636 10.3636 4.63636H20.1818C20.3988 4.63636 20.6069 4.72257 20.7604 4.876C20.9138 5.02944 21 5.23755 21 5.45455ZM21 12C21 12.217 20.9138 12.4251 20.7604 12.5785C20.6069 12.732 20.3988 12.8182 20.1818 12.8182H10.3636C10.1466 12.8182 9.93853 12.732 9.78509 12.5785C9.63166 12.4251 9.54545 12.217 9.54545 12C9.54545 11.783 9.63166 11.5749 9.78509 11.4215C9.93853 11.268 10.1466 11.1818 10.3636 11.1818H20.1818C20.3988 11.1818 20.6069 11.268 20.7604 11.4215C20.9138 11.5749 21 11.783 21 12ZM21 18.5455C21 18.7625 20.9138 18.9706 20.7604 19.124C20.6069 19.2774 20.3988 19.3636 20.1818 19.3636H10.3636C10.1466 19.3636 9.93853 19.2774 9.78509 19.124C9.63166 18.9706 9.54545 18.7625 9.54545 18.5455C9.54545 18.3285 9.63166 18.1204 9.78509 17.9669C9.93853 17.8135 10.1466 17.7273 10.3636 17.7273H20.1818C20.3988 17.7273 20.6069 17.8135 20.7604 17.9669C20.9138 18.1204 21 18.3285 21 18.5455Z" fill="#6E7274"/>
</svg>
