<svg width="24" height="24" viewBox="0 0 24 24" fill="none" xmlns="http://www.w3.org/2000/svg">
<path d="M12 3C9.58763 3 7.625 5.0187 7.625 7.5V10.2H6.75C6.28587 10.2 5.84075 10.3896 5.51256 10.7272C5.18437 11.0648 5 11.5226 5 12V19.2C5 19.6774 5.18437 20.1352 5.51256 20.4728C5.84075 20.8104 6.28587 21 6.75 21H17.25C17.7141 21 18.1592 20.8104 18.4874 20.4728C18.8156 20.1352 19 19.6774 19 19.2V12C19 11.5226 18.8156 11.0648 18.4874 10.7272C18.1592 10.3896 17.7141 10.2 17.25 10.2H16.375V7.5C16.375 5.0187 14.4124 3 12 3ZM9.375 7.5C9.375 6.0114 10.5528 4.8 12 4.8C13.4473 4.8 14.625 6.0114 14.625 7.5V10.2H9.375V7.5ZM12.875 17.1507V19.2H11.125V17.1507C10.8191 16.9705 10.5734 16.6992 10.4205 16.3725C10.2675 16.0458 10.2144 15.6792 10.2681 15.3208C10.3218 14.9624 10.4799 14.6292 10.7214 14.3651C10.963 14.101 11.2767 13.9184 11.6211 13.8414C11.877 13.7832 12.1423 13.7848 12.3975 13.8462C12.6526 13.9075 12.8912 14.0269 13.0955 14.1957C13.2998 14.3645 13.4647 14.5783 13.578 14.8213C13.6912 15.0644 13.75 15.3305 13.75 15.6C13.7495 15.9148 13.6684 16.2238 13.5147 16.4961C13.3611 16.7683 13.1405 16.9941 12.875 17.1507Z" fill="#2296F3"/>
</svg>
