<svg width="24" height="24" viewBox="0 0 24 24" fill="none" xmlns="http://www.w3.org/2000/svg">
<path d="M14.4609 19.7501C14.2894 19.9123 14.0598 20.002 13.8215 20C13.5831 19.9979 13.3551 19.9043 13.1865 19.7393C13.018 19.5743 12.9224 19.351 12.9203 19.1176C12.9182 18.8842 13.0099 18.6594 13.1755 18.4915L18.8964 12.8901H2.90909C2.66798 12.8901 2.43675 12.7963 2.26627 12.6294C2.09578 12.4625 2 12.2361 2 12C2 11.7639 2.09578 11.5375 2.26627 11.3706C2.43675 11.2037 2.66798 11.1099 2.90909 11.1099H18.8964L13.1755 5.50847C13.0099 5.34059 12.9182 5.11575 12.9203 4.88237C12.9224 4.64899 13.018 4.42574 13.1865 4.26071C13.3551 4.09567 13.5831 4.00206 13.8215 4.00003C14.0598 3.99801 14.2894 4.08772 14.4609 4.24986L21.7336 11.3707C21.8179 11.4536 21.8846 11.5519 21.93 11.66C21.9762 11.7676 22 11.8832 22 12C22 12.1168 21.9762 12.2324 21.93 12.34C21.8846 12.4481 21.8179 12.5464 21.7336 12.6293L14.4609 19.7501Z" fill="#6E7274"/>
</svg>
