<svg width="24" height="24" viewBox="0 0 24 24" fill="none" xmlns="http://www.w3.org/2000/svg">
<path d="M21.0909 4H2.90909C2.66799 4 2.43675 4.09365 2.26627 4.26035C2.09578 4.42705 2 4.65314 2 4.88889V19.1111C2 19.3469 2.09578 19.573 2.26627 19.7397C2.43675 19.9064 2.66799 20 2.90909 20H21.0909C21.332 20 21.5632 19.9064 21.7337 19.7397C21.9042 19.573 22 19.3469 22 19.1111V4.88889C22 4.65314 21.9042 4.42705 21.7337 4.26035C21.5632 4.09365 21.332 4 21.0909 4ZM20.1818 18.2222H3.81818V9.75733L11.6618 12.8258C11.8791 12.9099 12.1209 12.9099 12.3382 12.8258L20.1818 9.75733V18.2222ZM20.1818 7.84267L12 11.0427L3.81818 7.84267V5.77778H20.1818V7.84267Z" fill="#6E7274"/>
</svg>
