<svg width="24" height="24" viewBox="0 0 24 24" fill="none" xmlns="http://www.w3.org/2000/svg">
<path d="M20 3H4C3.73478 3 3.48043 3.09981 3.29289 3.27748C3.10536 3.45514 3 3.69611 3 3.94737L3 20.0526C3 20.3039 3.10536 20.5449 3.29289 20.7225C3.48043 20.9002 3.73478 21 4 21H20C20.2652 21 20.5196 20.9002 20.7071 20.7225C20.8946 20.5449 21 20.3039 21 20.0526V3.94737C21 3.69611 20.8946 3.45514 20.7071 3.27748C20.5196 3.09981 20.2652 3 20 3ZM19 19.1053H5V4.89474H19V19.1053ZM9.028 16.6259C9.18767 16.7068 9.36754 16.7452 9.54842 16.7368C9.72929 16.7285 9.90439 16.6738 10.055 16.5785L16.055 12.7891C16.192 12.7025 16.3043 12.5853 16.3819 12.4478C16.4596 12.3103 16.5002 12.1568 16.5002 12.0008C16.5002 11.8449 16.4596 11.6914 16.3819 11.5539C16.3043 11.4164 16.192 11.2992 16.055 11.2126L10.055 7.42316C9.9044 7.32797 9.72935 7.2733 9.54852 7.26498C9.36769 7.25666 9.18786 7.295 9.02823 7.37591C8.8686 7.45683 8.73516 7.57728 8.64213 7.72442C8.54909 7.87156 8.49997 8.03986 8.5 8.21137V15.7903C8.49993 15.9618 8.549 16.1301 8.64199 16.2773C8.73498 16.4245 8.86839 16.5449 9.028 16.6259ZM10.5 9.98106L13.7 12.0008L10.5 14.0206V9.98106Z" fill="#6E7274"/>
</svg>
