<svg width="24" height="24" viewBox="0 0 24 24" fill="none" xmlns="http://www.w3.org/2000/svg">
<path d="M12 14.4545C13.031 14.4532 14.0195 14.0218 14.7485 13.2549C15.4775 12.488 15.8877 11.4482 15.8889 10.3636V7.09091C15.8889 6.00593 15.4792 4.96539 14.7499 4.1982C14.0206 3.43101 13.0314 3 12 3C10.9686 3 9.97945 3.43101 9.25014 4.1982C8.52083 4.96539 8.11111 6.00593 8.11111 7.09091V10.3636C8.11235 11.4482 8.52246 12.488 9.2515 13.2549C9.98055 14.0218 10.969 14.4532 12 14.4545ZM12 4.63636C12.4809 4.63846 12.9494 4.7968 13.3414 5.08971C13.7335 5.38262 14.0299 5.7958 14.1902 6.27273H13.5556C13.3493 6.27273 13.1514 6.35893 13.0056 6.51237C12.8597 6.66581 12.7778 6.87391 12.7778 7.09091C12.7778 7.3079 12.8597 7.51601 13.0056 7.66945C13.1514 7.82289 13.3493 7.90909 13.5556 7.90909H14.3333V9.54545H13.5556C13.3493 9.54545 13.1514 9.63166 13.0056 9.78509C12.8597 9.93853 12.7778 10.1466 12.7778 10.3636C12.7778 10.5806 12.8597 10.7887 13.0056 10.9422C13.1514 11.0956 13.3493 11.1818 13.5556 11.1818H14.1902C14.0318 11.6601 13.7359 12.0746 13.3434 12.368C12.951 12.6613 12.4814 12.819 12 12.819C11.5186 12.819 11.049 12.6613 10.6566 12.368C10.2641 12.0746 9.96817 11.6601 9.80978 11.1818H10.4444C10.6507 11.1818 10.8486 11.0956 10.9944 10.9422C11.1403 10.7887 11.2222 10.5806 11.2222 10.3636C11.2222 10.1466 11.1403 9.93853 10.9944 9.78509C10.8486 9.63166 10.6507 9.54545 10.4444 9.54545H9.66667V7.90909H10.4444C10.6507 7.90909 10.8486 7.82289 10.9944 7.66945C11.1403 7.51601 11.2222 7.3079 11.2222 7.09091C11.2222 6.87391 11.1403 6.66581 10.9944 6.51237C10.8486 6.35893 10.6507 6.27273 10.4444 6.27273H9.80978C9.97006 5.7958 10.2665 5.38262 10.6586 5.08971C11.0506 4.7968 11.5191 4.63846 12 4.63636ZM5 10.3636V8.72727C5 8.51028 5.08194 8.30217 5.22781 8.14873C5.37367 7.99529 5.5715 7.90909 5.77778 7.90909C5.98406 7.90909 6.18189 7.99529 6.32775 8.14873C6.47361 8.30217 6.55556 8.51028 6.55556 8.72727V10.3636C6.55556 11.8826 7.12916 13.3394 8.1502 14.4134C9.17123 15.4875 10.556 16.0909 12 16.0909C13.444 16.0909 14.8288 15.4875 15.8498 14.4134C16.8708 13.3394 17.4444 11.8826 17.4444 10.3636V8.72727C17.4444 8.51028 17.5264 8.30217 17.6722 8.14873C17.8181 7.99529 18.0159 7.90909 18.2222 7.90909C18.4285 7.90909 18.6263 7.99529 18.7722 8.14873C18.9181 8.30217 19 8.51028 19 8.72727V10.3636C18.9975 12.1739 18.362 13.9199 17.2145 15.269C16.067 16.6181 14.4878 17.4759 12.7778 17.679V19.3636H15.1111C15.3174 19.3636 15.5152 19.4498 15.6611 19.6033C15.8069 19.7567 15.8889 19.9648 15.8889 20.1818C15.8889 20.3988 15.8069 20.6069 15.6611 20.7604C15.5152 20.9138 15.3174 21 15.1111 21H8.88889C8.68261 21 8.48478 20.9138 8.33892 20.7604C8.19306 20.6069 8.11111 20.3988 8.11111 20.1818C8.11111 19.9648 8.19306 19.7567 8.33892 19.6033C8.48478 19.4498 8.68261 19.3636 8.88889 19.3636H11.2222V17.679C9.51222 17.4759 7.93301 16.6181 6.78553 15.269C5.63805 13.9199 5.0025 12.1739 5 10.3636Z" fill="#6E7274"/>
</svg>
