<svg width="24" height="24" viewBox="0 0 24 24" fill="none" xmlns="http://www.w3.org/2000/svg">
<path d="M7.71429 3C7.25963 3 6.82359 3.1724 6.5021 3.47928C6.18061 3.78616 6 4.20237 6 4.63636V19.3636C6 19.7976 6.18061 20.2138 6.5021 20.5207C6.82359 20.8276 7.25963 21 7.71429 21H16.2857C16.7404 21 17.1764 20.8276 17.4979 20.5207C17.8194 20.2138 18 19.7976 18 19.3636V4.63636C18 4.20237 17.8194 3.78616 17.4979 3.47928C17.1764 3.1724 16.7404 3 16.2857 3H7.71429ZM16.2857 19.3636H7.71429V4.63636H9.85714L10.2857 5.45455H13.7143L14.1429 4.63636H16.2857V19.3636Z" fill="#6E7274"/>
</svg>
