<svg width="24" height="24" viewBox="0 0 24 24" fill="none" xmlns="http://www.w3.org/2000/svg">
<path d="M21 3.9C21 3.66131 20.9052 3.43239 20.7364 3.2636C20.5676 3.09482 20.3387 3 20.1 3H9.3C9.06131 3 8.83239 3.09482 8.66361 3.2636C8.49482 3.43239 8.4 3.66131 8.4 3.9V14.3004C7.85519 13.9765 7.23383 13.8037 6.6 13.8C5.88799 13.8 5.19197 14.0111 4.59995 14.4067C4.00793 14.8023 3.54651 15.3645 3.27404 16.0223C3.00156 16.6802 2.93027 17.404 3.06917 18.1023C3.20808 18.8007 3.55095 19.4421 4.05442 19.9456C4.55789 20.4491 5.19934 20.7919 5.89768 20.9308C6.59601 21.0697 7.31985 20.9984 7.97766 20.726C8.63548 20.4535 9.19772 19.9921 9.59329 19.4001C9.98886 18.808 10.2 18.112 10.2 17.4V8.4H19.2V14.3004C18.6552 13.9765 18.0338 13.8037 17.4 13.8C16.688 13.8 15.992 14.0111 15.3999 14.4067C14.8079 14.8023 14.3465 15.3645 14.074 16.0223C13.8016 16.6802 13.7303 17.404 13.8692 18.1023C14.0081 18.8007 14.3509 19.4421 14.8544 19.9456C15.3579 20.4491 15.9993 20.7919 16.6977 20.9308C17.396 21.0697 18.1198 20.9984 18.7777 20.726C19.4355 20.4535 19.9977 19.9921 20.3933 19.4001C20.7889 18.808 21 18.112 21 17.4V3.9ZM6.6 19.2C6.24399 19.2 5.89598 19.0944 5.59998 18.8966C5.30397 18.6989 5.07326 18.4177 4.93702 18.0888C4.80078 17.7599 4.76513 17.398 4.83459 17.0488C4.90404 16.6997 5.07547 16.3789 5.32721 16.1272C5.57894 15.8755 5.89967 15.704 6.24884 15.6346C6.598 15.5651 6.95992 15.6008 7.28883 15.737C7.61774 15.8733 7.89886 16.104 8.09665 16.4C8.29443 16.696 8.4 17.044 8.4 17.4C8.4 17.8774 8.21036 18.3352 7.87279 18.6728C7.53523 19.0104 7.07739 19.2 6.6 19.2ZM10.2 6.6V4.8H19.2V6.6H10.2ZM17.4 19.2C17.044 19.2 16.696 19.0944 16.4 18.8966C16.104 18.6989 15.8733 18.4177 15.737 18.0888C15.6008 17.7599 15.5651 17.398 15.6346 17.0488C15.704 16.6997 15.8755 16.3789 16.1272 16.1272C16.3789 15.8755 16.6997 15.704 17.0488 15.6346C17.398 15.5651 17.7599 15.6008 18.0888 15.737C18.4177 15.8733 18.6989 16.104 18.8966 16.4C19.0944 16.696 19.2 17.044 19.2 17.4C19.2 17.8774 19.0104 18.3352 18.6728 18.6728C18.3352 19.0104 17.8774 19.2 17.4 19.2Z" fill="#6E7274"/>
</svg>
