<svg width="22" height="30" viewBox="0 0 22 30" fill="none" xmlns="http://www.w3.org/2000/svg">
<path d="M13.5 30H2.5C1.121 30 0 28.879 0 27.5V2.5C0 1.121 1.121 0 2.5 0H13.5C14.879 0 16 1.121 16 2.5V4.5C16 4.776 15.775 5 15.5 5C15.225 5 15 4.776 15 4.5V2.5C15 1.673 14.327 1 13.5 1H2.5C1.673 1 1 1.673 1 2.5V27.5C1 28.327 1.673 29 2.5 29H13.5C14.327 29 15 28.327 15 27.5V19.5C15 19.225 15.225 19 15.5 19C15.775 19 16 19.225 16 19.5V27.5C16 28.879 14.879 30 13.5 30Z" fill="#263238"/>
<path d="M7.1084 14L6.03027 9.85156H6.90527L7.54199 12.5703L8.12793 9.85156H8.99512L9.56152 12.5703L10.2139 9.85156H11.1006L10.0068 14H9.14355L8.55762 11.332L7.97949 14H7.1084ZM12.2178 14L11.1396 9.85156H12.0146L12.6514 12.5703L13.2373 9.85156H14.1045L14.6709 12.5703L15.3232 9.85156H16.21L15.1162 14H14.2529L13.667 11.332L13.0889 14H12.2178ZM17.3271 14L16.249 9.85156H17.124L17.7607 12.5703L18.3467 9.85156H19.2139L19.7803 12.5703L20.4326 9.85156H21.3193L20.2256 14H19.3623L18.7764 11.332L18.1982 14H17.3271Z" fill="black"/>
</svg>
