<svg width="24" height="24" viewBox="0 0 24 24" fill="none" xmlns="http://www.w3.org/2000/svg">
<path d="M3.9 21H20.1C20.3387 21 20.5676 20.9052 20.7364 20.7364C20.9052 20.5676 21 20.3387 21 20.1V3.9C21 3.66131 20.9052 3.43239 20.7364 3.2636C20.5676 3.09482 20.3387 3 20.1 3H3.9C3.66131 3 3.43239 3.09482 3.2636 3.2636C3.09482 3.43239 3 3.66131 3 3.9V20.1C3 20.3387 3.09482 20.5676 3.2636 20.7364C3.43239 20.9052 3.66131 21 3.9 21ZM6.0726 19.2L10.2 15.0726L11.3637 16.2363C11.5325 16.405 11.7614 16.4998 12 16.4998C12.2386 16.4998 12.4675 16.405 12.6363 16.2363L16.5 12.3726L19.2 15.0726V19.2H6.0726ZM19.2 4.8V12.5274L17.1363 10.4637C16.9675 10.295 16.7386 10.2002 16.5 10.2002C16.2614 10.2002 16.0325 10.295 15.8637 10.4637L12 14.3274L10.8363 13.1637C10.6675 12.995 10.4386 12.9002 10.2 12.9002C9.96135 12.9002 9.73247 12.995 9.5637 13.1637L4.8 17.9274V4.8H19.2ZM6.6 8.85C6.6 8.40499 6.73196 7.96998 6.97919 7.59997C7.22643 7.22996 7.57783 6.94157 7.98896 6.77127C8.4001 6.60097 8.8525 6.55642 9.28895 6.64323C9.72541 6.73005 10.1263 6.94434 10.441 7.25901C10.7557 7.57368 10.97 7.97459 11.0568 8.41105C11.1436 8.8475 11.099 9.2999 10.9287 9.71104C10.7584 10.1222 10.47 10.4736 10.1 10.7208C9.73002 10.968 9.29501 11.1 8.85 11.1C8.25326 11.1 7.68097 10.8629 7.25901 10.441C6.83705 10.019 6.6 9.44674 6.6 8.85Z" fill="#6E7274"/>
</svg>
