<svg width="24" height="24" viewBox="0 0 24 24" fill="none" xmlns="http://www.w3.org/2000/svg">
<path d="M12 3C8.68286 3 6 5.817 6 9.3C6 14.025 12 21 12 21C12 21 18 14.025 18 9.3C18 5.817 15.3171 3 12 3ZM12 11.55C11.4317 11.55 10.8866 11.3129 10.4848 10.891C10.0829 10.469 9.85714 9.89674 9.85714 9.3C9.85714 8.70326 10.0829 8.13097 10.4848 7.70901C10.8866 7.28705 11.4317 7.05 12 7.05C12.5683 7.05 13.1134 7.28705 13.5152 7.70901C13.9171 8.13097 14.1429 8.70326 14.1429 9.3C14.1429 9.89674 13.9171 10.469 13.5152 10.891C13.1134 11.3129 12.5683 11.55 12 11.55Z" fill="#1476D2"/>
</svg>
