<svg width="24" height="24" viewBox="0 0 24 24" fill="none" xmlns="http://www.w3.org/2000/svg">
<path d="M18.9999 10.3642C19.0024 9.3997 18.8237 8.44414 18.4742 7.55207C18.1247 6.66 17.6112 5.84889 16.9629 5.16507C15.6537 3.78401 13.8753 3.00523 12.0188 3.00003C10.1623 2.99483 8.37994 3.76364 7.06372 5.13734C5.7475 6.51104 5.00527 8.37709 5.00032 10.325C4.98388 12.5879 5.60995 14.8048 6.79875 16.693C7.98756 18.5812 9.68525 20.0552 11.6755 20.9273C11.7772 20.9756 11.8877 21.0004 11.9993 21C12.1118 21.0002 12.223 20.9751 12.3255 20.9265C14.3097 20.0571 16.0032 18.5892 17.1914 16.7088C18.3796 14.8285 19.009 12.6203 18.9999 10.3642ZM11.9993 19.2845C10.3581 18.5264 8.9664 17.2774 7.99819 15.6937C7.02998 14.1099 6.52828 12.2619 6.55583 10.3805C6.55582 9.63048 6.69663 8.88776 6.97019 8.1948C7.24375 7.50183 7.64471 6.87219 8.15019 6.34181C8.65567 5.81144 9.25575 5.39072 9.91619 5.10369C10.5766 4.81665 11.2845 4.66891 11.9993 4.66891C12.7142 4.66891 13.422 4.81665 14.0825 5.10369C14.7429 5.39072 15.343 5.81144 15.8485 6.34181C16.3539 6.87219 16.7549 7.50183 17.0285 8.1948C17.302 8.88776 17.4428 9.63048 17.4428 10.3805C17.4428 10.3977 17.4428 10.4173 17.4428 10.4336C17.4617 12.3063 16.9559 14.1434 15.9881 15.717C15.0203 17.2905 13.6333 18.5311 11.9993 19.2845ZM13.5564 10.3805C13.5564 10.7037 13.4651 11.0195 13.294 11.2882C13.1229 11.5569 12.8797 11.7663 12.5952 11.8899C12.3107 12.0136 11.9976 12.046 11.6956 11.9829C11.3935 11.9199 11.1161 11.7643 10.8983 11.5358C10.6806 11.3073 10.5323 11.0162 10.4722 10.6993C10.4121 10.3824 10.4429 10.0539 10.5608 9.75533C10.6786 9.4568 10.8782 9.20164 11.1343 9.02212C11.3903 8.8426 11.6914 8.74678 11.9993 8.74678C12.4123 8.74678 12.8083 8.91891 13.1003 9.2253C13.3923 9.53169 13.5564 9.94724 13.5564 10.3805Z" fill="#6E7274"/>
</svg>
