<svg width="24" height="24" viewBox="0 0 24 24" fill="none" xmlns="http://www.w3.org/2000/svg">
<path fill-rule="evenodd" clip-rule="evenodd" d="M12.8575 3.4855C12.6768 3.1843 12.3513 3 12 3C11.6488 3 11.3232 3.1843 11.1425 3.4855L8.37012 8.10617L3.8039 9.01942C3.45395 9.08941 3.16783 9.34059 3.0531 9.67853C2.93837 10.0165 3.01243 10.3899 3.24744 10.6585L6.43583 14.3024L5.51362 19.8356C5.45288 20.2 5.59804 20.5683 5.89113 20.7933C6.18421 21.0182 6.57746 21.0633 6.91382 20.9104L12 18.5985L17.0862 20.9104C17.4226 21.0633 17.8158 21.0182 18.1089 20.7933C18.402 20.5683 18.5472 20.2 18.4864 19.8356L17.5642 14.3024L20.7526 10.6585C20.9876 10.3899 21.0617 10.0165 20.9469 9.67853C20.8322 9.34059 20.5461 9.08941 20.1961 9.01942L15.6299 8.10617L12.8575 3.4855ZM9.85751 9.5145L12 5.94365L14.1425 9.5145C14.2875 9.75609 14.5276 9.92533 14.8039 9.98058L18.1097 10.6417L15.7474 13.3415C15.5502 13.5669 15.4644 13.8689 15.5136 14.1644L16.205 18.3129L12.4138 16.5896C12.1509 16.4701 11.8491 16.4701 11.5862 16.5896L7.79499 18.3129L8.48641 14.1644C8.53566 13.8689 8.44985 13.5669 8.25259 13.3415L5.89031 10.6417L9.19613 9.98058C9.47241 9.92533 9.71255 9.75609 9.85751 9.5145Z" fill="#6E7274"/>
</svg>
