<svg width="24" height="24" viewBox="0 0 24 24" fill="none" xmlns="http://www.w3.org/2000/svg">
<path d="M3 3.9V20.1C3 20.3387 3.09482 20.5676 3.2636 20.7364C3.43239 20.9052 3.66131 21 3.9 21H20.1C20.3387 21 20.5676 20.9052 20.7364 20.7364C20.9052 20.5676 21 20.3387 21 20.1V3.9C21 3.66131 20.9052 3.43239 20.7364 3.2636C20.5676 3.09482 20.3387 3 20.1 3H3.9C3.66131 3 3.43239 3.09482 3.2636 3.2636C3.09482 3.43239 3 3.66131 3 3.9ZM6.8304 19.2C7.41077 18.3668 8.18394 17.6862 9.08406 17.2162C9.98418 16.7462 10.9846 16.5007 12 16.5007C13.0154 16.5007 14.0158 16.7462 14.9159 17.2162C15.8161 17.6862 16.5892 18.3668 17.1696 19.2H6.8304ZM4.8 4.8H19.2V19.1433C18.5301 17.8077 17.5019 16.6848 16.2304 15.9001C14.9589 15.1154 13.4942 14.6998 12 14.6998C10.5058 14.6998 9.04113 15.1154 7.76962 15.9001C6.49811 16.6848 5.46992 17.8077 4.8 19.1433V4.8ZM12 13.8C12.712 13.8 13.408 13.5889 14.0001 13.1933C14.5921 12.7977 15.0535 12.2355 15.326 11.5777C15.5984 10.9198 15.6697 10.196 15.5308 9.49767C15.3919 8.79934 15.0491 8.15788 14.5456 7.65442C14.0421 7.15095 13.4007 6.80808 12.7023 6.66917C12.004 6.53027 11.2802 6.60156 10.6223 6.87403C9.96453 7.14651 9.40228 7.60793 9.00671 8.19995C8.61114 8.79196 8.4 9.48799 8.4 10.2C8.4 11.1548 8.77928 12.0705 9.45442 12.7456C10.1295 13.4207 11.0452 13.8 12 13.8ZM12 8.4C12.356 8.4 12.704 8.50557 13 8.70335C13.296 8.90114 13.5267 9.18226 13.663 9.51117C13.7992 9.84008 13.8349 10.202 13.7654 10.5512C13.696 10.9003 13.5245 11.2211 13.2728 11.4728C13.0211 11.7245 12.7003 11.896 12.3512 11.9654C12.002 12.0349 11.6401 11.9992 11.3112 11.863C10.9823 11.7267 10.7011 11.496 10.5034 11.2C10.3056 10.904 10.2 10.556 10.2 10.2C10.2 9.72261 10.3896 9.26477 10.7272 8.92721C11.0648 8.58964 11.5226 8.4 12 8.4Z" fill="#6E7274"/>
</svg>
