<svg width="193" height="146" viewBox="0 0 193 146" fill="none" xmlns="http://www.w3.org/2000/svg">
<path d="M59.9163 130.508C30.3773 100.264 -14.0161 62.5705 8.86282 20.6692C31.5649 -20.9081 80.3371 11.3826 119.341 21.6743C150.043 29.7751 190.971 32.1978 192.663 69.1667C194.355 106.108 155.423 125.111 124.727 139.295C101.464 150.045 77.3875 148.395 59.9163 130.508Z" fill="#E8F2FB"/>
<rect x="1.92037" y="0.903019" width="13.1096" height="13.0954" transform="matrix(0.940912 -0.338652 0.339338 0.940665 -0.192957 84.5892)" stroke="#FF4500" stroke-width="3"/>
<rect width="7.15093" height="7.14463" transform="matrix(0.940912 -0.338652 0.339338 0.940665 16 30.9084)" fill="#2296F3"/>
<ellipse cx="163.5" cy="13.0045" rx="6.5" ry="6.49257" fill="#FFE1D6"/>
<ellipse cx="172.5" cy="43.9691" rx="3.5" ry="3.496" fill="#FF8B60"/>
<ellipse cx="140.5" cy="24.9908" rx="5.5" ry="5.49371" fill="#2296F3"/>
<circle cx="95" cy="73.4812" r="40" fill="#1476D2"/>
<path fill-rule="evenodd" clip-rule="evenodd" d="M89.1909 80.8899L112.733 57.3479L116.316 60.9306L89.1909 88.0552L74.7329 73.5972L78.3156 70.0146L89.1909 80.8899Z" fill="white"/>
</svg>
