<svg width="24" height="24" viewBox="0 0 24 24" fill="none" xmlns="http://www.w3.org/2000/svg">
<path d="M5.12179 15.3665C6.3684 16.6149 8.02849 17.3643 9.78931 17.4736C11.5501 17.5828 13.2901 17.0444 14.6815 15.9598L19.4691 20.7473C19.6389 20.9113 19.8663 21.002 20.1023 21C20.3383 20.9979 20.5641 20.9032 20.7311 20.7363C20.898 20.5694 20.9926 20.3436 20.9947 20.1076C20.9967 19.8715 20.906 19.6441 20.742 19.4743L15.9545 14.6868C17.0873 13.2331 17.6228 11.4019 17.452 9.56689C17.2811 7.73184 16.4166 6.03109 15.0349 4.81149C13.6531 3.5919 11.8582 2.94532 10.0161 3.00363C8.17408 3.06193 6.42363 3.82073 5.12179 5.12526C4.44912 5.79759 3.91551 6.59586 3.55145 7.47448C3.18739 8.35309 3 9.29483 3 10.2459C3 11.1969 3.18739 12.1387 3.55145 13.0173C3.91551 13.8959 4.44912 14.6942 5.12179 15.3665ZM6.39475 6.40002C7.28471 5.51007 8.45571 4.95623 9.70823 4.83286C10.9607 4.70949 12.2173 5.02421 13.2638 5.72341C14.3103 6.42261 15.082 7.46303 15.4474 8.6674C15.8128 9.87177 15.7493 11.1656 15.2678 12.3284C14.7862 13.4912 13.9164 14.4511 12.8064 15.0445C11.6965 15.6379 10.4152 15.8281 9.18077 15.5827C7.94634 15.3373 6.83519 14.6714 6.03662 13.6986C5.23806 12.7258 4.80149 11.5063 4.8013 10.2477C4.79883 9.5325 4.93842 8.82395 5.21195 8.16314C5.48549 7.50233 5.88753 6.90242 6.39475 6.39822V6.40002Z" fill="#6E7274"/>
</svg>
