<svg xmlns="http://www.w3.org/2000/svg" width="28.057" height="26.118" viewBox="0 0 28.057 26.118">
  <g id="Grupo_29202" data-name="Grupo 29202" transform="translate(-132.601 -140.1)">
    <path id="_3178367_date_interface_month_calendar_icon" data-name="3178367_date_interface_month_calendar_icon" d="M23.471,1.582H19.686V.791a.758.758,0,1,0-1.514,0v.791H9.086V.791a.758.758,0,1,0-1.514,0v.791H3.786A3.874,3.874,0,0,0,0,5.538V21.362a3.874,3.874,0,0,0,3.786,3.956H23.471a3.874,3.874,0,0,0,3.786-3.956V5.538A3.874,3.874,0,0,0,23.471,1.582Zm2.271,19.78a2.324,2.324,0,0,1-2.271,2.374H3.786a2.324,2.324,0,0,1-2.271-2.374V9.494H25.743Zm0-13.45H1.514V5.538A2.324,2.324,0,0,1,3.786,3.165H7.571v.791a.758.758,0,1,0,1.514,0V3.165h9.086v.791a.758.758,0,1,0,1.514,0V3.165h3.786a2.324,2.324,0,0,1,2.271,2.374Z" transform="translate(133.001 140.5)" fill="#5715e8"/>
    <path id="_3178367_date_interface_month_calendar_icon_-_Contorno" data-name="3178367_date_interface_month_calendar_icon - Contorno" d="M8.329-.4A1.176,1.176,0,0,1,9.486.791v.391h8.286V.791a1.158,1.158,0,1,1,2.314,0v.391h3.386a4.077,4.077,0,0,1,2.966,1.282,4.42,4.42,0,0,1,1.22,3.074V21.362a4.278,4.278,0,0,1-4.186,4.356H3.786A4.278,4.278,0,0,1-.4,21.362V5.538A4.278,4.278,0,0,1,3.786,1.182H7.171V.791A1.176,1.176,0,0,1,8.329-.4ZM18.571,1.982H8.686V.791a.359.359,0,1,0-.714,0V1.982H3.786A3.478,3.478,0,0,0,.4,5.538V21.362a3.478,3.478,0,0,0,3.386,3.556H23.471a3.478,3.478,0,0,0,3.386-3.556V5.538a3.623,3.623,0,0,0-1-2.521,3.284,3.284,0,0,0-2.388-1.035H19.286V.791a.359.359,0,1,0-.714,0ZM3.786,2.765H7.971V3.956a.359.359,0,1,0,.714,0V2.765h9.886V3.956a.359.359,0,1,0,.714,0V2.765h4.186a2.727,2.727,0,0,1,2.671,2.774V8.312H1.114V5.538A2.727,2.727,0,0,1,3.786,2.765Zm3.386.8H3.786A1.927,1.927,0,0,0,1.914,5.538V7.512H25.343V5.538a1.927,1.927,0,0,0-1.871-1.974H20.086v.391a1.158,1.158,0,1,1-2.314,0V3.565H9.486v.391a1.158,1.158,0,1,1-2.314,0ZM1.114,9.094H26.143V21.362a2.727,2.727,0,0,1-2.671,2.774H3.786a2.727,2.727,0,0,1-2.671-2.774Zm24.229.8H1.914V21.362a1.927,1.927,0,0,0,1.871,1.974H23.471a1.927,1.927,0,0,0,1.871-1.974Z" transform="translate(133.001 140.5)" fill="#5715e8"/>
  </g>
</svg>
