<svg xmlns="http://www.w3.org/2000/svg" width="26.335" height="25.677" viewBox="0 0 26.335 25.677">
  <g id="Grupo_29203" data-name="Grupo 29203" transform="translate(-74.985 -139.896)">
    <g id="XMLID_148_" transform="translate(45.962 89.9)">
      <g id="XMLID_12_" transform="translate(29.694 51.1)">
        <path id="XMLID_16_" d="M53.74,52.334c-.138.174-.273.348-.411.522-.356.455-.715.907-1.071,1.362q-.752.959-1.508,1.918l-1.7,2.163-1.676,2.131-1.406,1.788-.918,1.167-.2.255a.668.668,0,0,0-.166.327,1.014,1.014,0,0,0-.01.153v6.555c0,.12,0,.237,0,.356,0,.008-.008.052,0,.057s.023-.1,0-.044c-.008.023-.016.049-.021.073-.01.055.008-.034.018-.036a.582.582,0,0,0-.055.1c-.042.07,0-.023.013-.016l-.052.055c-.062.068.065-.034-.016.013-.01.008-.023.013-.034.021a.02.02,0,0,1-.01.005c-.052.031-.1.06-.159.091q-.924.526-1.848,1.055l-2.238,1.276-.6.34a.188.188,0,0,0-.049.029s-.008,0-.008.005c.013-.034.1-.008.031-.013-.01,0-.083.018.005,0s-.052-.018.044,0,.01,0-.008-.005c-.049-.026.057.026.052.023-.078-.042.07.07.008.008-.026-.023-.047-.07.023.034-.01-.016-.029-.062,0,.005s.008.016.005,0c.005.029.005.109.005.036v-.016c.005-.372,0-.743,0-1.115V64.13c0-.029,0-.055,0-.083a.662.662,0,0,0-.166-.387c-.06-.078-.122-.153-.182-.231-.294-.374-.59-.749-.884-1.123l-1.4-1.773-1.661-2.113q-.858-1.088-1.713-2.176-.756-.963-1.515-1.929c-.366-.468-.736-.933-1.1-1.4-.148-.19-.3-.379-.447-.567.008.008.081.125.042.049l-.031-.057c.005,0,.034.1.021.052a.437.437,0,0,0-.029-.1c.039.049.005.114.008.049v-.044a.252.252,0,0,0,0-.044s-.026.112-.008.065c.01-.031.018-.068.026-.1.021-.073-.057.1,0,.005a.318.318,0,0,0,.031-.049c.023-.044-.034.047-.036.047.016-.005.049-.049.062-.062.047-.047.01.029-.036.026.01,0,.029-.021.039-.023.107-.042-.086.018,0-.005.026-.008.14-.029.055-.018s.01,0,.029,0H53.561c.026,0,.117.008.034,0s.031.013.055.018c.083.021-.083-.052-.013,0,.008.005.047.031.049.031s-.081-.073-.047-.036a.706.706,0,0,0,.062.062c.036.029-.034-.044-.036-.049,0,.01.026.036.031.049s.013.029.021.039c.029.036-.021-.052-.023-.057a.594.594,0,0,0,.031.1.263.263,0,0,0,.008.044c0-.005,0-.112-.01-.065a.468.468,0,0,0,0,.1c0-.008.026-.107.008-.065a.272.272,0,0,0-.01.044l-.016.044c-.013.052.016-.052.021-.052s-.065.1-.07.112a.522.522,0,0,0,.187.712.534.534,0,0,0,.712-.187,1.177,1.177,0,0,0,.107-1.151,1.2,1.2,0,0,0-1-.717,1.785,1.785,0,0,0-.205-.008H30.963a1.41,1.41,0,0,0-.626.135,1.19,1.19,0,0,0-.346,1.838l.483.616c.385.489.767.977,1.151,1.463q.791,1.006,1.58,2.012.877,1.119,1.757,2.235l1.677,2.131L38,63.264c.263.335.528.671.79,1,.036.044.07.088.107.135-.052-.122-.1-.244-.153-.366v9.919c0,.057,0,.114,0,.169a.952.952,0,0,0,.626.894,1.251,1.251,0,0,0,1.1-.263l2.638-1.5c.645-.366,1.3-.725,1.936-1.1a1.344,1.344,0,0,0,.663-1.138V64.031c-.052.122-.1.244-.153.366q.444-.565.892-1.131l2.121-2.7,2.581-3.283q1.111-1.415,2.225-2.828c.361-.457.72-.915,1.081-1.375l.016-.018a.568.568,0,0,0,.153-.366.522.522,0,0,0-.153-.366A.531.531,0,0,0,53.74,52.334Z" transform="translate(-29.694 -51.1)" fill="#5715e8"/>
        <path id="XMLID_16__-_Contorno" data-name="XMLID_16_ - Contorno" d="M30.126,50l.316.566q.094-.023.191-.038l.024-.078.027.071a2.245,2.245,0,0,1,.278-.017H52.9l-.014-.125L53,50.5h.456a2.309,2.309,0,0,1,.274.012,2,2,0,0,1,.221.037l.277-.542.029.639.04.017.385-.488-.1.643a1.743,1.743,0,0,1,.635.775,1.818,1.818,0,0,1,.03,1.36l.042.044-.057-.009a1.635,1.635,0,0,1-.193.343,1.318,1.318,0,0,1-.089.11l-.207.262q-.443.564-.886,1.126-1.114,1.414-2.224,2.827l-4.7,5.981q-.308.388-.61.773v6.61a1.945,1.945,0,0,1-.957,1.642c-.451.268-.914.528-1.361.78l-.584.33-1.321.754-.936.534.184.268-.393-.148-.171.1-.07.04a2.076,2.076,0,0,1-1.047.356,1.384,1.384,0,0,1-.5-.1,1.557,1.557,0,0,1-.836-.745H38.31l.007-.01a1.608,1.608,0,0,1-.169-.678c0-.052,0-.1,0-.142,0-.016,0-.032,0-.048V64.417c-.205-.26-.411-.521-.616-.782l-.682-.866-.682-.866-.839-1.067-.837-1.065-.879-1.119-.879-1.118q-.787-1.006-1.58-2.011-.369-.466-.738-.937L30,54.06l-.473-.6-.152.074.086-.161-.008-.011-.388.158.225-.3-.269.074.233-.267a1.651,1.651,0,0,1-.153-.873,1.847,1.847,0,0,1,.665-1.261L29.62,50.3l.418.416.042-.02.047-.022Zm22.535,2.741H31.787l.4.506.552.7q.485.62.972,1.237l.543.691.856,1.087.856,1.087,1.662,2.114.7.887.7.885.443.563.442.561,0,.005.084.107c.033.041.066.083.1.125a1.248,1.248,0,0,1,.289.712,1.036,1.036,0,0,1,0,.114v8.809l.717-.408,1.115-.636c.613-.352,1.237-.707,1.841-1.051l0-.027.022-.017c0-.037,0-.075,0-.112V64.122a1.6,1.6,0,0,1,.016-.238,1.246,1.246,0,0,1,.289-.614L46.9,60.06,47.741,59l.839-1.067.852-1.083.848-1.079.752-.957.755-.96.536-.682Z" transform="translate(-29.694 -51.1)" fill="#5414e1"/>
      </g>
    </g>
  </g>
</svg>
