<svg width="24" height="24" viewBox="0 0 24 24" fill="none" xmlns="http://www.w3.org/2000/svg">
<path d="M20.5454 5.61324C20.5336 5.59214 20.5172 5.57105 20.4985 5.55464C20.3813 5.43746 20.1914 5.43746 20.0743 5.55464L16.036 9.59292L14.4446 8.00152L18.4852 3.96089C18.5039 3.94214 18.518 3.92339 18.5321 3.9023C18.6164 3.75933 18.5696 3.57652 18.4266 3.49214C16.125 2.13277 13.111 2.44449 11.1305 4.42261C9.5602 5.99292 9.03988 8.21949 9.57192 10.221L2.70473 17.0882C2.63442 17.1585 2.6391 17.2734 2.71176 17.346L6.6891 21.3234C6.76176 21.396 6.87895 21.4007 6.94692 21.3304L13.8118 14.4656C15.8157 15 18.0422 14.482 19.6149 12.9093C21.593 10.9289 21.9047 7.9148 20.5454 5.61324ZM18.4219 11.714C17.0602 13.0757 15.0164 13.3382 13.3922 12.5015L13.186 12.7078L13.1836 12.7054L6.76176 19.1296L4.90551 17.2734L10.2985 11.8804C10.2985 11.8804 10.2985 11.8828 10.3008 11.8828L11.5383 10.6453C10.7016 9.02105 10.9641 6.9773 12.3258 5.61558C12.765 5.17601 13.2939 4.83641 13.8764 4.62001C14.4588 4.4036 15.0812 4.31549 15.7008 4.36167L12.586 7.47417C12.4453 7.61502 12.3663 7.80596 12.3663 8.00503C12.3663 8.20411 12.4453 8.39505 12.586 8.53589L15.5039 11.4539C15.6448 11.5946 15.8357 11.6736 16.0348 11.6736C16.2339 11.6736 16.4248 11.5946 16.5657 11.4539L19.6782 8.34136C19.7649 9.55542 19.3407 10.7976 18.4219 11.714Z" fill="#6E7274"/>
</svg>
