<svg width="24" height="24" viewBox="0 0 24 24" fill="none" xmlns="http://www.w3.org/2000/svg">
<path d="M3.24037 8.40335L7.33132 4.23407C7.48564 4.08218 7.69231 3.99813 7.90684 4.00003C8.12136 4.00193 8.32658 4.08963 8.47828 4.24423C8.62998 4.39884 8.71602 4.60798 8.71789 4.82661C8.71975 5.04525 8.63728 5.25588 8.48824 5.41314L5.79313 8.15987L20.1818 8.15987C20.3988 8.15987 20.6069 8.24772 20.7604 8.4041C20.9138 8.56048 21 8.77257 21 8.99372L21 18.1661C21 18.3873 20.9138 18.5994 20.7604 18.7558C20.6069 18.9121 20.3988 19 20.1818 19L11.9999 19C11.7829 19 11.5748 18.9121 11.4214 18.7558C11.2679 18.5994 11.1817 18.3873 11.1817 18.1661C11.1817 17.945 11.2679 17.7329 11.4214 17.5765C11.5748 17.4201 11.7829 17.3323 11.9999 17.3323L19.3636 17.3323L19.3636 9.82758L5.79313 9.82758L8.48743 12.5735C8.63647 12.7307 8.71893 12.9414 8.71707 13.16C8.71521 13.3786 8.62916 13.5878 8.47746 13.7424C8.32576 13.897 8.12055 13.9847 7.90602 13.9866C7.69149 13.9885 7.48482 13.9044 7.3305 13.7525L3.23956 9.58326C3.16354 9.50576 3.10325 9.41375 3.06215 9.3125C3.02104 9.21124 2.99992 9.10271 3 8.99313C3.00008 8.88355 3.02135 8.77506 3.06259 8.67386C3.10384 8.57266 3.16425 8.48074 3.24037 8.40335Z" fill="#6E7274"/>
</svg>
