<svg width="24" height="24" viewBox="0 0 24 24" fill="none" xmlns="http://www.w3.org/2000/svg">
<path d="M20.7596 14.5966L16.6687 18.7659C16.5144 18.9178 16.3077 19.0019 16.0932 19C15.8786 18.9981 15.6734 18.9104 15.5217 18.7558C15.37 18.6012 15.284 18.392 15.2821 18.1734C15.2802 17.9548 15.3627 17.7441 15.5118 17.5869L18.2069 14.8401H3.81819C3.60119 14.8401 3.39308 14.7523 3.23964 14.5959C3.0862 14.4395 3 14.2274 3 14.0063V4.83386C3 4.6127 3.0862 4.40061 3.23964 4.24423C3.39308 4.08785 3.60119 4 3.81819 4H12.0001C12.2171 4 12.4252 4.08785 12.5786 4.24423C12.7321 4.40061 12.8183 4.6127 12.8183 4.83386C12.8183 5.05501 12.7321 5.2671 12.5786 5.42348C12.4252 5.57986 12.2171 5.66771 12.0001 5.66771H4.63638V13.1724H18.2069L15.5126 10.4265C15.3635 10.2693 15.2811 10.0586 15.2829 9.83999C15.2848 9.62136 15.3708 9.41222 15.5225 9.25761C15.6742 9.10301 15.8795 9.01532 16.094 9.01342C16.3085 9.01152 16.5152 9.09556 16.6695 9.24746L20.7604 13.4167C20.8365 13.4942 20.8967 13.5862 20.9379 13.6875C20.979 13.7888 21.0001 13.8973 21 14.0069C20.9999 14.1164 20.9787 14.2249 20.9374 14.3261C20.8962 14.4273 20.8358 14.5193 20.7596 14.5966Z" fill="#6E7274"/>
</svg>
