<svg width="24" height="24" viewBox="0 0 24 24" fill="none" xmlns="http://www.w3.org/2000/svg">
<path d="M12 2C10.0222 2 8.08879 2.58649 6.4443 3.6853C4.79981 4.78412 3.51809 6.3459 2.76121 8.17316C2.00433 10.0004 1.8063 12.0111 2.19215 13.9509C2.578 15.8907 3.53041 17.6725 4.92894 19.0711C6.32746 20.4696 8.10929 21.422 10.0491 21.8078C11.9889 22.1937 13.9996 21.9957 15.8268 21.2388C17.6541 20.4819 19.2159 19.2002 20.3147 17.5557C21.4135 15.9112 22 13.9778 22 12C21.9969 9.34879 20.9423 6.80707 19.0676 4.93239C17.1929 3.0577 14.6512 2.00313 12 2ZM12 20.1818C10.3077 20.1425 8.66295 19.6139 7.26455 18.66C7.86135 17.9952 8.59146 17.4635 9.40734 17.0995C10.2232 16.7355 11.1066 16.5474 12 16.5474C12.8934 16.5474 13.7768 16.7355 14.5927 17.0995C15.4085 17.4635 16.1387 17.9952 16.7355 18.66C15.3487 19.6375 13.6966 20.1684 12 20.1818ZM18.0855 17.4491C17.3197 16.5928 16.3819 15.9077 15.3332 15.4386C14.2846 14.9696 13.1488 14.7272 12 14.7272C10.8512 14.7272 9.71542 14.9696 8.66677 15.4386C7.61813 15.9077 6.68029 16.5928 5.91455 17.4491C4.85771 16.2731 4.16424 14.8161 3.91801 13.2543C3.67178 11.6925 3.88335 10.0928 4.52712 8.64876C5.17088 7.20467 6.21928 5.97804 7.54549 5.11724C8.8717 4.25643 10.4189 3.79832 12 3.79832C13.5811 3.79832 15.1283 4.25643 16.4545 5.11724C17.7807 5.97804 18.8291 7.20467 19.4729 8.64876C20.1167 10.0928 20.3282 11.6925 20.082 13.2543C19.8358 14.8161 19.1423 16.2731 18.0855 17.4491ZM12 6.54545C11.2808 6.54545 10.5777 6.75872 9.97975 7.15829C9.38175 7.55786 8.91567 8.12578 8.64044 8.79024C8.36521 9.4547 8.2932 10.1859 8.43351 10.8912C8.57382 11.5966 8.92015 12.2446 9.42871 12.7531C9.93726 13.2617 10.5852 13.608 11.2906 13.7483C11.996 13.8886 12.7271 13.8166 13.3916 13.5414C14.056 13.2662 14.624 12.8001 15.0235 12.2021C15.4231 11.6041 15.6364 10.901 15.6364 10.1818C15.6364 9.21739 15.2532 8.29247 14.5713 7.61052C13.8893 6.92857 12.9644 6.54545 12 6.54545ZM12 12C11.6404 12 11.2889 11.8934 10.9899 11.6936C10.6909 11.4938 10.4578 11.2098 10.3202 10.8776C10.1826 10.5454 10.1466 10.1798 10.2168 9.82711C10.2869 9.47441 10.4601 9.15045 10.7144 8.89617C10.9686 8.64189 11.2926 8.46873 11.6453 8.39857C11.998 8.32842 12.3636 8.36442 12.6958 8.50204C13.028 8.63965 13.312 8.87269 13.5118 9.17169C13.7115 9.47069 13.8182 9.82221 13.8182 10.1818C13.8182 10.664 13.6266 11.1265 13.2857 11.4675C12.9447 11.8084 12.4822 12 12 12Z" fill="#6E7274"/>
</svg>
