<svg width="44" height="27" viewBox="0 0 44 27" fill="none" xmlns="http://www.w3.org/2000/svg">
<path d="M3.90916 6.6034C2.68327 6.6034 1.6852 7.60184 1.6852 8.82774V22.1727C1.6852 23.3997 2.68327 24.3971 3.90916 24.3971C5.13587 24.3971 6.13354 23.3997 6.13354 22.1727V8.82774C6.13354 7.60184 5.13587 6.6034 3.90916 6.6034ZM3.90916 26.082C1.75407 26.082 0 24.3282 0 22.1727V8.82774C0 6.67225 1.75407 4.91845 3.90916 4.91845C6.06506 4.91845 7.81873 6.67225 7.81873 8.82774V22.1727C7.81873 24.3282 6.06506 26.082 3.90916 26.082Z" fill="#1476D2"/>
<path d="M39.5894 6.6034C38.3627 6.6034 37.3654 7.60184 37.3654 8.82774V22.1727C37.3654 23.3997 38.3627 24.3971 39.5894 24.3971C40.8161 24.3971 41.8133 23.3997 41.8133 22.1727V8.82774C41.8133 7.60184 40.8161 6.6034 39.5894 6.6034ZM39.5894 26.082C37.4335 26.082 35.6798 24.3282 35.6798 22.1727V8.82774C35.6798 6.67225 37.4335 4.91845 39.5894 4.91845C41.7453 4.91845 43.499 6.67225 43.499 8.82774V22.1727C43.499 24.3282 41.7453 26.082 39.5894 26.082Z" fill="#1476D2"/>
<path d="M20.8342 6.73692H22.6641V2.6002C22.6641 2.09524 22.2537 1.68522 21.7492 1.68522C21.2451 1.68522 20.8342 2.09524 20.8342 2.6002V6.73692ZM23.5069 8.42188H19.9922C19.5264 8.42188 19.1495 8.04524 19.1495 7.57993V2.6002C19.1495 1.16669 20.3158 0.000264168 21.7492 0.000264168C23.1829 0.000264168 24.3493 1.16669 24.3493 2.6002V7.57993C24.3493 8.04524 23.9723 8.42188 23.5069 8.42188Z" fill="#1476D2"/>
<path d="M19.9922 3.44336H16.0618C15.5968 3.44336 15.2195 3.06569 15.2195 2.60037C15.2195 2.13401 15.5968 1.75736 16.0618 1.75736H19.9922C20.4572 1.75736 20.8342 2.13401 20.8342 2.60037C20.8342 3.06569 20.4572 3.44336 19.9922 3.44336Z" fill="#1476D2"/>
<path d="M27.4361 3.44336H23.5065C23.0411 3.44336 22.6638 3.06569 22.6638 2.60037C22.6638 2.13401 23.0411 1.75736 23.5065 1.75736H27.4361C27.9019 1.75736 28.279 2.13401 28.279 2.60037C28.279 3.06569 27.9019 3.44336 27.4361 3.44336Z" fill="#1476D2"/>
<path d="M14.2559 5.05322H12.4493C11.9839 5.05322 11.607 4.67659 11.607 4.21128C11.607 3.74596 11.9839 3.36828 12.4493 3.36828H14.2559C14.787 3.36828 15.2194 2.93634 15.2194 2.4053C15.2194 2.00884 14.8966 1.68542 14.5001 1.68542H12.4493C11.9839 1.68542 11.607 1.30878 11.607 0.842417C11.607 0.3771 11.9839 0.000469685 12.4493 0.000469685H14.5001C15.8258 0.000469685 16.9042 1.07925 16.9042 2.4053C16.9042 3.86489 15.7159 5.05322 14.2559 5.05322Z" fill="#1476D2"/>
<path d="M31.049 5.05322H29.2428C27.7822 5.05322 26.5941 3.86489 26.5941 2.4053C26.5941 1.07925 27.6725 0.000469685 28.9987 0.000469685H31.049C31.514 0.000469685 31.8919 0.3771 31.8919 0.842417C31.8919 1.30878 31.514 1.68542 31.049 1.68542H28.9987C28.6017 1.68542 28.279 2.00884 28.279 2.4053C28.279 2.93634 28.7113 3.36828 29.2428 3.36828H31.049C31.514 3.36828 31.8919 3.74596 31.8919 4.21128C31.8919 4.67659 31.514 5.05322 31.049 5.05322Z" fill="#1476D2"/>
<path d="M7.8186 21.3309H15.8676C16.1251 21.3309 16.3692 21.4488 16.5287 21.6502C16.5612 21.6919 16.6334 21.7608 16.7459 21.7608H26.7527C26.8656 21.7608 26.9368 21.6919 26.9695 21.6502C27.1297 21.4488 27.373 21.3309 27.631 21.3309H35.6795V9.8013H27.8453C27.4386 9.8013 27.0901 9.51126 27.0163 9.11062C26.943 8.71208 26.5958 8.42204 26.1907 8.42204H17.3078C16.9028 8.42204 16.5552 8.71208 16.4817 9.11062C16.4084 9.51126 16.0599 9.8013 15.6536 9.8013H7.8186V21.3309ZM26.7527 23.4468H16.7459C16.2959 23.4468 15.868 23.2924 15.5232 23.0148H6.9758C6.51079 23.0148 6.13341 22.6382 6.13341 22.1729V8.95935C6.13341 8.49299 6.51079 8.11636 6.9758 8.11636H15.0582C15.48 7.28692 16.3387 6.73709 17.3078 6.73709H26.1907C27.1594 6.73709 28.0186 7.28692 28.4403 8.11636H36.5223C36.9877 8.11636 37.3651 8.49299 37.3651 8.95935V22.1729C37.3651 22.6382 36.9877 23.0148 36.5223 23.0148H27.9753C27.6301 23.2924 27.2026 23.4468 26.7527 23.4468Z" fill="#1476D2"/>
<path d="M15.6538 15.2588C15.188 15.2588 14.811 14.8821 14.811 14.4168V8.95927C14.811 8.49291 15.188 8.11628 15.6538 8.11628C16.1188 8.11628 16.4962 8.49291 16.4962 8.95927V14.4168C16.4962 14.8821 16.1188 15.2588 15.6538 15.2588Z" fill="#1476D2"/>
<path d="M27.8454 23.0146C27.3796 23.0146 27.0026 22.638 27.0026 22.1727V15.9608C27.0026 15.4955 27.3796 15.1178 27.8454 15.1178C28.3104 15.1178 28.6878 15.4955 28.6878 15.9608V22.1727C28.6878 22.638 28.3104 23.0146 27.8454 23.0146Z" fill="#1476D2"/>
<path d="M27.8454 12.3804C27.3796 12.3804 27.0026 12.0027 27.0026 11.5374V8.95935C27.0026 8.49299 27.3796 8.11636 27.8454 8.11636C28.3104 8.11636 28.6878 8.49299 28.6878 8.95935V11.5374C28.6878 12.0027 28.3104 12.3804 27.8454 12.3804Z" fill="#1476D2"/>
<path d="M15.6538 23.0146C15.188 23.0146 14.811 22.638 14.811 22.1727V19.0668C14.811 18.6014 15.188 18.2238 15.6538 18.2238C16.1188 18.2238 16.4962 18.6014 16.4962 19.0668V22.1727C16.4962 22.638 16.1188 23.0146 15.6538 23.0146Z" fill="#1476D2"/>
</svg>
