<svg width="32" height="37" viewBox="0 0 32 37" fill="none" xmlns="http://www.w3.org/2000/svg">
<path d="M13.2064 36H4.68956C4.61144 36 4.53409 35.9846 4.462 35.9546C4.3899 35.9247 4.32448 35.8809 4.26954 35.8256C4.21459 35.7704 4.1712 35.7049 4.14188 35.6328C4.11256 35.5608 4.09789 35.4837 4.09872 35.406V30.5606C4.09016 30.4779 4.09914 30.3943 4.12509 30.3153C4.15104 30.2363 4.19338 30.1635 4.24937 30.1018C4.30536 30.0401 4.37375 29.9908 4.45011 29.957C4.52648 29.9232 4.60913 29.9058 4.6927 29.9058C4.77628 29.9058 4.85892 29.9232 4.93529 29.957C5.01166 29.9908 5.08005 30.0401 5.13603 30.1018C5.19202 30.1635 5.23436 30.2363 5.26031 30.3153C5.28626 30.3943 5.29524 30.4779 5.28668 30.5606V34.8183H12.6093V33.8492C12.6093 33.6917 12.6722 33.5406 12.7842 33.4292C12.8961 33.3178 13.048 33.2553 13.2064 33.2553C13.3648 33.2553 13.5166 33.3178 13.6286 33.4292C13.7406 33.5406 13.8035 33.6917 13.8035 33.8492V35.406C13.7959 35.5611 13.7305 35.7078 13.6202 35.8176C13.5098 35.9274 13.3623 35.9924 13.2064 36Z" fill="#1476D2"/>
<path d="M4.68958 27.5096C4.60872 27.5097 4.52868 27.4934 4.45442 27.4615C4.38016 27.4297 4.31327 27.383 4.25788 27.3244C4.20249 27.2658 4.15979 27.1965 4.13242 27.1208C4.10505 27.0451 4.09359 26.9646 4.09875 26.8844V22.8204H1.62855C1.46736 22.8124 1.31545 22.743 1.20428 22.6266C1.09312 22.5102 1.03123 22.3558 1.03143 22.1952V12.967C1.0331 11.7587 1.51639 10.6004 2.37534 9.74598C3.23429 8.89158 4.39881 8.41085 5.61355 8.40919H12.3139C13.0274 8.40739 13.7315 8.57228 14.3692 8.89061C14.4642 8.98361 14.527 9.10422 14.5486 9.23504C14.5701 9.36586 14.5493 9.5001 14.4891 9.61839C14.429 9.73668 14.3326 9.83289 14.2139 9.89312C14.0952 9.95335 13.9603 9.97449 13.8287 9.95348C13.3593 9.71692 12.8401 9.59477 12.3139 9.59711H5.58212C4.68411 9.59876 3.82336 9.95433 3.18837 10.586C2.55338 11.2176 2.19591 12.0738 2.19425 12.967V21.6513H4.70844C4.78968 21.6461 4.87111 21.6577 4.94763 21.6853C5.02416 21.7129 5.09412 21.7559 5.15314 21.8117C5.21215 21.8675 5.25895 21.9348 5.29059 22.0094C5.32222 22.084 5.33802 22.1643 5.33699 22.2452V26.8844C5.34289 26.9696 5.33003 27.0551 5.29931 27.1349C5.26859 27.2147 5.22074 27.2869 5.15911 27.3464C5.09748 27.4059 5.02355 27.4513 4.94245 27.4795C4.86136 27.5077 4.77507 27.518 4.68958 27.5096Z" fill="#1476D2"/>
<path d="M8.95112 35.9999C8.86988 36.0051 8.78845 35.9935 8.71193 35.9659C8.6354 35.9383 8.56544 35.8953 8.50642 35.8395C8.44741 35.7837 8.40061 35.7164 8.36897 35.6418C8.33734 35.5672 8.32154 35.4869 8.32257 35.406V29.8853C8.31401 29.8026 8.32299 29.719 8.34894 29.64C8.37489 29.561 8.41723 29.4883 8.47322 29.4265C8.5292 29.3648 8.59759 29.3155 8.67396 29.2817C8.75033 29.2479 8.83297 29.2305 8.91655 29.2305C9.00012 29.2305 9.08277 29.2479 9.15914 29.2817C9.2355 29.3155 9.30389 29.3648 9.35988 29.4265C9.41587 29.4883 9.45821 29.561 9.48416 29.64C9.51011 29.719 9.51909 29.8026 9.51053 29.8853V35.406C9.51237 35.5576 9.45517 35.7041 9.35091 35.8148C9.24665 35.9255 9.1034 35.9919 8.95112 35.9999Z" fill="#1476D2"/>
<path d="M4.68956 22.8392C4.52948 22.8297 4.37913 22.7596 4.26929 22.6434C4.15946 22.5271 4.09843 22.3735 4.09872 22.214V13.9737C4.09016 13.891 4.09914 13.8074 4.12509 13.7284C4.15104 13.6494 4.19338 13.5766 4.24937 13.5149C4.30536 13.4532 4.37375 13.4038 4.45011 13.3701C4.52648 13.3363 4.60913 13.3188 4.6927 13.3188C4.77628 13.3188 4.85892 13.3363 4.93529 13.3701C5.01166 13.4038 5.08005 13.4532 5.13603 13.5149C5.19202 13.5766 5.23436 13.6494 5.26031 13.7284C5.28626 13.8074 5.29524 13.891 5.28668 13.9737V22.2453C5.27906 22.4004 5.2137 22.5471 5.10333 22.6569C4.99296 22.7667 4.84546 22.8317 4.68956 22.8392Z" fill="#1476D2"/>
<path d="M4.68958 20.676H1.62855C1.54541 20.6845 1.46141 20.6756 1.38196 20.6498C1.30252 20.624 1.2294 20.5818 1.16735 20.5262C1.1053 20.4705 1.0557 20.4024 1.02174 20.3265C0.98779 20.2505 0.970245 20.1683 0.970245 20.0852C0.970245 20.002 0.98779 19.9198 1.02174 19.8439C1.0557 19.7679 1.1053 19.6999 1.16735 19.6442C1.2294 19.5885 1.30252 19.5464 1.38196 19.5206C1.46141 19.4948 1.54541 19.4858 1.62855 19.4943H4.68958C4.77271 19.4858 4.85672 19.4948 4.93617 19.5206C5.01561 19.5464 5.08872 19.5885 5.15077 19.6442C5.21282 19.6999 5.26243 19.7679 5.29638 19.8439C5.33034 19.9198 5.34788 20.002 5.34788 20.0852C5.34788 20.1683 5.33034 20.2505 5.29638 20.3265C5.26243 20.4024 5.21282 20.4705 5.15077 20.5262C5.08872 20.5818 5.01561 20.624 4.93617 20.6498C4.85672 20.6756 4.77271 20.6845 4.68958 20.676Z" fill="#1476D2"/>
<path d="M8.95113 7.89016C8.16779 7.88522 7.40347 7.64965 6.75455 7.21317C6.10564 6.77668 5.60121 6.15882 5.30487 5.43753C5.00853 4.71623 4.93357 3.9238 5.08943 3.16017C5.24529 2.39655 5.625 1.69594 6.18066 1.1467C6.73633 0.597465 7.44306 0.224204 8.21172 0.0739971C8.98038 -0.0762103 9.77655 0.00336291 10.4998 0.302681C11.2231 0.601998 11.841 1.10765 12.2757 1.75587C12.7104 2.40409 12.9424 3.16584 12.9424 3.94504C12.9416 4.465 12.8376 4.97968 12.6364 5.45959C12.4352 5.9395 12.1408 6.37519 11.77 6.74169C11.3992 7.10819 10.9594 7.3983 10.4757 7.59538C9.99193 7.79246 9.47385 7.89263 8.95113 7.89016ZM8.95113 1.18783C8.4029 1.18783 7.86698 1.34954 7.41115 1.65251C6.95531 1.95547 6.60003 2.38609 6.39023 2.8899C6.18043 3.39372 6.12554 3.9481 6.23249 4.48295C6.33945 5.01779 6.60345 5.50908 6.9911 5.89468C7.37876 6.28028 7.87267 6.54288 8.41036 6.64927C8.94806 6.75566 9.50539 6.70106 10.0119 6.49237C10.5184 6.28368 10.9513 5.93029 11.2559 5.47686C11.5605 5.02344 11.723 4.49037 11.723 3.94504C11.7214 3.21429 11.4288 2.51395 10.9093 1.99723C10.3899 1.48051 9.68577 1.18949 8.95113 1.18783Z" fill="#1476D2"/>
<path d="M22.1255 35.9999C22.0458 36.0011 21.9667 35.9862 21.8929 35.9562L5.72668 29.1788C5.58018 29.1157 5.46332 28.9994 5.39984 28.8537C5.34365 28.7088 5.34365 28.5484 5.39984 28.4035L14.6772 6.52094C14.7073 6.44865 14.7518 6.38314 14.8079 6.32835C14.8641 6.27356 14.9308 6.23061 15.0041 6.20208C15.1497 6.14618 15.311 6.14618 15.4566 6.20208L31.6354 12.9607C31.7803 13.0277 31.8941 13.1471 31.9537 13.2946C32.0132 13.4421 32.014 13.6066 31.956 13.7547L22.6723 35.6373C22.6282 35.7453 22.5525 35.8376 22.455 35.9023C22.3575 35.9669 22.2427 36.001 22.1255 35.9999ZM6.73865 28.316L21.8238 34.6307L30.6235 13.8235L15.5572 7.50253L6.73865 28.316Z" fill="#1476D2"/>
<path d="M21.0067 32.8363C20.927 32.8374 20.8479 32.8225 20.7741 32.7925L8.7877 27.7908C8.64723 27.724 8.53667 27.6077 8.47745 27.4645C8.41823 27.3213 8.41456 27.1613 8.46714 27.0155L15.8086 9.66573C15.881 9.53162 16.0002 9.42841 16.1437 9.37546C16.2872 9.32251 16.4451 9.32346 16.588 9.37813L28.5744 14.3799C28.6471 14.4098 28.7129 14.454 28.768 14.5099C28.8231 14.5658 28.8663 14.6321 28.895 14.705C28.9261 14.776 28.9422 14.8526 28.9422 14.9301C28.9422 15.0075 28.9261 15.0841 28.895 15.1551L21.5535 32.4736C21.5244 32.5465 21.4803 32.6125 21.424 32.6674C21.3677 32.7223 21.3005 32.7649 21.2267 32.7925C21.1573 32.8226 21.0823 32.8375 21.0067 32.8363ZM9.79967 26.8842L20.6861 31.4483L27.5624 15.1926L16.676 10.6286L9.79967 26.8842Z" fill="#1476D2"/>
<path d="M15.1298 30.0478C15.0501 30.049 14.971 30.0341 14.8972 30.0041C14.7567 29.9373 14.6462 29.821 14.5869 29.6778C14.5277 29.5346 14.5241 29.3746 14.5766 29.2288L21.6855 12.4542C21.7527 12.3145 21.8695 12.2045 22.0135 12.1456C22.1575 12.0867 22.3184 12.0831 22.4649 12.1354C22.6069 12.2023 22.7185 12.3196 22.7778 12.4642C22.8371 12.6089 22.8399 12.7703 22.7855 12.9169L15.6766 29.6852C15.6325 29.7932 15.5568 29.8855 15.4593 29.9502C15.3618 30.0149 15.247 30.0489 15.1298 30.0478Z" fill="#1476D2"/>
<path d="M24.4826 24.0957C24.4029 24.0959 24.324 24.0811 24.25 24.0519L12.647 19.1878C12.5062 19.1198 12.396 19.002 12.3378 18.8575C12.2797 18.7129 12.2779 18.552 12.3327 18.4062C12.3629 18.3345 12.4071 18.2695 12.4627 18.2148C12.5183 18.1602 12.5843 18.1171 12.6568 18.0881C12.7293 18.059 12.8069 18.0445 12.885 18.0455C12.9632 18.0464 13.0404 18.0628 13.1121 18.0936L24.7151 22.9578C24.8615 23.0249 24.9764 23.1453 25.0361 23.2943C25.0957 23.4432 25.0956 23.6093 25.0357 23.7581C24.9831 23.8591 24.9038 23.9439 24.8063 24.0034C24.7088 24.0629 24.5969 24.0948 24.4826 24.0957Z" fill="#1476D2"/>
<path d="M27.8264 35.9997H1.62855C1.54541 36.0082 1.46141 35.9993 1.38196 35.9735C1.30252 35.9477 1.2294 35.9056 1.16735 35.8499C1.1053 35.7942 1.0557 35.7262 1.02174 35.6502C0.98779 35.5742 0.970245 35.492 0.970245 35.4089C0.970245 35.3258 0.98779 35.2436 1.02174 35.1676C1.0557 35.0916 1.1053 35.0236 1.16735 34.9679C1.2294 34.9122 1.30252 34.8701 1.38196 34.8443C1.46141 34.8185 1.54541 34.8095 1.62855 34.8181H27.8264C27.9734 34.8331 28.1096 34.9019 28.2086 35.011C28.3076 35.1201 28.3624 35.2619 28.3624 35.4089C28.3624 35.5559 28.3076 35.6977 28.2086 35.8068C28.1096 35.9159 27.9734 35.9847 27.8264 35.9997Z" fill="#1476D2"/>
</svg>
