<svg width="45" height="32" viewBox="0 0 45 32" fill="none" xmlns="http://www.w3.org/2000/svg">
<path d="M29.2682 31.9668C29.0571 31.9668 28.8454 31.8849 28.6838 31.7241L25.2994 28.3397C24.9761 28.0171 24.9761 27.4928 25.2994 27.1703C25.6218 26.8477 26.1458 26.8477 26.4689 27.1703L29.2682 29.9699L43.0034 16.2347L29.2682 2.50049L26.4689 5.30017C26.1458 5.62274 25.6226 5.62274 25.2994 5.30017C24.9761 4.97761 24.9761 4.4533 25.2994 4.13073L28.6838 0.74634C28.9939 0.43606 29.5431 0.43606 29.853 0.74634L44.7574 15.651C45.0802 15.9726 45.0802 16.4969 44.7574 16.8204L29.853 31.7241C29.6914 31.8849 29.4799 31.9668 29.2682 31.9668Z" fill="#1476D2"/>
<path d="M15.7308 31.9668C15.5192 31.9668 15.3075 31.8849 15.1459 31.7241L0.242006 16.8204C0.0868021 16.6648 0 16.4549 0 16.2347C0 16.0156 0.0868021 15.8056 0.242006 15.651L15.1459 0.746342C15.3012 0.591715 15.5112 0.503649 15.7308 0.503649C15.9504 0.503649 16.1603 0.591715 16.3152 0.746342L21.0473 5.47836C21.3705 5.80195 21.3705 6.32523 21.0473 6.64779C20.7245 6.97036 20.2008 6.97036 19.8777 6.64779L15.7308 2.5005L1.99605 16.2347L15.7308 29.9699L29.4655 16.2347L23.0737 9.84377C22.751 9.5212 22.751 8.9969 23.0737 8.67433C23.3969 8.35176 23.9206 8.35176 24.2434 8.67433L31.2195 15.651C31.3748 15.8056 31.4619 16.0156 31.4619 16.2347C31.4619 16.4549 31.3748 16.6648 31.2195 16.8204L16.3152 31.7241C16.1536 31.8849 15.9424 31.9668 15.7308 31.9668Z" fill="#1476D2"/>
<path d="M32.2328 22.2344C32.0203 22.2344 31.8092 22.1535 31.6476 21.9907C31.3247 21.6691 31.3247 21.1448 31.6476 20.8222L36.2341 16.2346L22.4993 2.50041L19.6997 5.30009C19.3772 5.62265 18.8536 5.62265 18.5308 5.30009C18.2077 4.97752 18.2077 4.45424 18.5308 4.13064L21.9149 0.746252C22.2249 0.435972 22.7741 0.435972 23.0846 0.746252L37.9881 15.6509C38.3113 15.9725 38.3113 16.4968 37.9881 16.8204L32.8172 21.9907C32.6555 22.1535 32.444 22.2344 32.2328 22.2344Z" fill="#1476D2"/>
<path d="M22.4993 31.9668C22.2877 31.9668 22.0765 31.8849 21.9149 31.7241L18.5308 28.3397C18.2077 28.0171 18.2077 27.4928 18.5308 27.1703C18.8536 26.8477 19.3769 26.8477 19.6997 27.1703L22.4993 29.9699L28.8787 23.5913C29.2015 23.2677 29.7251 23.2677 30.0479 23.5913C30.3711 23.9139 30.3711 24.4382 30.0479 24.7597L23.0846 31.7241C22.9229 31.8849 22.7113 31.9668 22.4993 31.9668Z" fill="#1476D2"/>
</svg>
