<svg width="24" height="37" viewBox="0 0 24 37" fill="none" xmlns="http://www.w3.org/2000/svg">
<path d="M10.4836 25.9895C9.46545 25.9895 8.63865 26.8172 8.63865 27.8336V33.7626C8.63865 34.7791 9.46545 35.6068 10.4836 35.6068C11.5001 35.6068 12.3278 34.7791 12.3278 33.7626V27.8336C12.3278 26.8172 11.5001 25.9895 10.4836 25.9895ZM10.4836 37C8.69814 37 7.24628 35.5473 7.24628 33.7626V27.8336C7.24628 26.049 8.69814 24.5963 10.4836 24.5963C12.2683 24.5963 13.7201 26.049 13.7201 27.8336V33.7626C13.7201 35.5473 12.2683 37 10.4836 37Z" fill="#1476D2"/>
<path d="M10.4835 25.9893C10.0982 25.9893 9.78693 25.6772 9.78693 25.2926V23.6701C9.78693 22.1182 11.0491 20.856 12.6001 20.856H20.4612C21.4785 20.856 22.3062 20.0284 22.3062 19.011V16.697C22.3062 15.6797 21.4785 14.852 20.4612 14.852H19.9585C19.574 14.852 19.2619 14.5408 19.2619 14.1563C19.2619 13.7718 19.574 13.4605 19.9585 13.4605H20.4612C22.2458 13.4605 23.6985 14.9124 23.6985 16.697V19.011C23.6985 20.7957 22.2458 22.2475 20.4612 22.2475H12.6001C11.8173 22.2475 11.1793 22.8855 11.1793 23.6701V25.2926C11.1793 25.6772 10.8672 25.9893 10.4835 25.9893Z" fill="#1476D2"/>
<path d="M13.0235 29.4478H7.94202C7.55751 29.4478 7.24628 29.1365 7.24628 28.7512C7.24628 28.3666 7.55751 28.0554 7.94202 28.0554H13.0235C13.4089 28.0554 13.7201 28.3666 13.7201 28.7512C13.7201 29.1365 13.4089 29.4478 13.0235 29.4478Z" fill="#1476D2"/>
<path d="M13.0235 33.541H7.94202C7.55751 33.541 7.24628 33.2298 7.24628 32.8444C7.24628 32.4599 7.55751 32.1487 7.94202 32.1487H13.0235C13.4089 32.1487 13.7201 32.4599 13.7201 32.8444C13.7201 33.2298 13.4089 33.541 13.0235 33.541Z" fill="#1476D2"/>
<path d="M2.27851 11.6915C1.96124 11.6915 1.70432 11.9493 1.70432 12.2657V16.0471C1.70432 16.3635 1.96124 16.6213 2.27851 16.6213H18.6878C19.0042 16.6213 19.2619 16.3635 19.2619 16.0471V12.2657C19.2619 11.9493 19.0042 11.6915 18.6878 11.6915H2.27851ZM18.6878 18.0137H2.27851C1.19393 18.0137 0.311951 17.1317 0.311951 16.0471V12.2657C0.311951 11.182 1.19393 10.3 2.27851 10.3H18.6878C19.7723 10.3 20.6543 11.182 20.6543 12.2657V16.0471C20.6543 17.1317 19.7723 18.0137 18.6878 18.0137Z" fill="#1476D2"/>
<path d="M2.97416 10.2999H17.9919V3.35617C17.9919 2.72594 17.4789 2.21297 16.8478 2.21297C16.2185 2.21297 15.7055 2.72594 15.7055 3.35617V3.58118C15.7055 4.94251 14.5976 6.05038 13.2363 6.05038C11.8732 6.05038 10.7663 4.94251 10.7663 3.58118V2.4561C10.7663 1.86984 10.2886 1.3922 9.70236 1.3922C9.1161 1.3922 8.63847 1.86984 8.63847 2.4561V5.64777C8.63847 6.84184 7.66769 7.81261 6.47362 7.81261C5.27955 7.81261 4.30876 6.84184 4.30876 5.64777V4.60025C4.30876 4.23211 4.00873 3.93294 3.64146 3.93294C3.27332 3.93294 2.97416 4.23211 2.97416 4.60025V10.2999ZM18.6877 11.6914H2.27841C1.89389 11.6914 1.58179 11.3802 1.58179 10.9956V4.60025C1.58179 3.46394 2.50601 2.54059 3.64146 2.54059C4.77691 2.54059 5.70027 3.46394 5.70027 4.60025V5.64777C5.70027 6.07367 6.04772 6.42025 6.47362 6.42025C6.89952 6.42025 7.2461 6.07367 7.2461 5.64777V2.4561C7.2461 1.10166 8.34792 -0.000159264 9.70236 -0.000159264C11.0568 -0.000159264 12.1586 1.10166 12.1586 2.4561V3.58118C12.1586 4.1752 12.6414 4.65802 13.2363 4.65802C13.8295 4.65802 14.3131 4.1752 14.3131 3.58118V3.35617C14.3131 1.95777 15.4503 0.820606 16.8478 0.820606C18.2471 0.820606 19.3843 1.95777 19.3843 3.35617V10.9956C19.3843 11.3802 19.073 11.6914 18.6877 11.6914Z" fill="#1476D2"/>
<path d="M11.462 9.36816C11.0775 9.36816 10.7663 9.05606 10.7663 8.67241V3.09604C10.7663 2.71153 11.0775 2.40028 11.462 2.40028C11.8466 2.40028 12.1587 2.71153 12.1587 3.09604V8.67241C12.1587 9.05606 11.8466 9.36816 11.462 9.36816Z" fill="#1476D2"/>
<path d="M5.18038 9.89746C4.79586 9.89746 4.48462 9.58538 4.48462 9.20086V8.38957C4.48462 8.00505 4.79586 7.69297 5.18038 7.69297C5.56576 7.69297 5.87699 8.00505 5.87699 8.38957V9.20086C5.87699 9.58538 5.56576 9.89746 5.18038 9.89746Z" fill="#1476D2"/>
<path d="M15.5383 9.33203C15.1538 9.33203 14.8417 9.02079 14.8417 8.63627V6.97837C14.8417 6.59385 15.1538 6.28261 15.5383 6.28261C15.9229 6.28261 16.235 6.59385 16.235 6.97837V8.63627C16.235 9.02079 15.9229 9.33203 15.5383 9.33203Z" fill="#1476D2"/>
<path d="M12.0053 15.4351H1.00771C0.623192 15.4351 0.311951 15.1238 0.311951 14.7393C0.311951 14.3548 0.623192 14.0427 1.00771 14.0427H12.0053C12.3898 14.0427 12.701 14.3548 12.701 14.7393C12.701 15.1238 12.3898 15.4351 12.0053 15.4351Z" fill="#1476D2"/>
</svg>
