<svg width="39" height="35" viewBox="0 0 39 35" fill="none" xmlns="http://www.w3.org/2000/svg">
<path d="M12.3798 10.9621C12.26 10.9621 12.1391 10.9763 12.0186 11.008C11.5207 11.1335 11.1369 11.5046 10.992 11.9968L5.24818 31.4745C5.09635 31.99 5.23252 32.523 5.61147 32.9035C5.99089 33.2817 6.52456 33.4179 7.03865 33.2661L26.5179 27.523C27.0101 27.3774 27.3804 26.9936 27.507 26.496C27.6337 25.9983 27.4925 25.4839 27.1295 25.1202L22.6213 20.6119C22.3275 20.3185 22.3275 19.8424 22.6213 19.5485L24.1081 18.0613C24.1959 17.9736 24.2089 17.8709 24.2089 17.8181C24.2089 17.765 24.1959 17.6612 24.1081 17.5739L20.9404 14.4058C20.8527 14.3184 20.75 14.306 20.6969 14.306C20.6437 14.306 20.5414 14.3184 20.4533 14.4058L18.9661 15.8934C18.6723 16.1871 18.1961 16.1871 17.9023 15.8934L13.3941 11.3851C13.1185 11.1095 12.7562 10.9621 12.3798 10.9621ZM6.61338 34.8345C5.84811 34.8345 5.11313 34.5334 4.54694 33.9669C3.77189 33.1915 3.49443 32.1011 3.80432 31.0497L9.54779 11.5708C9.84482 10.5642 10.6294 9.8073 11.6469 9.54913C12.6634 9.2892 13.7151 9.57719 14.4582 10.3209L18.4342 14.2969L19.3891 13.3416C20.0867 12.6426 21.3059 12.6426 22.0053 13.3416L25.1726 16.5105C25.5221 16.8588 25.7147 17.323 25.7147 17.8181C25.7147 18.3118 25.5221 18.776 25.1726 19.1255L24.2177 20.0808L28.1936 24.0567C28.936 24.7987 29.2251 25.849 28.9658 26.8669C28.7066 27.8845 27.9508 28.6701 26.9431 28.9665L7.46458 34.7096C7.18134 34.7933 6.89522 34.8345 6.61338 34.8345Z" fill="#1476D2"/>
<path d="M22.5456 13.8822L24.6323 15.9698L29.8996 10.7022C30.0423 10.5595 30.2396 10.4663 30.4396 10.4823C31.0814 10.4823 31.7225 10.2369 32.1885 9.7709L36.2976 5.6617C37.2464 4.71302 37.2464 3.16785 36.2976 2.21916C35.3469 1.26749 33.8024 1.26749 32.8525 2.2173L28.7437 6.32538C28.2777 6.7925 28.0247 7.41322 28.0324 8.07475C28.0345 8.27793 27.9548 8.47262 27.8117 8.61541L22.5456 13.8822ZM24.6323 17.7861C24.4398 17.7861 24.2475 17.7126 24.1004 17.5663L20.9484 14.4141C20.6546 14.1196 20.6546 13.6446 20.9484 13.35L26.5368 7.76169C26.6034 6.8158 27.0024 5.93767 27.6796 5.26197L31.7884 1.15211C33.3248 -0.383924 35.8241 -0.383924 37.3601 1.15211C38.8979 2.69169 38.8979 5.1903 37.3619 6.72624L33.253 10.8354C32.5765 11.5123 31.6989 11.9109 30.753 11.9783L25.1642 17.5663C25.0172 17.7126 24.825 17.7861 24.6323 17.7861Z" fill="#1476D2"/>
<path d="M30.4316 11.9873C30.2389 11.9873 30.0464 11.9138 29.8997 11.7674L26.7477 8.61541C26.4534 8.3209 26.4534 7.84464 26.7477 7.55125C27.0418 7.25674 27.5176 7.25674 27.8117 7.55125L30.9635 10.7022C31.258 10.9974 31.258 11.4741 30.9635 11.7674C30.8164 11.9138 30.6238 11.9873 30.4316 11.9873Z" fill="#1476D2"/>
<path d="M9.97493 26.1763C9.89916 26.1763 9.82236 26.165 9.74631 26.1406C9.35048 26.015 9.13174 25.5916 9.25728 25.1955L11.8753 16.952C12.0009 16.557 12.424 16.3371 12.8204 16.4638C13.2169 16.5893 13.4356 17.0128 13.3101 17.4089L10.6914 25.6506C10.5898 25.972 10.2939 26.1763 9.97493 26.1763Z" fill="#1476D2"/>
<path d="M19.6679 22.9365C18.5753 22.9365 17.5479 22.5116 16.7757 21.7387C15.1811 20.1441 15.1811 17.5495 16.7757 15.9549L17.9021 14.8292C18.196 14.5354 18.6721 14.5354 18.9659 14.8292C19.2601 15.1237 19.2601 15.5988 18.9659 15.8934L17.8402 17.0194C16.8325 18.0267 16.8325 19.6672 17.8402 20.6746C18.3284 21.1621 18.9776 21.4314 19.6679 21.4314C20.3581 21.4314 21.0073 21.1621 21.4955 20.6746L22.6211 19.5485C22.9153 19.254 23.3919 19.254 23.6857 19.5485C23.9794 19.8424 23.9794 20.3185 23.6857 20.6119L22.5592 21.7387C21.7871 22.5116 20.7604 22.9365 19.6679 22.9365Z" fill="#1476D2"/>
<path d="M33.8044 34.8335H0.752503C0.336829 34.8335 0 34.4964 0 34.0806C0 33.6648 0.336829 33.3285 0.752503 33.3285H33.8044C34.2202 33.3285 34.5569 33.6648 34.5569 34.0806C34.5569 34.4964 34.2202 34.8335 33.8044 34.8335Z" fill="#1476D2"/>
</svg>
