<svg width="25" height="37" viewBox="0 0 25 37" fill="none" xmlns="http://www.w3.org/2000/svg">
<path d="M11.04 7.60019L11.009 7.63945C11.0709 7.68822 11.1434 7.7217 11.2206 7.73714C11.2978 7.75258 11.3775 7.74958 11.4533 7.7284C12.3517 7.48569 13.2985 7.48571 14.197 7.72846L14.1965 7.73019H14.21H14.33V7.73034L14.3338 7.73004C14.4333 7.72238 14.5283 7.68575 14.6071 7.62466C14.6847 7.56454 14.7432 7.48335 14.7758 7.39084C15.3869 6.30723 15.5495 5.02736 15.2287 3.82526C14.9075 2.62181 14.1274 1.59221 13.0558 0.957349C12.9757 0.908477 12.8838 0.882617 12.79 0.882617C12.6962 0.882617 12.6042 0.908481 12.5242 0.95736C11.822 1.37444 11.2391 1.96555 10.832 2.6736C10.4248 3.38174 10.2072 4.18292 10.2 4.99975L10.2 5.00168C10.2036 5.12158 10.2419 5.23774 10.31 5.33617V5.39019V5.40367L10.3168 5.41532C10.639 5.96958 10.8092 6.59912 10.81 7.24025L10.81 7.24125C10.8116 7.31824 10.8304 7.39391 10.8648 7.46279C10.8992 7.53167 10.9485 7.59204 11.0092 7.63954L11.04 7.60019ZM11.04 7.60019C10.9852 7.55726 10.9406 7.50269 10.9095 7.44043C10.8784 7.37817 10.8615 7.30978 10.86 7.24019M11.04 7.60019C11.0957 7.64409 11.1609 7.67421 11.2304 7.68812C11.2999 7.70202 11.3717 7.6993 11.44 7.68019C12.3471 7.43512 13.3029 7.43512 14.21 7.68019L10.86 7.24019M10.86 7.24019C10.8592 6.59025 10.6867 5.95206 10.36 5.39019L10.86 7.24019ZM12.7906 6.48019C12.4568 6.47446 12.1232 6.49556 11.7928 6.54327C11.7114 5.95814 11.5207 5.39338 11.2308 4.87841C11.2647 4.319 11.4239 3.77429 11.6967 3.28458C11.9662 2.80081 12.3397 2.38305 12.7901 2.06134C13.2749 2.4047 13.6706 2.8593 13.9439 3.38721C14.2225 3.92548 14.3653 4.52368 14.36 5.12975L14.36 5.13033C14.3614 5.64082 14.256 6.14582 14.0508 6.61291C13.6362 6.5267 13.2141 6.48223 12.7906 6.48019ZM12.7906 6.48019C12.7907 6.48019 12.7908 6.48019 12.7909 6.4802L12.79 6.53019L12.7902 6.48019C12.7903 6.48019 12.7905 6.48019 12.7906 6.48019Z" fill="#1476D2" stroke="#1476D2" stroke-width="0.1"/>
<path d="M16.5444 9.08514L16.5444 9.08512C15.8946 8.42518 15.081 7.94999 14.1869 7.70831L14.1864 7.70815C14.113 7.68736 14.0452 7.65038 13.988 7.59993C13.9308 7.54948 13.8856 7.48684 13.8559 7.41664C13.8261 7.34643 13.8124 7.27043 13.8159 7.19424C13.8194 7.11806 13.8399 7.04362 13.8759 6.97641L13.8764 6.97544L13.8764 6.97545C14.1911 6.41833 14.3576 5.78979 14.36 5.14995V5.05056C14.3579 4.94965 14.3847 4.85025 14.4373 4.76405M16.5444 9.08514L18.48 2.52004L18.4796 2.47004C17.6661 2.47597 16.8676 2.68987 16.1601 3.09139C15.4526 3.49291 14.8595 4.06871 14.4373 4.76405M16.5444 9.08514C16.6404 9.18249 16.7708 9.23811 16.9074 9.24001M16.5444 9.08514L16.9074 9.24001M14.4373 4.76405C14.4373 4.76404 14.4373 4.76403 14.4373 4.76402L14.48 4.79004L14.4372 4.76409C14.4372 4.76408 14.4373 4.76406 14.4373 4.76405ZM16.9074 9.24001C16.9068 9.23995 16.9061 9.23989 16.9054 9.23983L16.91 9.19004L16.9095 9.24004C16.9088 9.24003 16.9081 9.24002 16.9074 9.24001ZM17.9568 6.97481L17.9567 6.97498C17.7112 7.39891 17.3873 7.77212 17.0025 8.07478C16.4362 7.56483 15.7788 7.16646 15.0648 6.90058C15.2686 6.35869 15.3721 5.78412 15.3701 5.20498C15.6795 4.7398 16.0885 4.34917 16.5676 4.0614C17.0409 3.77707 17.5708 3.60025 18.1197 3.54328C18.3687 4.08048 18.4855 4.66963 18.4602 5.2615C18.4344 5.86507 18.2616 6.45321 17.9568 6.97481Z" fill="#1476D2" stroke="#1476D2" stroke-width="0.1"/>
<path d="M16.5438 9.0848L16.5438 9.0848C16.4895 9.02813 16.4484 8.9601 16.4236 8.88563C16.3988 8.81116 16.3908 8.7321 16.4003 8.65417L16.4003 8.65377H16.4003C16.4103 8.57689 16.4373 8.50321 16.4794 8.43813C16.5215 8.37304 16.5777 8.31819 16.6437 8.2776L16.6448 8.27697L16.6448 8.27698C17.1822 7.96426 17.6312 7.52017 17.9499 6.98646V6.9202V6.90868L17.955 6.89832C17.9978 6.81023 18.0689 6.73898 18.1568 6.69584C18.8646 6.30339 19.6606 6.09746 20.4699 6.09746C21.2797 6.09746 22.0761 6.30361 22.7842 6.69648C22.8655 6.74086 22.9333 6.80657 22.9801 6.88656C23.027 6.96666 23.0511 7.05804 23.0499 7.15085L23.0499 7.15102C23.0295 8.38228 22.5348 9.55818 21.6687 10.4336C20.8027 11.3091 19.6322 11.8165 18.4013 11.8502L18.3999 11.8502V11.8502H18.3901H18.3899V11.8002C18.2865 11.8009 18.1858 11.7668 18.1042 11.7033C18.0225 11.6398 17.9646 11.5506 17.9399 11.4502L16.5438 9.0848ZM16.5438 9.0848L16.5442 9.08519C17.1926 9.74682 17.657 10.5663 17.8914 11.4625L16.5438 9.0848ZM18.7645 10.7461C18.5255 10.0419 18.1603 9.38726 17.6867 8.81415C18.1513 8.45149 18.5443 8.00526 18.8455 7.49829C19.347 7.24752 19.8982 7.11206 20.459 7.1019C21.0126 7.09186 21.5614 7.20422 22.0663 7.43077C21.9715 8.27551 21.5931 9.06361 20.9924 9.66607C20.3927 10.2675 19.6074 10.648 18.7645 10.7461Z" fill="#1476D2" stroke="#1476D2" stroke-width="0.1"/>
<path d="M20.4397 15.3901C21.2713 15.3957 22.09 15.1842 22.8148 14.7766C23.5396 14.369 24.1455 13.7794 24.5728 13.066C24.6217 12.9859 24.6475 12.8939 24.6475 12.8001C24.6475 12.7063 24.6217 12.6143 24.5728 12.5343C24.1557 11.8321 23.5646 11.2492 22.8566 10.8421C22.1488 10.4351 21.3481 10.2175 20.5317 10.2101C20.4394 10.2047 20.3476 10.2256 20.2667 10.2701H20.21H20.1965L18.14 14.7301M20.4397 15.3901C19.6249 15.3883 18.8244 15.176 18.1158 14.7739M20.4397 15.3901C20.4397 15.3901 20.4397 15.3901 20.4396 15.3901L20.44 15.3401L20.4399 15.3901C20.4398 15.3901 20.4398 15.3901 20.4397 15.3901ZM18.1158 14.7739C18.1156 14.7738 18.1155 14.7737 18.1153 14.7736L18.14 14.7301M18.1158 14.7739C18.116 14.774 18.1162 14.7741 18.1163 14.7742L18.14 14.7301M18.1158 14.7739C18.0155 14.7199 17.9366 14.6333 17.8922 14.5284C17.8478 14.4233 17.8406 14.3062 17.8719 14.1965M18.14 14.7301C18.0495 14.6815 17.9783 14.6035 17.9383 14.5089C17.8983 14.4143 17.8918 14.3089 17.92 14.2101M17.8719 14.1965C17.8718 14.1965 17.8718 14.1966 17.8718 14.1966L17.92 14.2101M17.8719 14.1965C17.8719 14.1965 17.8719 14.1964 17.8719 14.1964L17.92 14.2101M17.8719 14.1965L17.92 14.2101M18.07 12.79C18.07 12.7901 18.07 12.7902 18.07 12.7903L18.12 12.7901L18.07 12.7897C18.07 12.7898 18.07 12.7899 18.07 12.79ZM17.8924 11.4558C17.8928 11.4567 17.8932 11.4577 17.8936 11.4587L17.94 11.4401L17.8917 11.453C17.8919 11.4539 17.8922 11.4548 17.8924 11.4558ZM17.9601 10.9699C17.9601 10.97 17.96 10.97 17.96 10.9701L18 11.0001L17.9602 10.9698C17.9602 10.9698 17.9601 10.9699 17.9601 10.9699ZM18.3599 10.7701C18.3599 10.7701 18.3599 10.7701 18.3599 10.7701L18.36 10.8201V10.7701C18.36 10.7701 18.36 10.7701 18.3599 10.7701ZM18.91 14.0801L18.9589 14.0906C18.9617 14.0774 18.9645 14.0641 18.9672 14.0509C18.955 14.0455 18.9428 14.0401 18.9306 14.0346L18.91 14.0801ZM19.0084 11.7928C19.5961 11.7112 20.1636 11.5207 20.6817 11.2309C21.2411 11.2648 21.7859 11.424 22.2756 11.6968C22.7593 11.9663 23.1771 12.3398 23.4988 12.7901L19.0084 11.7928Z" fill="#1476D2" stroke="#1476D2" stroke-width="0.1"/>
<path d="M18.1399 18.8204C17.4439 18.4162 16.8623 17.8415 16.4499 17.1504C16.3964 17.0604 16.3752 16.9549 16.3897 16.8513C16.4043 16.7477 16.4537 16.6521 16.5299 16.5804M18.1399 18.8204L18.1147 18.8635M18.1399 18.8204L18.1148 18.8636C18.1147 18.8636 18.1147 18.8636 18.1147 18.8635M18.1399 18.8204C18.859 19.2403 19.6771 19.4612 20.5099 19.4604L20.4399 14.4104M18.1147 18.8635C17.4114 18.4551 16.8237 17.8744 16.4069 17.176L16.4069 17.1759C16.3476 17.0762 16.3241 16.9593 16.3402 16.8444C16.3563 16.7297 16.4109 16.6239 16.4951 16.5444M18.1147 18.8635C18.8414 19.2879 19.668 19.5112 20.5096 19.5104C21.3227 19.5208 22.1253 19.3262 22.8434 18.9445L22.8434 18.9446L22.8454 18.9434C22.9258 18.8957 22.9924 18.828 23.0387 18.7469C23.0851 18.6657 23.1096 18.574 23.1099 18.4805L23.1099 18.4799C23.1019 17.6656 22.8861 16.8669 22.4829 16.1595C22.0798 15.4523 21.5028 14.8598 20.8065 14.4381C20.7242 14.3844 20.6273 14.3572 20.5291 14.3604H20.44M16.4951 16.5444C16.495 16.5446 16.4948 16.5447 16.4946 16.5449L16.5299 16.5804M16.4951 16.5444C16.4953 16.5443 16.4954 16.5441 16.4956 16.544L16.5299 16.5804M16.4951 16.5444C17.1515 15.8921 17.626 15.0796 17.8716 14.1874M16.5299 16.5804C17.1928 15.9218 17.6719 15.1013 17.9199 14.2004M17.9199 14.2004L17.8715 14.1878C17.8715 14.1877 17.8716 14.1876 17.8716 14.1874M17.9199 14.2004C17.9378 14.1313 17.9715 14.0674 18.0184 14.0136C18.0653 13.9599 18.124 13.9178 18.19 13.8906C18.2559 13.8634 18.3273 13.852 18.3984 13.8572C18.4696 13.8623 18.5385 13.884 18.5999 13.9204M17.9199 14.2004L17.8717 14.1871C17.8716 14.1872 17.8716 14.1873 17.8716 14.1874M17.8716 14.1874C17.8915 14.111 17.9288 14.0403 17.9807 13.9808C18.0327 13.9212 18.0978 13.8745 18.1709 13.8444C18.2441 13.8143 18.3232 13.8016 18.4021 13.8073C18.4808 13.813 18.5571 13.8369 18.6249 13.8771M18.5999 13.9204L18.6245 13.8769C18.6247 13.8769 18.6248 13.877 18.6249 13.8771M18.5999 13.9204C19.1614 14.238 19.7948 14.4067 20.4399 14.4104M18.5999 13.9204L18.6254 13.8774C18.6253 13.8773 18.6251 13.8772 18.6249 13.8771M18.6249 13.8771C19.1788 14.1904 19.8037 14.3567 20.44 14.3604M20.4399 14.4104V14.3604H20.44M20.4399 14.4104L20.4402 14.3604C20.4401 14.3604 20.4401 14.3604 20.44 14.3604M18.6351 17.9572L18.6351 17.9572L18.6337 17.9564C18.1958 17.7192 17.8116 17.3944 17.5048 17.0025C18.0079 16.4314 18.4054 15.7753 18.6788 15.0651C19.23 15.2738 19.8155 15.3774 20.4051 15.3706C20.8702 15.68 21.2608 16.089 21.5485 16.568C21.8329 17.0413 22.0097 17.5712 22.0666 18.1201C21.5294 18.3691 20.9403 18.4859 20.3484 18.4606C19.7449 18.4348 19.1567 18.262 18.6351 17.9572Z" fill="#1476D2" stroke="#1476D2" stroke-width="0.1"/>
<path d="M18.4512 23.1103L18.4493 23.1103C17.2043 23.0946 16.0145 22.5938 15.1331 21.7143C14.2518 20.8349 13.7484 19.6463 13.73 18.4014C13.73 18.4013 13.73 18.4012 13.73 18.401L13.78 18.4003C13.7769 18.2952 13.81 18.1922 13.8737 18.1085C13.9374 18.0248 14.0278 17.9654 14.13 17.9403L18.4512 23.1103ZM18.4512 23.1103C18.5532 23.1078 18.6521 23.0747 18.7351 23.0155C18.817 22.9569 18.8798 22.8754 18.9155 22.7813L18.4512 23.1103ZM16.495 16.5446C15.8334 17.193 15.0139 17.6574 14.1177 17.8918L18.87 22.7603C19.2587 22.0597 19.4627 21.2716 19.4627 20.4703C19.4627 19.669 19.2587 18.881 18.87 18.1803L18.9139 18.1564C18.9139 18.1563 18.9138 18.1563 18.9138 18.1562C18.8678 18.0718 18.7984 18.0024 18.7139 17.9564L18.7027 17.9503H18.69H18.6233C18.0787 17.6356 17.624 17.186 17.303 16.6448L17.303 16.6448L17.3021 16.6433C17.2605 16.5785 17.2056 16.5234 17.1409 16.4816C17.0763 16.4397 17.0035 16.4122 16.9274 16.4009L16.9274 16.4009L16.9265 16.4007C16.8484 16.3905 16.7689 16.3981 16.6942 16.423C16.6195 16.4479 16.5513 16.4895 16.495 16.5446L16.495 16.5446ZM15.8731 21.0107C15.2627 20.4093 14.8784 19.6163 14.784 18.7654C15.5047 18.5299 16.1753 18.1625 16.7617 17.682C17.1229 18.1511 17.5711 18.5463 18.0819 18.846C18.331 19.3481 18.4648 19.8997 18.4733 20.4604C18.4816 21.0142 18.3675 21.5629 18.1392 22.0673C17.2852 21.9864 16.4846 21.6134 15.8731 21.0107Z" fill="#1476D2" stroke="#1476D2" stroke-width="0.1"/>
<path d="M15.3299 20.5311C15.3317 20.4387 15.3078 20.3478 15.2612 20.2683C15.2626 20.247 15.2621 20.2257 15.2596 20.2044L15.2584 20.1944L15.2534 20.1857C14.9387 19.6285 14.7723 19 14.7699 18.3601L14.7699 18.36C14.7695 18.2811 14.7501 18.2034 14.7133 18.1336C14.6767 18.0644 14.6241 18.005 14.5599 17.9603C14.5003 17.9121 14.4299 17.8789 14.3548 17.8634C14.2791 17.8479 14.2008 17.8509 14.1265 17.8721C13.2282 18.1147 12.2816 18.1147 11.3833 17.8721C11.2723 17.8403 11.1539 17.847 11.0472 17.8913C10.9405 17.9356 10.852 18.0148 10.7962 18.116C10.4016 18.8273 10.1931 19.6267 10.1899 20.4401L10.1899 20.4401C10.1869 21.2697 10.4007 22.0857 10.8102 22.8071C11.2195 23.5283 11.81 24.13 12.5233 24.5527C12.6026 24.6049 12.6959 24.632 12.7908 24.6303L12.7915 24.6302C12.8653 24.6279 12.9377 24.6088 13.0031 24.5746L13.0031 24.5746L13.0056 24.5732C13.7059 24.1539 14.2872 23.5623 14.6941 22.8547C15.1009 22.1471 15.3198 21.3472 15.3299 20.5311ZM15.3299 20.5311C15.3299 20.531 15.3299 20.5309 15.3299 20.5309L15.2799 20.5303L15.3299 20.5312C15.3299 20.5312 15.3299 20.5311 15.3299 20.5311ZM11.5287 18.9683C12.2695 19.1377 13.0353 19.1679 13.787 19.0573C13.8661 19.6305 14.0571 20.1826 14.3491 20.6824C14.3137 21.2414 14.1539 21.7854 13.8813 22.2748C13.6119 22.7583 13.2391 23.1763 12.7898 23.499C12.3076 23.1554 11.9136 22.7022 11.6406 22.1764C11.3622 21.6402 11.2179 21.0446 11.2199 20.4404L11.2199 20.4402C11.2196 19.9333 11.3248 19.432 11.5287 18.9683Z" fill="#1476D2" stroke="#1476D2" stroke-width="0.1"/>
<path d="M7.13058 23.1101L7.13058 23.1092C7.92397 23.0914 8.70082 22.8764 9.39083 22.4831C10.0983 22.0799 10.691 21.5026 11.1127 20.806L11.1127 20.806L11.1132 20.8052C11.1615 20.7218 11.1879 20.6275 11.1899 20.5312H11.1899V20.5301V20.5301V20.53V20.5299V20.5299V20.5298V20.5298V20.5297V20.5296V20.5295V20.5295V20.5294V20.5293V20.5292V20.5292V20.5291V20.529V20.5289V20.5288V20.5287V20.5286V20.5286V20.5285V20.5284V20.5283V20.5282V20.5281V20.528V20.5279V20.5278V20.5277V20.5276V20.5275V20.5274V20.5273V20.5271V20.527V20.5269V20.5268V20.5267V20.5266V20.5265V20.5263V20.5262V20.5261V20.526V20.5259V20.5257V20.5256V20.5255V20.5253V20.5252V20.5251V20.5249V20.5248V20.5247V20.5245V20.5244V20.5243V20.5241V20.524V20.5238V20.5237V20.5235V20.5234V20.5232V20.5231V20.5229V20.5228V20.5226V20.5225V20.5223V20.5222V20.522V20.5219V20.5217V20.5215V20.5214V20.5212V20.5211V20.5209V20.5207V20.5206V20.5204V20.5202V20.5201V20.5199V20.5197V20.5195V20.5194V20.5192V20.519V20.5188V20.5187V20.5185V20.5183V20.5181V20.5179V20.5177V20.5176V20.5174V20.5172V20.517V20.5168V20.5166V20.5164V20.5163V20.5161V20.5159V20.5157V20.5155V20.5153V20.5151V20.5149V20.5147V20.5145V20.5143V20.5141V20.5139V20.5137V20.5135V20.5133V20.5131V20.5129V20.5127V20.5125V20.5123V20.5121V20.5119V20.5116V20.5114V20.5112V20.511V20.5108V20.5106V20.5104V20.5102V20.5099V20.5097V20.5095V20.5093V20.5091V20.5089V20.5086V20.5084V20.5082V20.508V20.5078V20.5075V20.5073V20.5071V20.5069V20.5066V20.5064V20.5062V20.506V20.5057V20.5055V20.5053V20.5051V20.5048V20.5046V20.5044V20.5041V20.5039V20.5037V20.5034V20.5032V20.503V20.5027V20.5025V20.5023V20.502V20.5018V20.5016V20.5013V20.5011V20.5009V20.5006V20.5004V20.5001V20.4999V20.4997V20.4994V20.4992V20.499V20.4987V20.4985V20.4982V20.498V20.4977V20.4975V20.4973V20.497V20.4968V20.4965V20.4963V20.496V20.4958V20.4956V20.4953V20.4951V20.4948V20.4946V20.4943V20.4941V20.4938V20.4936V20.4933V20.4931V20.4928V20.4926V20.4924V20.4921V20.4919V20.4916V20.4914V20.4911V20.4909V20.4906V20.4904V20.4901V20.4899V20.4896V20.4894V20.4891V20.4889V20.4886V20.4884V20.4881V20.4879V20.4876V20.4874V20.4871V20.4869V20.4866V20.4864V20.4861V20.4859V20.4856V20.4854V20.4851V20.4849V20.4846V20.4844V20.4841V20.4839V20.4836V20.4834V20.4831V20.4829V20.4826V20.4824V20.4821V20.4819V20.4816V20.4814V20.4811V20.4809V20.4806V20.4804V20.4801V20.4799V20.4796V20.4794V20.4791V20.4789V20.4787V20.4784V20.4782V20.4779V20.4777V20.4774V20.4772V20.4769V20.4767V20.4764V20.4762V20.4759V20.4757V20.4755V20.4752V20.475V20.4747V20.4745V20.4742V20.474V20.4738V20.4735V20.4733V20.473V20.4728V20.4725V20.4723V20.4721V20.4718V20.4716V20.4713V20.4711V20.4709V20.4706V20.4704V20.4702V20.4699V20.4697V20.4694V20.4692V20.469V20.4687V20.4685V20.4683V20.468V20.4678V20.4676V20.4673V20.4671V20.4669V20.4667V20.4664V20.4662V20.466V20.4657V20.4655V20.4653V20.4651V20.4648V20.4646V20.4644V20.4642V20.4639V20.4637V20.4635V20.4633V20.4631V20.4628V20.4626V20.4624V20.4622V20.462V20.4617V20.4615V20.4613V20.4611V20.4609V20.4607V20.4605V20.4602V20.46V20.4598V20.4596V20.4594V20.4592V20.459V20.4588V20.4586V20.4584V20.4582V20.458V20.4578V20.4576V20.4574V20.4572V20.457V20.4568V20.4566V20.4564V20.4562V20.456V20.4558V20.4556V20.4554V20.4552V20.455V20.4548V20.4546V20.4544V20.4543V20.4541V20.4539V20.4537V20.4535V20.4533V20.4531V20.453V20.4528V20.4526V20.4524V20.4523V20.4521V20.4519V20.4517V20.4516V20.4514V20.4512V20.451V20.4509V20.4507V20.4505V20.4504V20.4502V20.45V20.4499V20.4497V20.4496V20.4494V20.4492V20.4491V20.4489V20.4488V20.4486V20.4485V20.4483V20.4482V20.448V20.4479V20.4477V20.4476V20.4474V20.4473V20.4472V20.447V20.4469V20.4467V20.4466V20.4465V20.4463V20.4462V20.4461V20.4459V20.4458V20.4457V20.4455V20.4454V20.4453V20.4452V20.4451V20.4449V20.4448V20.4447V20.4446V20.4445V20.4443V20.4442V20.4441V20.444V20.4439V20.4438V20.4437V20.4436V20.4435V20.4434V20.4433V20.4432V20.4431V20.443V20.4429V20.4428V20.4427V20.4426V20.4425V20.4425V20.4424V20.4423V20.4422V20.4421V20.442V20.442V20.4419V20.4418V20.4417V20.4417V20.4416V20.4415V20.4415V20.4414V20.4413V20.4413V20.4412V20.4411V20.4411V20.441V20.441V20.4409V20.4409V20.4408V20.4408V20.4407V20.4407V20.4406V20.4406V20.4406V20.4405V20.4405V20.4405V20.4404V20.4404V20.4404V20.4403V20.4403V20.4403V20.4403V20.4402C11.1936 19.8039 11.3599 19.1791 11.6732 18.6252C11.7134 18.5573 11.7373 18.481 11.743 18.4023C11.7487 18.3234 11.736 18.2443 11.7059 18.1712C11.6758 18.0981 11.6291 18.0329 11.5695 17.981C11.51 17.9291 11.4392 17.8917 11.3628 17.8718C10.468 17.6261 9.6524 17.1519 8.99623 16.4957C8.91943 16.4105 8.81515 16.3549 8.70156 16.3387C8.58768 16.3224 8.47172 16.3468 8.37397 16.4074C7.67293 16.8238 7.08898 17.4113 6.67679 18.1149L6.67679 18.1149L6.67654 18.1153C6.26437 18.8353 6.04753 19.6505 6.04753 20.4801C6.04753 21.3096 6.26427 22.1246 6.67627 22.8445C6.72065 22.9258 6.78634 22.9935 6.86629 23.0403C6.92885 23.0769 6.99829 23.0997 7.06992 23.1073L7.06993 23.1101H7.11762C7.12194 23.1102 7.12626 23.1102 7.13058 23.1101ZM7.60313 18.6353L7.60314 18.6353L7.60342 18.6348C7.85493 18.1916 8.19687 17.8064 8.60687 17.5042C9.17585 18.0052 9.82818 18.4026 10.5343 18.6784C10.3121 19.227 10.1952 19.8128 10.19 20.4049C9.87953 20.8714 9.46889 21.2629 8.98794 21.5508C8.51285 21.8352 7.98109 22.0113 7.43048 22.067C7.18543 21.5284 7.07159 20.9392 7.09855 20.3477C7.12605 19.7446 7.29917 19.157 7.60313 18.6353Z" fill="#1476D2" stroke="#1476D2" stroke-width="0.1"/>
<path d="M2.73563 18.9036L2.73555 18.9036C2.65332 18.8575 2.58518 18.7899 2.53841 18.708C2.49167 18.6262 2.46803 18.5333 2.47001 18.4391M2.73563 18.9036L7.64001 14.13C7.6149 14.0278 7.55555 13.9374 7.47184 13.8737C7.38814 13.81 7.28514 13.7769 7.18001 13.78L7.17927 13.73C7.17915 13.73 7.17904 13.73 7.17892 13.73C5.93577 13.7483 4.74867 14.2503 3.86952 15.1295C2.99034 16.0087 2.48832 17.1959 2.47001 18.4391M2.73563 18.9036C3.44615 19.3003 4.24617 19.509 5.05991 19.51M2.73563 18.9036L7.6885 14.1178C7.91897 15.0155 8.38385 15.8358 9.03556 16.4948L9.03575 16.495C9.09085 16.5513 9.13242 16.6195 9.15734 16.6942C9.18226 16.7689 9.18986 16.8484 9.17958 16.9265L9.17946 16.9274C9.16808 17.0035 9.14057 17.0763 9.09875 17.1409C9.05694 17.2056 9.00179 17.2605 8.93701 17.3021L8.93488 17.3034L8.93485 17.3034C8.38431 17.6186 7.92721 18.0741 7.61001 18.6233V18.6234V18.6235V18.6237V18.6239V18.624V18.6242V18.6244V18.6246V18.6247V18.6249V18.6251V18.6253V18.6254V18.6256V18.6258V18.626V18.6262V18.6263V18.6265V18.6267V18.6269V18.6271V18.6273V18.6274V18.6276V18.6278V18.628V18.6282V18.6284V18.6286V18.6287V18.6289V18.6291V18.6293V18.6295V18.6297V18.6299V18.6301V18.6303V18.6305V18.6307V18.6309V18.6311V18.6313V18.6315V18.6317V18.6319V18.6321V18.6323V18.6325V18.6327V18.6329V18.6331V18.6333V18.6335V18.6337V18.6339V18.6341V18.6343V18.6345V18.6347V18.6349V18.6351V18.6353V18.6355V18.6357V18.6359V18.6361V18.6363V18.6365V18.6368V18.637V18.6372V18.6374V18.6376V18.6378V18.638V18.6382V18.6384V18.6386V18.6389V18.6391V18.6393V18.6395V18.6397V18.6399V18.6401V18.6404V18.6406V18.6408V18.641V18.6412V18.6414V18.6416V18.6419V18.6421V18.6423V18.6425V18.6427V18.6429V18.6432V18.6434V18.6436V18.6438V18.644V18.6443V18.6445V18.6447V18.6449V18.6451V18.6453V18.6456V18.6458V18.646V18.6462V18.6464V18.6467V18.6469V18.6471V18.6473V18.6475V18.6478V18.648V18.6482V18.6484V18.6487V18.6489V18.6491V18.6493V18.6495V18.6498V18.65V18.6502V18.6504V18.6506V18.6509V18.6511V18.6513V18.6515V18.6517V18.652V18.6522V18.6524V18.6526V18.6528V18.6531V18.6533V18.6535V18.6537V18.6539V18.6542V18.6544V18.6546V18.6548V18.655V18.6553V18.6555V18.6557V18.6559V18.6561V18.6564V18.6566V18.6568V18.657V18.6572V18.6575V18.6577V18.6579V18.6581V18.6583V18.6585V18.6588V18.659V18.6592V18.6594V18.6596V18.6598V18.6601V18.6603V18.6605V18.6607V18.6609V18.6611V18.6613V18.6616V18.6618V18.662V18.6622V18.6624V18.6626V18.6628V18.663V18.6633V18.6635V18.6637V18.6639V18.6641V18.6643V18.6645V18.6647V18.6649V18.6651V18.6653V18.6656V18.6658V18.666V18.6662V18.6664V18.6666V18.6668V18.667V18.6672V18.6674V18.6676V18.6678V18.668V18.6682V18.6684V18.6686V18.6688V18.669V18.6692V18.6694V18.6696V18.6698V18.67V18.6702V18.6704V18.6706V18.6708V18.671V18.6712V18.6714V18.6716V18.6717V18.6719V18.6721V18.6723V18.6725V18.6727V18.6729V18.6731V18.6733V18.6734V18.6736V18.6738V18.674V18.6742V18.6744V18.6746V18.6747V18.6749V18.6751V18.6753V18.6755V18.6756V18.6758V18.676V18.6762V18.6763V18.6765V18.6767V18.6769V18.677V18.6772V18.6774V18.6775V18.6777V18.6779V18.6781V18.6782V18.6784V18.6786V18.6787V18.6789V18.679V18.6792V18.6794V18.6795V18.6797V18.6798V18.68V18.6802V18.6803V18.6805V18.6806V18.6808V18.6809V18.6811V18.6812V18.6814V18.6815V18.6817V18.6818V18.682V18.6821V18.6823V18.6824V18.6826V18.6827V18.6828V18.683V18.6831V18.6833V18.6834V18.6835V18.6837V18.6838V18.6839V18.6841V18.6842V18.6843V18.6845V18.6846V18.6847V18.6848V18.685V18.6851V18.6852V18.6853V18.6855V18.6856V18.6857V18.6858V18.6859V18.686V18.6862V18.6863V18.6864V18.6865V18.6866V18.6867V18.6868V18.6869V18.687V18.6871V18.6872V18.6873V18.6874V18.6875V18.6876V18.6877V18.6878V18.6879V18.688V18.6881V18.6882V18.6883V18.6884V18.6885V18.6885V18.6886V18.6887V18.6888V18.6889V18.6889V18.689V18.6891V18.6892V18.6893V18.6893V18.6894V18.6895V18.6895V18.6896V18.6897V18.6897V18.6898V18.6899V18.6899V18.69V18.7038L7.60294 18.7156C7.55453 18.7967 7.48673 18.8645 7.40563 18.9129L7.40409 18.9138L7.40407 18.9138C6.68589 19.3081 5.87921 19.5133 5.05991 19.51M2.47001 18.4391C2.47001 18.439 2.47002 18.439 2.47002 18.4389L2.52001 18.44L2.47001 18.4392C2.47001 18.4392 2.47001 18.4391 2.47001 18.4391ZM5.05991 19.51C5.05987 19.51 5.05984 19.51 5.0598 19.51L5.06001 19.46L5.05995 19.51C5.05993 19.51 5.05992 19.51 5.05991 19.51ZM5.40435 15.2936L5.40445 15.2936C5.84949 15.0441 6.33914 14.8847 6.84548 14.8242C7.08516 15.5305 7.4519 16.187 7.92759 16.7613C7.448 17.1197 7.04273 17.5683 6.73453 18.0819C6.23317 18.3339 5.68123 18.4692 5.12003 18.4777C4.56588 18.4861 4.01702 18.3705 3.5135 18.1397C3.57845 17.5551 3.78074 16.994 4.10408 16.5022C4.43392 16.0006 4.87998 15.586 5.40435 15.2936Z" fill="#1476D2" stroke="#1476D2" stroke-width="0.1"/>
<path d="M4.99933 15.3802L4.99933 15.3803L5.00251 15.3801C5.11225 15.3745 5.2167 15.3321 5.29925 15.2602H5.34994H5.36309L5.37453 15.2537C5.93168 14.939 6.56025 14.7726 7.20013 14.7702L7.20076 14.7702C7.27933 14.7689 7.3565 14.7491 7.42599 14.7125C7.49499 14.676 7.55451 14.624 7.59978 14.5605C7.64808 14.5007 7.68134 14.4303 7.69678 14.3551C7.7123 14.2794 7.70933 14.2011 7.68814 14.1269C7.57197 13.6908 7.51208 13.2416 7.50995 12.7903C7.5133 12.3147 7.57993 11.8417 7.7081 11.3837L7.70811 11.3837L7.70842 11.3824C7.73637 11.2717 7.72782 11.155 7.68405 11.0495C7.64028 10.9441 7.56363 10.8556 7.46551 10.7972L7.46552 10.7972L7.46417 10.7965C6.74988 10.4007 5.94708 10.1922 5.1305 10.1902C4.2902 10.1734 3.4606 10.3808 2.72706 10.7911C1.99353 11.2014 1.38258 11.7997 0.957053 12.5245C0.908214 12.6045 0.882373 12.6965 0.882373 12.7902C0.882373 12.884 0.908253 12.976 0.957164 13.0561C1.37643 13.7563 1.96801 14.3375 2.67555 14.7444C3.38315 15.1512 4.18315 15.3701 4.99933 15.3802ZM6.47994 12.83L6.47995 12.8306C6.48265 13.151 6.51006 13.4706 6.56192 13.7867C5.97498 13.86 5.4088 14.0514 4.89763 14.3495C4.33489 14.3184 3.78638 14.1606 3.29312 13.8877C2.80587 13.6181 2.3851 13.2432 2.06139 12.7905C2.4089 12.3131 2.86518 11.9251 3.39262 11.6588C3.93062 11.3872 4.52655 11.2504 5.12914 11.2602L5.13008 11.2602C5.64058 11.2588 6.14557 11.3642 6.61267 11.5694C6.52644 11.9841 6.48197 12.4064 6.47994 12.83Z" fill="#1476D2" stroke="#1476D2" stroke-width="0.1"/>
<path d="M7.20779 11.7702C7.27371 11.7734 7.33972 11.7661 7.40332 11.7485L7.40348 11.749L7.41043 11.7459C7.48181 11.7139 7.54539 11.6668 7.59676 11.6078C7.64814 11.5488 7.68609 11.4794 7.70798 11.4043L7.70799 11.4043L7.70825 11.4033C7.94999 10.5069 8.42468 9.69041 9.08409 9.03686C9.17202 8.95948 9.22934 8.85314 9.24562 8.73712C9.26193 8.62097 9.23602 8.50284 9.17265 8.40418C8.54231 7.31726 7.50855 6.52292 6.29592 6.19375C5.08326 5.86457 3.78971 6.02718 2.69628 6.64623C2.61316 6.6888 2.54392 6.75423 2.49674 6.83484C2.4495 6.91553 2.42635 7.00804 2.42999 7.10145C2.43605 7.91467 2.64994 8.71285 3.05133 9.42014C3.45286 10.1277 4.02867 10.7208 4.72403 11.143L4.72401 11.143L4.72551 11.1439C4.80903 11.1907 4.90254 11.2169 4.99824 11.2202L4.99824 11.2203H4.99998L5.14979 11.2203C5.14984 11.2203 5.14988 11.2203 5.14992 11.2203C5.78975 11.2226 6.41828 11.3891 6.97539 11.7038L6.99998 11.6603M7.20779 11.7702C7.12605 11.767 7.04629 11.7442 6.97522 11.7037L6.99998 11.6603M7.20779 11.7702C7.2077 11.7702 7.20762 11.7702 7.20754 11.7702L7.20998 11.7203M7.20779 11.7702C7.20787 11.7702 7.20796 11.7702 7.20805 11.7702L7.20998 11.7203M6.99998 11.6603C6.43538 11.3414 5.79841 11.1727 5.14998 11.1703L7.20998 11.7203M6.99998 11.6603C7.06415 11.6968 7.13618 11.7174 7.20998 11.7203M5.21034 10.1903H5.20998H5.17504C4.70859 9.87978 4.31717 9.46917 4.02931 8.98828C3.74488 8.51311 3.5687 7.98124 3.51312 7.43053C4.29943 7.06503 5.1881 6.98163 6.02927 7.19503C6.86864 7.40798 7.60869 7.90327 8.12552 8.59707C7.61704 9.16429 7.21877 9.8213 6.95106 10.5344C6.39774 10.3114 5.8072 10.1946 5.21034 10.1903Z" fill="#1476D2" stroke="#1476D2" stroke-width="0.1"/>
<path d="M7.15103 2.51023C7.05787 2.5078 6.96588 2.53147 6.88544 2.57855C6.8051 2.62558 6.73948 2.69411 6.69598 2.77642C6.30327 3.48437 6.09722 4.28063 6.09722 5.09022C6.09722 5.89954 6.30314 6.69555 6.6956 7.40334C6.73874 7.49127 6.80999 7.5623 6.89807 7.60517L6.90843 7.61022H6.91995H6.98622C7.52446 7.93145 7.9693 8.38807 8.27636 8.9347L8.27633 8.93472L8.27736 8.9364C8.31795 9.00244 8.37279 9.05858 8.43788 9.10069C8.50297 9.14281 8.57665 9.16984 8.65353 9.1798L8.65347 9.18022L8.71995 9.13022L8.71893 9.18021C8.7191 9.18021 8.71928 9.18021 8.71945 9.18022C8.78676 9.18153 8.85367 9.1695 8.91631 9.14482C8.97912 9.12008 9.03639 9.08312 9.0848 9.03608L9.08511 9.03577C9.74416 8.384 10.5646 7.91909 11.4624 7.68865L11.4627 7.68856C11.5747 7.65899 11.6737 7.59286 11.7438 7.50066C11.814 7.40846 11.8513 7.29547 11.85 7.17962L11.8499 7.17906C11.8214 5.94456 11.3162 4.769 10.4402 3.89867C9.56431 3.0284 8.38561 2.53084 7.15103 2.51023ZM7.15103 2.51023C7.15111 2.51023 7.1512 2.51023 7.15128 2.51023L7.14995 2.56022L7.15079 2.51022C7.15087 2.51022 7.15095 2.51023 7.15103 2.51023ZM10.7561 6.84555C10.0496 7.08525 9.39291 7.45211 8.81841 7.92799C8.45767 7.45061 8.00972 7.04575 7.49817 6.73491C7.24733 6.23335 7.11182 5.68198 7.10165 5.12117C7.09162 4.56753 7.20399 4.01866 7.43056 3.51372C8.28163 3.60766 9.07558 3.98935 9.68065 4.5962C10.2848 5.20212 10.6639 5.99567 10.7561 6.84555Z" fill="#1476D2" stroke="#1476D2" stroke-width="0.1"/>
<path d="M10.4751 16.2435C11.1607 16.6999 11.9664 16.9424 12.79 16.9404C13.8898 16.9377 14.9438 16.4997 15.7215 15.722C16.4992 14.9443 16.9372 13.8903 16.9399 12.7905C16.9419 11.9669 16.6994 11.1612 16.243 10.4755C15.7867 9.78989 15.1371 9.25512 14.3766 8.93901C13.616 8.6229 12.7787 8.53966 11.9708 8.69985C11.1629 8.86004 10.4208 9.25645 9.83836 9.83885C9.25596 10.4212 8.85956 11.1634 8.69936 11.9713C8.53917 12.7792 8.62241 13.6165 8.93852 14.377C9.25464 15.1376 9.7894 15.7872 10.4751 16.2435ZM11.0596 10.2022C11.5704 9.85475 12.1726 9.66624 12.7903 9.6604C13.2035 9.65782 13.6131 9.73679 13.9956 9.89281C14.3782 10.0488 14.7263 10.2788 15.0198 10.5696C15.3133 10.8604 15.5466 11.2063 15.7062 11.5874C15.8658 11.9685 15.9486 12.3773 15.9499 12.7904C15.9499 13.4082 15.767 14.0122 15.4244 14.5262C15.0818 15.0403 14.5946 15.4415 14.0244 15.6792C13.4542 15.917 12.8264 15.9806 12.2201 15.8622C11.6137 15.7438 11.056 15.4487 10.6171 15.0139C10.1782 14.5791 9.87778 14.0241 9.7537 13.4189C9.62961 12.8137 9.6874 12.1853 9.91978 11.6129C10.1522 11.0405 10.5487 10.5496 11.0596 10.2022Z" fill="#1476D2" stroke="#1476D2" stroke-width="0.1"/>
<path d="M12.7906 14.61L12.7906 14.6101C12.5498 14.6128 12.3109 14.5678 12.0878 14.4775C11.8646 14.3873 11.6615 14.2537 11.4903 14.0844C11.3191 13.9151 11.1832 13.7136 11.0905 13.4914C10.9978 13.2694 10.95 13.0312 10.95 12.7907M12.7906 14.61L11.46 12.2701C11.3921 12.2701 11.3248 12.2837 11.2622 12.31C11.1996 12.3363 11.1429 12.3749 11.0954 12.4234C11.0479 12.4719 11.0106 12.5295 10.9856 12.5926C10.9607 12.6556 10.9486 12.723 10.95 12.7907M12.7906 14.61C13.2658 14.6046 13.7205 14.4135 14.0569 14.0771C14.3982 13.7357 14.59 13.2728 14.59 12.7901C14.59 12.3074 14.3982 11.8445 14.0569 11.5032C13.7157 11.162 13.253 10.9703 12.7705 10.9701C12.7703 10.9701 12.7702 10.9701 12.77 10.9701V11.0201L12.7906 14.61ZM10.95 12.7907C10.95 12.7909 10.95 12.791 10.95 12.7912L11 12.7901L10.95 12.7901C10.95 12.7903 10.95 12.7905 10.95 12.7907ZM12.25 11.4801C12.25 11.5484 12.2634 11.616 12.2896 11.6791C12.3157 11.7422 12.354 11.7995 12.4023 11.8478C12.4506 11.8961 12.5079 11.9344 12.571 11.9605C12.6341 11.9867 12.7017 12.0001 12.77 12.0001C12.9262 12.0001 13.079 12.0465 13.2089 12.1333C13.3388 12.2201 13.4401 12.3435 13.4999 12.4878C13.5596 12.6322 13.5753 12.791 13.5448 12.9442C13.5143 13.0975 13.4391 13.2383 13.3286 13.3487C13.2181 13.4592 13.0774 13.5345 12.9241 13.5649C12.7709 13.5954 12.612 13.5798 12.4677 13.52C12.3233 13.4602 12.1999 13.3589 12.1131 13.229C12.0263 13.0991 11.98 12.9464 11.98 12.7901C11.98 12.7218 11.9665 12.6542 11.9404 12.5911C11.9143 12.528 11.876 12.4707 11.8277 12.4224C11.7794 12.3741 11.7221 12.3358 11.659 12.3097C11.5959 12.2836 11.5283 12.2701 11.46 12.2701L12.25 11.4801Z" fill="#1476D2" stroke="#1476D2" stroke-width="0.1"/>
<path d="M12.2699 24.1093L12.27 24.1093C12.2729 23.9733 12.3289 23.8439 12.4261 23.7488C12.5233 23.6536 12.6539 23.6004 12.7899 23.6004L12.2699 24.1093ZM12.2699 24.1093V24.1104M12.2699 24.1093V24.1104M12.2699 24.1104V36.0204C12.2699 36.1583 12.3247 36.2906 12.4223 36.3881C12.5197 36.4856 12.652 36.5404 12.7898 36.5404M12.2699 24.1104L12.7898 36.5404M12.7898 36.5404C12.8597 36.5405 12.9289 36.5263 12.993 36.4986C13.0572 36.471 13.1149 36.4304 13.1628 36.3795C13.2106 36.3285 13.2474 36.2683 13.271 36.2025C13.2944 36.1373 13.3042 36.068 13.2999 35.9988V24.1104C13.2999 24.0434 13.2868 23.9771 13.2611 23.9152C13.2355 23.8533 13.1979 23.7971 13.1506 23.7498C13.1032 23.7024 13.047 23.6648 12.9851 23.6392C12.9232 23.6136 12.8569 23.6004 12.79 23.6004L12.7898 36.5404Z" fill="#1476D2" stroke="#1476D2" stroke-width="0.1"/>
<path d="M1.4527 36.5396L1.45262 36.5402H1.45998H24.1064C24.1791 36.5503 24.2531 36.545 24.3237 36.5245C24.3954 36.5036 24.4617 36.4675 24.5182 36.4187C24.5748 36.3699 24.6201 36.3095 24.6512 36.2416C24.6823 36.1737 24.6983 36.0999 24.6983 36.0252C24.6983 35.9505 24.6823 35.8767 24.6512 35.8088C24.6201 35.7409 24.5748 35.6805 24.5182 35.6316C24.4617 35.5828 24.3954 35.5468 24.3237 35.5259C24.2531 35.5054 24.1791 35.5 24.1064 35.5102H1.45998V35.5096L1.4527 35.5107C1.32922 35.5289 1.2164 35.5908 1.13482 35.6853C1.05324 35.7797 1.00835 35.9004 1.00835 36.0252C1.00835 36.15 1.05324 36.2706 1.13482 36.3651C1.2164 36.4595 1.32922 36.5215 1.4527 36.5396Z" fill="#1476D2" stroke="#1476D2" stroke-width="0.1"/>
<path d="M12.7889 32.2103L12.7889 32.2103C12.654 32.2076 12.5252 32.1536 12.4288 32.0592C12.3324 31.9648 12.2756 31.8372 12.27 31.7024L12.2699 31.7014C12.2685 31.6335 12.2806 31.566 12.3055 31.5028C12.3305 31.4397 12.3678 31.3821 12.4153 31.3336C12.4628 31.285 12.5196 31.2465 12.5822 31.2202C12.6447 31.1939 12.7118 31.1803 12.7795 31.1803M12.7889 32.2103L12.7799 31.2303M12.7889 32.2103H12.7899H12.8391H12.7889ZM12.7795 31.1803C12.7797 31.1803 12.7798 31.1803 12.7799 31.1803L12.7799 31.2303M12.7795 31.1803C12.7794 31.1803 12.7792 31.1803 12.7791 31.1803L12.7799 31.2303M12.7795 31.1803C15.4146 31.1355 16.9651 30.1122 17.8804 28.9309C18.7734 27.7785 19.0655 26.4709 19.1628 25.7604M12.7799 31.2303C18.0182 31.1414 19.017 27.2037 19.2133 25.7603C19.1964 25.7603 19.1796 25.7604 19.1628 25.7604M19.1628 25.7604C19.1652 25.7434 19.1674 25.7267 19.1695 25.7104C19.1863 25.7103 19.2031 25.7103 19.2199 25.7103L12.4399 27.5103L12.3978 27.4833C12.3977 27.4836 12.3975 27.4839 12.3973 27.4842C12.3612 27.5407 12.3366 27.6038 12.3247 27.6698C12.3128 27.7361 12.3141 27.8041 12.3285 27.87C12.3429 27.9358 12.3702 27.9982 12.4087 28.0535C12.4472 28.1088 12.4962 28.156 12.5529 28.1924C12.6097 28.2288 12.673 28.2536 12.7394 28.2655C12.8057 28.2774 12.8738 28.2761 12.9396 28.2617C13.0055 28.2473 13.0678 28.2201 13.1231 28.1816C13.1785 28.1431 13.2257 28.094 13.262 28.0373L13.2699 28.025V28.0231M19.1628 25.7604C16.9336 25.7699 15.4601 26.3328 14.5436 26.8954C14.0812 27.1793 13.7602 27.4634 13.5551 27.6771C13.4525 27.784 13.379 27.8732 13.3314 27.936C13.3075 27.9674 13.2903 27.992 13.2791 28.0088C13.2753 28.0146 13.2722 28.0194 13.2699 28.0231M13.2699 28.0231V28.0103C13.2699 28.0177 13.2682 28.0232 13.2679 28.0244L13.2678 28.0245C13.2672 28.0265 13.2666 28.028 13.2664 28.0286L13.2657 28.0302L13.2656 28.0304L13.266 28.0297L13.2673 28.0274C13.268 28.0262 13.2689 28.0247 13.2699 28.0231Z" fill="#1476D2" stroke="#1476D2" stroke-width="0.1"/>
<path d="M7.09058 25.7613C9.12409 25.8019 10.425 26.4941 11.2183 27.1905C11.6186 27.542 11.8902 27.895 12.0616 28.1671C12.1473 28.3031 12.2077 28.4187 12.2466 28.5034C12.266 28.5458 12.2799 28.5801 12.2888 28.6052C12.2933 28.6177 12.2964 28.6275 12.2982 28.6345C12.2989 28.6372 12.2994 28.6392 12.2997 28.6404H12.2988L12.3012 28.6514C12.3175 28.7241 12.3492 28.7925 12.3942 28.8519C12.4392 28.9113 12.4964 28.9603 12.5621 28.9956C12.6277 29.031 12.7001 29.0518 12.7745 29.0567C12.8488 29.0616 12.9234 29.0504 12.9931 29.024C13.0627 28.9976 13.1259 28.9565 13.1783 28.9035C13.2307 28.8505 13.2712 28.7869 13.2968 28.7169C13.3225 28.647 13.3328 28.5723 13.3271 28.498C13.3215 28.4247 13.3004 28.3535 13.2653 28.289C13.227 28.1934 12.8554 27.2756 11.8517 26.3966C10.836 25.5071 9.17634 24.6601 6.56873 24.7404C6.56864 24.7405 6.56854 24.7405 6.56845 24.7405L7.09058 25.7613ZM7.09058 25.7613C7.1152 27.3789 7.70345 28.9379 8.75478 30.169C9.81721 31.413 11.2844 32.2424 12.8982 32.5111L12.9041 32.5121L12.904 32.5124C13.0212 32.5467 13.1226 32.6211 13.1904 32.7227C13.2582 32.8242 13.2882 32.9463 13.275 33.0677C13.2618 33.1891 13.2063 33.3019 13.1182 33.3865C13.0302 33.4711 12.9152 33.522 12.7934 33.5303L12.74 33.534V33.5204L7.09058 25.7613Z" fill="#1476D2" stroke="#1476D2" stroke-width="0.1"/>
</svg>
