<svg width="31" height="37" viewBox="0 0 31 37" fill="none" xmlns="http://www.w3.org/2000/svg">
<path d="M1.39441 33.4177C2.25243 34.0291 7.23797 34.8312 14.9231 34.8312C22.6932 34.8312 27.931 34.0109 28.8285 33.4065V31.6649C28.8285 26.4824 25.3787 22.2661 21.1383 22.2661C19.5294 22.2661 18.1095 21.2775 17.5455 19.788C15.9835 20.3622 14.2391 20.3613 12.6774 19.788C12.1134 21.2783 10.6938 22.2661 9.08491 22.2661C4.84454 22.2661 1.39441 26.4824 1.39441 31.6649V33.4177ZM14.9231 36.2266C11.0925 36.2266 7.48656 36.0211 4.76933 35.6498C0.81088 35.1084 0 34.4323 0 33.5835V31.6649C0 25.7139 4.07554 20.8716 9.08491 20.8716C10.1521 20.8716 11.0884 20.1895 11.4156 19.1749C11.4689 19.0083 11.5181 18.8373 11.5627 18.6646C11.6156 18.46 11.7572 18.2916 11.9488 18.2035C12.1408 18.1172 12.3617 18.1206 12.5502 18.2156C14.1662 19.0247 16.0567 19.0247 17.673 18.2156C17.8616 18.1206 18.0828 18.1172 18.274 18.2035C18.466 18.2916 18.6079 18.46 18.6606 18.6646C18.7051 18.8373 18.7544 19.0074 18.8077 19.1732C19.1345 20.1895 20.0715 20.8716 21.1383 20.8716C26.1478 20.8716 30.2236 25.7139 30.2236 31.6649V33.5835C30.2236 34.4314 29.3796 35.1075 25.2617 35.6498C22.4473 36.0211 18.7756 36.2266 14.9231 36.2266Z" fill="#1476D2"/>
<path d="M9.37522 12.1178V13.0883C9.37522 16.2511 11.9483 18.8251 15.1111 18.8251C18.2746 18.8251 20.8478 16.2511 20.8478 13.0883V12.1178H9.37522ZM15.1111 20.2188C11.1793 20.2188 7.98047 17.0205 7.98047 13.0883V11.4201C7.98047 11.035 8.29244 10.7233 8.67797 10.7233H21.5453C21.9301 10.7233 22.2424 11.035 22.2424 11.4201V13.0883C22.2424 17.0205 19.0436 20.2188 15.1111 20.2188Z" fill="#1476D2"/>
<path d="M12.4243 5.41553C12.0395 5.41553 11.7272 5.10383 11.7272 4.71873V1.17076C11.7272 0.785657 12.0395 0.473942 12.4243 0.473942C12.8099 0.473942 13.1218 0.785657 13.1218 1.17076V4.71873C13.1218 5.10383 12.8099 5.41553 12.4243 5.41553Z" fill="#1476D2"/>
<path d="M17.7987 5.41553C17.4135 5.41553 17.1012 5.10383 17.1012 4.71873V1.17076C17.1012 0.785657 17.4135 0.473942 17.7987 0.473942C18.1835 0.473942 18.4956 0.785657 18.4956 1.17076V4.71873C18.4956 5.10383 18.1835 5.41553 17.7987 5.41553Z" fill="#1476D2"/>
<path d="M1.39441 33.4065C2.29223 34.0109 7.52999 34.8312 15.3005 34.8312C22.985 34.8312 27.9708 34.0291 28.8285 33.4177V31.6649C28.8285 26.4824 25.3787 22.2661 21.1383 22.2661C19.5294 22.2661 18.1095 21.2775 17.5455 19.788C15.9835 20.3622 14.2391 20.3613 12.6774 19.788C12.1138 21.2783 10.6938 22.2661 9.08491 22.2661C4.84454 22.2661 1.39441 26.4824 1.39441 31.6649V33.4065ZM15.3005 36.2266C11.4477 36.2266 7.7759 36.0211 4.96119 35.6498C0.843604 35.1075 0 34.4314 0 33.5835V31.6649C0 25.7139 4.07554 20.8716 9.08491 20.8716C10.1521 20.8716 11.0884 20.1895 11.4156 19.1749C11.4693 19.0083 11.5181 18.8373 11.5627 18.6646C11.6156 18.46 11.7572 18.2916 11.9488 18.2035C12.1408 18.1172 12.3617 18.1206 12.5502 18.2156C14.1662 19.0247 16.0567 19.0247 17.673 18.2156C17.8616 18.1206 18.0828 18.1172 18.274 18.2035C18.466 18.2916 18.6079 18.46 18.6606 18.6646C18.7051 18.8373 18.7544 19.0074 18.8077 19.1732C19.1345 20.1895 20.0715 20.8716 21.1383 20.8716C26.1478 20.8716 30.2236 25.7139 30.2236 31.6649V33.5835C30.2236 34.4323 29.412 35.1084 25.4536 35.6498C22.7367 36.0211 19.1308 36.2266 15.3005 36.2266Z" fill="#1476D2"/>
<path d="M7.79655 7.75374C7.41205 7.75374 7.09974 8.06632 7.09974 8.45056V10.0255C7.09974 10.4106 7.41205 10.7232 7.79655 10.7232H22.4265C22.811 10.7232 23.1237 10.4106 23.1237 10.0255V8.45056C23.1237 8.06632 22.811 7.75374 22.4265 7.75374H7.79655ZM22.4265 12.1177H7.79655C6.64305 12.1177 5.70508 11.1791 5.70508 10.0255V8.45056C5.70508 7.29698 6.64305 6.35926 7.79655 6.35926H22.4265C23.58 6.35926 24.5181 7.29698 24.5181 8.45056V10.0255C24.5181 11.1791 23.58 12.1177 22.4265 12.1177Z" fill="#1476D2"/>
<path d="M8.31405 6.35938H21.9099C20.9728 3.43484 18.2445 1.39535 15.1114 1.39535C11.9787 1.39535 9.25065 3.43484 8.31405 6.35938ZM22.8181 7.81689C22.7523 7.81689 22.6863 7.80653 22.6215 7.78753C22.5416 7.76422 22.4795 7.75386 22.4265 7.75386H7.79658C7.74331 7.75386 7.68191 7.76422 7.6023 7.78753C7.36891 7.85574 7.11764 7.79962 6.93822 7.63642C6.7581 7.47496 6.67546 7.2306 6.71933 6.99229C7.46942 2.94093 10.9988 -2.09808e-05 15.1114 -2.09808e-05C19.225 -2.09808e-05 22.7541 2.94093 23.5039 6.99229C23.548 7.2306 23.465 7.47496 23.2853 7.63642C23.1554 7.75385 22.9885 7.81689 22.8181 7.81689Z" fill="#1476D2"/>
<path d="M6.29028 35.8022C5.90509 35.8022 5.59277 35.4897 5.59277 35.1046V31.32C5.59277 30.4229 6.323 29.6924 7.21988 29.6924H15.1114C15.4969 29.6924 15.8089 30.005 15.8089 30.3901C15.8089 30.7752 15.4969 31.0869 15.1114 31.0869H7.21988C7.09166 31.0869 6.98743 31.1914 6.98743 31.32V35.1046C6.98743 35.4897 6.67547 35.8022 6.29028 35.8022Z" fill="#1476D2"/>
<path d="M1.39441 33.4065C2.29223 34.0109 7.52999 34.8312 15.3005 34.8312C22.985 34.8312 27.9708 34.0291 28.8285 33.4177V31.6649C28.8285 26.4824 25.3787 22.2661 21.1383 22.2661C19.5294 22.2661 18.1095 21.2775 17.5455 19.788C15.9835 20.3622 14.2391 20.3613 12.6774 19.788C12.1138 21.2783 10.6938 22.2661 9.08491 22.2661C4.84454 22.2661 1.39441 26.4824 1.39441 31.6649V33.4065ZM15.3005 36.2266C11.4477 36.2266 7.7759 36.0211 4.96119 35.6498C0.843604 35.1075 0 34.4314 0 33.5835V31.6649C0 25.7139 4.07554 20.8716 9.08491 20.8716C10.1521 20.8716 11.0884 20.1895 11.4156 19.1749C11.4693 19.0083 11.5181 18.8373 11.5627 18.6646C11.6156 18.46 11.7572 18.2916 11.9488 18.2035C12.1408 18.1172 12.3617 18.1206 12.5502 18.2156C14.1662 19.0247 16.0567 19.0247 17.673 18.2156C17.8616 18.1206 18.0828 18.1172 18.274 18.2035C18.466 18.2916 18.6079 18.46 18.6606 18.6646C18.7051 18.8373 18.7544 19.0074 18.8077 19.1732C19.1345 20.1895 20.0715 20.8716 21.1383 20.8716C26.1478 20.8716 30.2236 25.7139 30.2236 31.6649V33.5835C30.2236 34.4323 29.412 35.1084 25.4536 35.6498C22.7367 36.0211 19.1308 36.2266 15.3005 36.2266Z" fill="#1476D2"/>
<path d="M23.9327 35.8022C23.5479 35.8022 23.2359 35.4897 23.2359 35.1046V31.32C23.2359 31.1914 23.1313 31.0869 23.0032 31.0869H15.1112C14.7264 31.0869 14.4144 30.7752 14.4144 30.3901C14.4144 30.005 14.7264 29.6924 15.1112 29.6924H23.0032C23.9003 29.6924 24.6302 30.4229 24.6302 31.32V35.1046C24.6302 35.4897 24.3182 35.8022 23.9327 35.8022Z" fill="#1476D2"/>
<path d="M7.64211 31.0874C7.25692 31.0874 6.94495 30.7757 6.94495 30.3906V21.7197C6.94495 21.3346 7.25692 21.022 7.64211 21.022C8.0273 21.022 8.33961 21.3346 8.33961 21.7197V30.3906C8.33961 30.7757 8.0273 31.0874 7.64211 31.0874Z" fill="#1476D2"/>
<path d="M22.5814 31.0874C22.1959 31.0874 21.8839 30.7757 21.8839 30.3906V21.7197C21.8839 21.3346 22.1959 21.022 22.5814 21.022C22.9666 21.022 23.2786 21.3346 23.2786 21.7197V30.3906C23.2786 30.7757 22.9666 31.0874 22.5814 31.0874Z" fill="#1476D2"/>
</svg>
