<svg width="44" height="39" viewBox="0 0 44 39" fill="none" xmlns="http://www.w3.org/2000/svg">
<path d="M1.36369 23.9751H0V6.80824H1.36369V23.9751Z" fill="#1476D2"/>
<path d="M37.4187 29.7974H5.8206C2.61115 29.7974 0 27.1859 0 23.9764C0 20.9978 2.24909 18.5343 5.13875 18.1954V6.80651C5.13875 6.43014 5.44388 6.12467 5.8206 6.12467H8.44809V7.48836H6.50245V18.8377C6.50245 19.2144 6.19698 19.5195 5.8206 19.5195C3.36288 19.5195 1.36369 21.5191 1.36369 23.9764C1.36369 26.4341 3.36288 28.4337 5.8206 28.4337H37.4187C39.8764 28.4337 41.8756 26.4341 41.8756 23.9764C41.8756 21.5191 39.8764 19.5195 37.4187 19.5195C37.042 19.5195 36.7369 19.2144 36.7369 18.8377V7.48836H21.7144V6.12467H37.4187C37.7951 6.12467 38.1006 6.43014 38.1006 6.80651V18.1954C40.9899 18.5343 43.2393 20.9978 43.2393 23.9764C43.2393 27.1859 40.6282 29.7974 37.4187 29.7974Z" fill="#1476D2"/>
<path d="M6.50245 6.80664H5.13875V2.40191C3.00355 2.7309 1.36369 4.58075 1.36369 6.80664H0C0 3.59719 2.61115 0.986058 5.8206 0.986058C6.19698 0.986058 6.50245 1.29118 6.50245 1.6679V6.80664Z" fill="#1476D2"/>
<path d="M43.2393 23.9751H41.8756V6.80824H43.2393V23.9751Z" fill="#1476D2"/>
<path d="M43.2391 6.80664H41.8754C41.8754 4.58075 40.2352 2.7309 38.1004 2.40191V6.80664H36.7367V1.6679C36.7367 1.29118 37.0418 0.986058 37.4185 0.986058C40.628 0.986058 43.2391 3.59719 43.2391 6.80664Z" fill="#1476D2"/>
<path d="M13.5822 36.7833L29.4587 36.8491V33.4702L13.5822 33.4044V36.7833ZM30.1405 38.2158C30.1395 38.2158 30.1384 38.2158 30.1374 38.2158L12.8976 38.1442C12.5219 38.1425 12.2185 37.8377 12.2185 37.4624V32.7195C12.2185 32.5384 12.2904 32.3642 12.419 32.2364C12.5468 32.1092 12.7197 32.0376 12.9004 32.0376C12.901 32.0376 12.9021 32.0376 12.9027 32.0376L30.1436 32.1092C30.5186 32.1109 30.8223 32.4157 30.8223 32.791V37.534C30.8223 37.715 30.7501 37.8892 30.6215 38.0171C30.4937 38.1442 30.3208 38.2158 30.1405 38.2158Z" fill="#1476D2"/>
<path d="M30.4324 38.1499L29.8484 36.9175L33.5522 35.1624L29.8484 33.4073L30.4324 32.1749L35.4361 34.5463C35.6741 34.6588 35.8261 34.8989 35.8261 35.1624C35.8261 35.4259 35.6741 35.6659 35.4361 35.7784L30.4324 38.1499Z" fill="#1476D2"/>
<path d="M12.9005 38.144H11.8181C9.77662 38.144 8.11597 36.7742 8.11597 35.0907C8.11597 33.4073 9.77662 32.0374 11.8181 32.0374H12.9005V33.4011H11.8181C10.5505 33.4011 9.47966 34.175 9.47966 35.0907C9.47966 36.0065 10.5505 36.7803 11.8181 36.7803H12.9005V38.144Z" fill="#1476D2"/>
<path d="M27.2584 35.8442H15.3397V34.4805H27.2584V35.8442Z" fill="#1476D2"/>
<path d="M11.9412 21.6134H31.2876L11.9412 2.26699V21.6134ZM32.9336 22.9771H11.2594C10.883 22.9771 10.5775 22.6716 10.5775 22.2952V0.743057C10.5775 0.562027 10.6498 0.388166 10.778 0.260321L10.8393 0.199293C11.1053 -0.0666256 11.5369 -0.0662842 11.8028 0.199976L33.4156 21.8132C33.611 22.0078 33.6689 22.3014 33.5636 22.556C33.4579 22.8107 33.2094 22.9771 32.9336 22.9771Z" fill="#1476D2"/>
<path d="M15.3879 18.0216H23.0511L15.3879 10.3586V18.0216ZM24.6971 19.3853H14.706C14.3296 19.3853 14.0242 19.0798 14.0242 18.7034V8.76856C14.0242 8.58616 14.0971 8.41162 14.2267 8.28377L14.255 8.25582C14.5219 7.99229 14.9515 7.9933 15.2164 8.25854L25.1792 18.2213C25.3742 18.416 25.4325 18.7095 25.3271 18.9642C25.2215 19.2189 24.9729 19.3853 24.6971 19.3853Z" fill="#1476D2"/>
<path d="M14.1603 22.2954H12.7966V20.2642H14.1603V22.2954Z" fill="#1476D2"/>
<path d="M16.1 22.2954H14.7363V21.0279H16.1V22.2954Z" fill="#1476D2"/>
<path d="M18.278 22.2954H16.9143V20.2642H18.278V22.2954Z" fill="#1476D2"/>
<path d="M20.2178 22.2954H18.8541V21.0279H20.2178V22.2954Z" fill="#1476D2"/>
<path d="M22.396 22.2954H21.0323V20.2642H22.396V22.2954Z" fill="#1476D2"/>
<path d="M24.3357 22.2954H22.972V21.0279H24.3357V22.2954Z" fill="#1476D2"/>
<path d="M26.514 22.2954H25.1503V20.2642H26.514V22.2954Z" fill="#1476D2"/>
<path d="M28.4537 22.2954H27.09V21.0279H28.4537V22.2954Z" fill="#1476D2"/>
</svg>
