<svg width="38" height="38" viewBox="0 0 38 38" fill="none" xmlns="http://www.w3.org/2000/svg">
<mask id="path-1-outside-1" maskUnits="userSpaceOnUse" x="0" y="4.60742" width="38" height="34" fill="black">
<rect fill="white" y="4.60742" width="38" height="34"/>
<path d="M5.36021 36.7521C3.42717 36.7521 1.85533 35.1803 1.85533 33.2479C1.85533 31.4615 3.20281 30.0002 4.93255 29.7864V35.3612H6.01882C8.05977 35.3612 9.71977 33.9091 9.71977 32.1241C9.71977 32.0728 9.71384 32.0221 9.71121 31.9715H9.71977V9.81706H32.3051V14.0463H36.535V36.7521H5.36021ZM8.86444 32.1241C8.86444 33.4373 7.58802 34.5059 6.01882 34.5059H5.78788V29.743H6.01882C7.58802 29.743 8.86444 30.8115 8.86444 32.1241ZM1.85533 9.38939C1.85533 7.457 3.42717 5.88451 5.36021 5.88451C7.2926 5.88451 8.86444 7.457 8.86444 9.38939V30.0581C8.18544 29.3436 7.16167 28.8877 6.01882 28.8877H5.36021C3.92326 28.8877 2.65013 29.5897 1.85533 30.6654V9.38939ZM33.1604 10.4217L35.9304 13.191H33.1604V10.4217ZM32.9098 8.96173H9.69805C9.4829 6.75761 7.6196 5.02918 5.36021 5.02918C2.95542 5.02918 1 6.98525 1 9.38939V33.2479C1 35.652 2.95542 37.6074 5.36021 37.6074H37.3904V13.4417L32.9098 8.96173Z"/>
</mask>
<path d="M5.36021 36.7521C3.42717 36.7521 1.85533 35.1803 1.85533 33.2479C1.85533 31.4615 3.20281 30.0002 4.93255 29.7864V35.3612H6.01882C8.05977 35.3612 9.71977 33.9091 9.71977 32.1241C9.71977 32.0728 9.71384 32.0221 9.71121 31.9715H9.71977V9.81706H32.3051V14.0463H36.535V36.7521H5.36021ZM8.86444 32.1241C8.86444 33.4373 7.58802 34.5059 6.01882 34.5059H5.78788V29.743H6.01882C7.58802 29.743 8.86444 30.8115 8.86444 32.1241ZM1.85533 9.38939C1.85533 7.457 3.42717 5.88451 5.36021 5.88451C7.2926 5.88451 8.86444 7.457 8.86444 9.38939V30.0581C8.18544 29.3436 7.16167 28.8877 6.01882 28.8877H5.36021C3.92326 28.8877 2.65013 29.5897 1.85533 30.6654V9.38939ZM33.1604 10.4217L35.9304 13.191H33.1604V10.4217ZM32.9098 8.96173H9.69805C9.4829 6.75761 7.6196 5.02918 5.36021 5.02918C2.95542 5.02918 1 6.98525 1 9.38939V33.2479C1 35.652 2.95542 37.6074 5.36021 37.6074H37.3904V13.4417L32.9098 8.96173Z" fill="#1476D2"/>
<path d="M4.93255 29.7864L4.90801 29.5879L5.13255 29.5602V29.7864H4.93255ZM4.93255 35.3612V35.5612H4.73255V35.3612H4.93255ZM9.71121 31.9715L9.51148 31.9818L9.50055 31.7715H9.71121V31.9715ZM9.71977 31.9715H9.91977V32.1715H9.71977V31.9715ZM9.71977 9.81706H9.51977V9.61706H9.71977V9.81706ZM32.3051 9.81706V9.61706H32.5051V9.81706H32.3051ZM32.3051 14.0463V14.2463H32.1051V14.0463H32.3051ZM36.535 14.0463V13.8463H36.7351V14.0463H36.535ZM36.535 36.7521H36.7351V36.9521H36.535V36.7521ZM5.78788 34.5059V34.7059H5.58788V34.5059H5.78788ZM5.78788 29.743H5.58788V29.543H5.78788V29.743ZM8.86444 30.0581H9.06444V30.5589L8.71946 30.1959L8.86444 30.0581ZM1.85533 30.6654L2.01619 30.7843L1.65533 31.2727V30.6654H1.85533ZM33.1604 10.4217H32.9604V9.93896L33.3018 10.2803L33.1604 10.4217ZM35.9304 13.191L36.0718 13.0496L36.4133 13.391H35.9304V13.191ZM33.1604 13.191V13.391H32.9604V13.191H33.1604ZM9.69805 8.96173V9.16173H9.51662L9.499 8.98116L9.69805 8.96173ZM37.3904 37.6074H37.5904V37.8074H37.3904V37.6074ZM37.3904 13.4417L37.5318 13.3003L37.5904 13.3588V13.4417H37.3904ZM5.36021 36.9521C3.31673 36.9521 1.65533 35.2907 1.65533 33.2479H2.05533C2.05533 35.0698 3.5376 36.5521 5.36021 36.5521V36.9521ZM1.65533 33.2479C1.65533 31.3576 3.081 29.8138 4.90801 29.5879L4.95709 29.9849C3.32462 30.1867 2.05533 31.5654 2.05533 33.2479H1.65533ZM5.13255 29.7864V35.3612H4.73255V29.7864H5.13255ZM4.93255 35.1612H6.01882V35.5612H4.93255V35.1612ZM6.01882 35.1612C7.9753 35.1612 9.51977 33.7743 9.51977 32.1241H9.91977C9.91977 34.0439 8.14424 35.5612 6.01882 35.5612V35.1612ZM9.51977 32.1241C9.51977 32.0778 9.5151 32.0516 9.51148 31.9818L9.91094 31.9611C9.91258 31.9927 9.91977 32.0678 9.91977 32.1241H9.51977ZM9.71121 31.7715H9.71977V32.1715H9.71121V31.7715ZM9.51977 31.9715V9.81706H9.91977V31.9715H9.51977ZM9.71977 9.61706H32.3051V10.0171H9.71977V9.61706ZM32.5051 9.81706V14.0463H32.1051V9.81706H32.5051ZM32.3051 13.8463H36.535V14.2463H32.3051V13.8463ZM36.7351 14.0463V36.7521H36.335V14.0463H36.7351ZM36.535 36.9521H5.36021V36.5521H36.535V36.9521ZM9.06444 32.1241C9.06444 33.5797 7.66368 34.7059 6.01882 34.7059V34.3059C7.51237 34.3059 8.66444 33.295 8.66444 32.1241H9.06444ZM6.01882 34.7059H5.78788V34.3059H6.01882V34.7059ZM5.58788 34.5059V29.743H5.98788V34.5059H5.58788ZM5.78788 29.543H6.01882V29.943H5.78788V29.543ZM6.01882 29.543C7.66364 29.543 9.06444 30.6691 9.06444 32.1241H8.66444C8.66444 30.9538 7.5124 29.943 6.01882 29.943V29.543ZM1.65533 9.38939C1.65533 7.34657 3.31669 5.68451 5.36021 5.68451V6.08451C3.53765 6.08451 2.05533 7.56744 2.05533 9.38939H1.65533ZM5.36021 5.68451C7.40311 5.68451 9.06444 7.3466 9.06444 9.38939H8.66444C8.66444 7.56741 7.1821 6.08451 5.36021 6.08451V5.68451ZM9.06444 9.38939V30.0581H8.66444V9.38939H9.06444ZM8.71946 30.1959C8.07971 29.5227 7.10906 29.0877 6.01882 29.0877V28.6877C7.21428 28.6877 8.29117 29.1645 9.00942 29.9204L8.71946 30.1959ZM6.01882 29.0877H5.36021V28.6877H6.01882V29.0877ZM5.36021 29.0877C3.99011 29.0877 2.77534 29.7568 2.01619 30.7843L1.69447 30.5466C2.52492 29.4226 3.85641 28.6877 5.36021 28.6877V29.0877ZM1.65533 30.6654V9.38939H2.05533V30.6654H1.65533ZM33.3018 10.2803L36.0718 13.0496L35.789 13.3324L33.019 10.5632L33.3018 10.2803ZM35.9304 13.391H33.1604V12.991H35.9304V13.391ZM32.9604 13.191V10.4217H33.3604V13.191H32.9604ZM32.9098 9.16173H9.69805V8.76173H32.9098V9.16173ZM9.499 8.98116C9.29374 6.87835 7.51554 5.22918 5.36021 5.22918V4.82918C7.72367 4.82918 9.67207 6.63686 9.89711 8.9423L9.499 8.98116ZM5.36021 5.22918C3.0659 5.22918 1.2 7.09569 1.2 9.38939H0.8C0.8 6.87482 2.84494 4.82918 5.36021 4.82918V5.22918ZM1.2 9.38939V33.2479H0.8V9.38939H1.2ZM1.2 33.2479C1.2 35.5415 3.06586 37.4074 5.36021 37.4074V37.8074C2.84498 37.8074 0.8 35.7625 0.8 33.2479H1.2ZM5.36021 37.4074H37.3904V37.8074H5.36021V37.4074ZM37.1904 37.6074V13.4417H37.5904V37.6074H37.1904ZM37.249 13.5831L32.7683 9.10316L33.0512 8.8203L37.5318 13.3003L37.249 13.5831Z" fill="#1476D2" mask="url(#path-1-outside-1)"/>
<path d="M31.3748 21.5334V21.4334H31.4748H32.2051V18.4739L17.9585 32.7205H20.918V31.9895V31.8895H21.018H21.8734H21.9734V31.9895V32.7205H23.486V31.9895V31.8895H23.586H24.4413H24.5413V31.9895V32.7205H26.0546V31.9895V31.8895H26.1546H27.0093H27.1093V31.9895V32.7205H28.6226V31.9895V31.8895H28.7226H29.5779H29.6779V31.9895V32.7205H32.2051V30.1926H31.4748H31.3748V30.0926V29.2379V29.1379H31.4748H32.2051V27.6246H31.4748H31.3748V27.5246V26.6693V26.5693H31.4748H32.2051V25.0567H31.4748H31.3748V24.9567V24.1013V24.0013H31.4748H32.2051V22.488H31.4748H31.3748V22.388V21.5334ZM33.2604 33.6758V33.7758H33.1604H15.6525H15.411L15.5818 33.6051L33.0897 16.0971L33.2604 15.9264V16.1678V33.6758Z" fill="#1476D2" stroke="#1476D2" stroke-width="0.2"/>
<path d="M29.5071 24.1205L29.6778 23.9498V24.1912V30.0923V30.1923H29.5778H23.676H23.4346L23.6053 30.0216L29.5071 24.1205ZM28.6225 26.4979L25.9828 29.1376H28.6225V26.4979Z" fill="#1476D2" stroke="#1476D2" stroke-width="0.2"/>
<mask id="path-5-outside-2" maskUnits="userSpaceOnUse" x="10.3619" y="17.1021" width="8" height="13" fill="black">
<rect fill="white" x="10.3619" y="17.1021" width="8" height="13"/>
<path d="M13.3417 25.657L14.6635 21.7673C14.6786 21.7679 14.6931 21.7719 14.7089 21.7719C14.726 21.7719 14.7425 21.7673 14.7596 21.7666L16.0774 25.6564C15.1846 25.8853 14.2312 25.8847 13.3417 25.657ZM14.7089 19.6546C15.057 19.6546 15.3405 19.9375 15.3405 20.2856C15.3405 20.633 15.057 20.9165 14.7089 20.9165C14.3609 20.9165 14.0779 20.633 14.0779 20.2856C14.0779 19.9375 14.3609 19.6546 14.7089 19.6546ZM16.3577 26.4841L17.2453 29.1021L18.0552 28.8277L15.5702 21.4929C15.9472 21.2225 16.1959 20.7836 16.1959 20.2856C16.1959 19.6158 15.7472 19.0539 15.1366 18.8697V18.0124H14.2813V18.8697C13.6707 19.0539 13.2226 19.6158 13.2226 20.2856C13.2226 20.7849 13.4726 21.2264 13.8523 21.4955L11.3619 28.827L12.1719 29.1021L13.0608 26.4841C13.593 26.6275 14.1457 26.7032 14.7115 26.7032C15.2747 26.7032 15.8261 26.6275 16.3577 26.4841Z"/>
</mask>
<path d="M13.3417 25.657L14.6635 21.7673C14.6786 21.7679 14.6931 21.7719 14.7089 21.7719C14.726 21.7719 14.7425 21.7673 14.7596 21.7666L16.0774 25.6564C15.1846 25.8853 14.2312 25.8847 13.3417 25.657ZM14.7089 19.6546C15.057 19.6546 15.3405 19.9375 15.3405 20.2856C15.3405 20.633 15.057 20.9165 14.7089 20.9165C14.3609 20.9165 14.0779 20.633 14.0779 20.2856C14.0779 19.9375 14.3609 19.6546 14.7089 19.6546ZM16.3577 26.4841L17.2453 29.1021L18.0552 28.8277L15.5702 21.4929C15.9472 21.2225 16.1959 20.7836 16.1959 20.2856C16.1959 19.6158 15.7472 19.0539 15.1366 18.8697V18.0124H14.2813V18.8697C13.6707 19.0539 13.2226 19.6158 13.2226 20.2856C13.2226 20.7849 13.4726 21.2264 13.8523 21.4955L11.3619 28.827L12.1719 29.1021L13.0608 26.4841C13.593 26.6275 14.1457 26.7032 14.7115 26.7032C15.2747 26.7032 15.8261 26.6275 16.3577 26.4841Z" fill="#1476D2"/>
<path d="M14.6635 21.7673L14.4741 21.7029L14.5224 21.5609L14.6722 21.5675L14.6635 21.7673ZM14.7596 21.7666L14.7519 21.5668L14.9011 21.561L14.949 21.7024L14.7596 21.7666ZM16.0774 25.6564L16.2669 25.5922L16.3361 25.7965L16.1271 25.8501L16.0774 25.6564ZM17.2453 29.1021L17.3095 29.2915L17.1201 29.3556L17.0559 29.1663L17.2453 29.1021ZM18.0552 28.8277L18.2447 28.7635L18.3088 28.9529L18.1194 29.0171L18.0552 28.8277ZM15.5702 21.4929L15.3807 21.5571L15.3332 21.4167L15.4536 21.3304L15.5702 21.4929ZM15.1366 18.8697L15.0788 19.0611L14.9366 19.0182V18.8697H15.1366ZM15.1366 18.0124V17.8124H15.3366V18.0124H15.1366ZM14.2813 18.0124H14.0813V17.8124H14.2813V18.0124ZM14.2813 18.8697H14.4813V19.0182L14.339 19.0611L14.2813 18.8697ZM13.8523 21.4955L13.9679 21.3324L14.0896 21.4186L14.0416 21.5598L13.8523 21.4955ZM11.3619 28.827L11.2976 29.0164L11.1082 28.9521L11.1726 28.7627L11.3619 28.827ZM12.1719 29.1021L12.3613 29.1664L12.297 29.3557L12.1076 29.2914L12.1719 29.1021ZM13.0608 26.4841L12.8714 26.4198L12.9317 26.2422L13.1128 26.291L13.0608 26.4841ZM13.1523 25.5927L14.4741 21.7029L14.8529 21.8316L13.5311 25.7214L13.1523 25.5927ZM14.6722 21.5675C14.6831 21.5679 14.6925 21.5689 14.6994 21.5698C14.7055 21.5705 14.7122 21.5715 14.7143 21.5718C14.7214 21.5729 14.7166 21.5719 14.7089 21.5719V21.9719C14.6855 21.9719 14.6655 21.9689 14.6577 21.9678C14.6523 21.967 14.6515 21.9669 14.6501 21.9667C14.6495 21.9667 14.6515 21.9669 14.6548 21.9671L14.6722 21.5675ZM14.7089 21.5719C14.7043 21.5719 14.7013 21.5722 14.7008 21.5722C14.7005 21.5723 14.7012 21.5722 14.7051 21.5716C14.7079 21.5712 14.7151 21.5701 14.7221 21.5692C14.7298 21.5683 14.74 21.5672 14.7519 21.5668L14.7673 21.9665C14.7706 21.9663 14.7724 21.9661 14.7716 21.9662C14.7702 21.9663 14.769 21.9665 14.7634 21.9674C14.7555 21.9685 14.7338 21.9719 14.7089 21.9719V21.5719ZM14.949 21.7024L16.2669 25.5922L15.888 25.7206L14.5702 21.8308L14.949 21.7024ZM16.1271 25.8501C15.2017 26.0874 14.2142 26.0868 13.2921 25.8508L13.3913 25.4633C14.2483 25.6826 15.1675 25.6832 16.0278 25.4626L16.1271 25.8501ZM14.7089 19.4546C15.1672 19.4546 15.5405 19.8268 15.5405 20.2856H15.1405C15.1405 20.0482 14.9468 19.8546 14.7089 19.8546V19.4546ZM15.5405 20.2856C15.5405 20.7435 15.1673 21.1165 14.7089 21.1165V20.7165C14.9466 20.7165 15.1405 20.5224 15.1405 20.2856H15.5405ZM14.7089 21.1165C14.2503 21.1165 13.8779 20.7433 13.8779 20.2856H14.2779C14.2779 20.5226 14.4715 20.7165 14.7089 20.7165V21.1165ZM13.8779 20.2856C13.8779 19.8271 14.2504 19.4546 14.7089 19.4546V19.8546C14.4713 19.8546 14.2779 20.048 14.2779 20.2856H13.8779ZM16.5471 26.4199L17.4347 29.0378L17.0559 29.1663L16.1683 26.5483L16.5471 26.4199ZM17.1811 28.9126L17.9911 28.6383L18.1194 29.0171L17.3095 29.2915L17.1811 28.9126ZM17.8658 28.8919L15.3807 21.5571L15.7596 21.4287L18.2447 28.7635L17.8658 28.8919ZM15.4536 21.3304C15.7817 21.0951 15.9959 20.715 15.9959 20.2856H16.3959C16.3959 20.8522 16.1127 21.3499 15.6867 21.6554L15.4536 21.3304ZM15.9959 20.2856C15.9959 19.7081 15.609 19.2211 15.0788 19.0611L15.1944 18.6782C15.8854 18.8867 16.3959 19.5234 16.3959 20.2856H15.9959ZM14.9366 18.8697V18.0124H15.3366V18.8697H14.9366ZM15.1366 18.2124H14.2813V17.8124H15.1366V18.2124ZM14.4813 18.0124V18.8697H14.0813V18.0124H14.4813ZM14.339 19.0611C13.809 19.2211 13.4226 19.708 13.4226 20.2856H13.0226C13.0226 19.5236 13.5324 18.8867 14.2235 18.6782L14.339 19.0611ZM13.4226 20.2856C13.4226 20.7164 13.6381 21.0986 13.9679 21.3324L13.7366 21.6587C13.3071 21.3543 13.0226 20.8535 13.0226 20.2856H13.4226ZM14.0416 21.5598L11.5513 28.8914L11.1726 28.7627L13.6629 21.4312L14.0416 21.5598ZM11.4262 28.6377L12.2362 28.9127L12.1076 29.2914L11.2976 29.0164L11.4262 28.6377ZM11.9825 29.0377L12.8714 26.4198L13.2501 26.5484L12.3613 29.1664L11.9825 29.0377ZM13.1128 26.291C13.6285 26.4299 14.1636 26.5032 14.7115 26.5032V26.9032C14.1278 26.9032 13.5576 26.8251 13.0087 26.6772L13.1128 26.291ZM14.7115 26.5032C15.2567 26.5032 15.7906 26.4299 16.3056 26.291L16.4098 26.6772C15.8616 26.8251 15.2928 26.9032 14.7115 26.9032V26.5032Z" fill="#1476D2" mask="url(#path-5-outside-2)"/>
<path d="M19.5842 22.4823H19.4842V22.3823V17.6589H17.6354H17.5354V17.5589V16.7036V16.6036H17.6354H19.4842V14.1461H17.6354H17.5354V14.0461V13.1908V13.0908H17.6354H19.4842V11.8795V11.7795H19.5842H20.4395H20.5395V11.8795V13.0908H22.1528V11.8795V11.7795H22.2528H23.1082H23.2082V11.8795V13.0908H24.8215V11.8795V11.7795H24.9215H25.7761H25.8761V11.8795V13.0908H30.1008H30.2008V13.1908V14.0461V14.1461H30.1008H25.8761V16.6036H27.725H27.825V16.7036V17.5589V17.6589H27.725H25.8761V20.6434V20.6848L25.8469 20.7141L25.4199 21.1411L25.3906 21.1704H25.3491H23.2082V22.3823V22.4823H23.1082H22.2528H22.1528V22.3823V21.1704H20.5395V22.3823V22.4823H20.4395H19.5842ZM22.1528 16.6036V14.1461H20.5395V16.6036H22.1528ZM23.2082 16.6036H24.8215V14.1461H23.2082V16.6036ZM23.2082 17.6589V20.1157H24.8215V17.6589H23.2082ZM22.1528 17.6589H20.5395V20.1157H22.1528V17.6589Z" fill="#1476D2" stroke="#1476D2" stroke-width="0.2"/>
<mask id="path-8-outside-3" maskUnits="userSpaceOnUse" x="8.52502" y="-0.078125" width="29" height="8" fill="black">
<rect fill="white" x="8.52502" y="-0.078125" width="29" height="8"/>
<path d="M12.0397 3.41306V4.52959L10.7633 3.97165L12.0397 3.41306ZM35.6113 3.97165C35.6113 4.98028 34.8941 5.82443 33.9434 6.02247V1.92082C34.8941 2.11886 35.6113 2.96236 35.6113 3.97165ZM15.0353 5.84021L12.895 4.90396V3.03867L15.0353 2.10242V5.84021ZM31.2682 3.54399H15.8907V1.87674H31.2682V3.54399ZM31.2682 6.06654H15.8907V4.39932H31.2682V6.06654ZM33.0881 6.06654H32.1235V1.87674H33.0881V6.06654ZM15.463 6.92188H33.5157C35.1428 6.92188 36.466 5.5981 36.466 3.97165C36.466 2.34455 35.1428 1.02141 33.5157 1.02141H15.463L15.2913 1.05695L9.52502 3.57952V4.36313L15.2913 6.88636L15.463 6.92188Z"/>
</mask>
<path d="M12.0397 3.41306V4.52959L10.7633 3.97165L12.0397 3.41306ZM35.6113 3.97165C35.6113 4.98028 34.8941 5.82443 33.9434 6.02247V1.92082C34.8941 2.11886 35.6113 2.96236 35.6113 3.97165ZM15.0353 5.84021L12.895 4.90396V3.03867L15.0353 2.10242V5.84021ZM31.2682 3.54399H15.8907V1.87674H31.2682V3.54399ZM31.2682 6.06654H15.8907V4.39932H31.2682V6.06654ZM33.0881 6.06654H32.1235V1.87674H33.0881V6.06654ZM15.463 6.92188H33.5157C35.1428 6.92188 36.466 5.5981 36.466 3.97165C36.466 2.34455 35.1428 1.02141 33.5157 1.02141H15.463L15.2913 1.05695L9.52502 3.57952V4.36313L15.2913 6.88636L15.463 6.92188Z" fill="#1476D2"/>
<path d="M12.0397 3.41306L11.9595 3.22983L12.2397 3.10722V3.41306H12.0397ZM12.0397 4.52959H12.2397V4.83528L11.9596 4.71285L12.0397 4.52959ZM10.7633 3.97165L10.6832 4.15491L10.2642 3.97176L10.6831 3.78843L10.7633 3.97165ZM33.9434 6.02247L33.9842 6.21826L33.7434 6.26842V6.02247H33.9434ZM33.9434 1.92082H33.7434V1.67487L33.9842 1.72502L33.9434 1.92082ZM15.0353 5.84021H15.2353V6.146L14.9552 6.02345L15.0353 5.84021ZM12.895 4.90396L12.8149 5.08719L12.695 5.03477V4.90396H12.895ZM12.895 3.03867H12.695V2.90786L12.8149 2.85544L12.895 3.03867ZM15.0353 2.10242L14.9552 1.91918L15.2353 1.79663V2.10242H15.0353ZM31.2682 3.54399H31.4682V3.74399H31.2682V3.54399ZM15.8907 3.54399V3.74399H15.6907V3.54399H15.8907ZM15.8907 1.87674H15.6907V1.67674H15.8907V1.87674ZM31.2682 1.87674V1.67674H31.4682V1.87674H31.2682ZM31.2682 6.06654H31.4682V6.26654H31.2682V6.06654ZM15.8907 6.06654V6.26654H15.6907V6.06654H15.8907ZM15.8907 4.39932H15.6907V4.19932H15.8907V4.39932ZM31.2682 4.39932V4.19932H31.4682V4.39932H31.2682ZM33.0881 6.06654H33.2881V6.26654H33.0881V6.06654ZM32.1235 6.06654V6.26654H31.9235V6.06654H32.1235ZM32.1235 1.87674H31.9235V1.67674H32.1235V1.87674ZM33.0881 1.87674V1.67674H33.2881V1.87674H33.0881ZM15.463 1.02141L15.4225 0.825562L15.4425 0.821414H15.463V1.02141ZM15.2913 1.05695L15.2111 0.873713L15.2303 0.865331L15.2507 0.861094L15.2913 1.05695ZM9.52502 3.57952H9.32502V3.44871L9.44486 3.39629L9.52502 3.57952ZM9.52502 4.36313L9.44485 4.54635L9.32502 4.49392V4.36313H9.52502ZM15.2913 6.88636L15.2508 7.08221L15.2303 7.07798L15.2111 7.06958L15.2913 6.88636ZM12.2397 3.41306V4.52959H11.8397V3.41306H12.2397ZM11.9596 4.71285L10.6832 4.15491L10.8434 3.78839L12.1198 4.34633L11.9596 4.71285ZM10.6831 3.78843L11.9595 3.22983L12.1199 3.59628L10.8435 4.15488L10.6831 3.78843ZM35.8113 3.97165C35.8113 5.07722 35.0255 6.00135 33.9842 6.21826L33.9026 5.82667C34.7628 5.6475 35.4113 4.88335 35.4113 3.97165H35.8113ZM33.7434 6.02247V1.92082H34.1434V6.02247H33.7434ZM33.9842 1.72502C35.0255 1.94193 35.8113 2.86539 35.8113 3.97165H35.4113C35.4113 3.05933 34.7628 2.2958 33.9026 2.11662L33.9842 1.72502ZM14.9552 6.02345L12.8149 5.08719L12.9752 4.72072L15.1155 5.65698L14.9552 6.02345ZM12.695 4.90396V3.03867H13.095V4.90396H12.695ZM12.8149 2.85544L14.9552 1.91918L15.1155 2.28565L12.9752 3.22191L12.8149 2.85544ZM15.2353 2.10242V5.84021H14.8353V2.10242H15.2353ZM31.2682 3.74399H15.8907V3.34399H31.2682V3.74399ZM15.6907 3.54399V1.87674H16.0907V3.54399H15.6907ZM15.8907 1.67674H31.2682V2.07675H15.8907V1.67674ZM31.4682 1.87674V3.54399H31.0682V1.87674H31.4682ZM31.2682 6.26654H15.8907V5.86654H31.2682V6.26654ZM15.6907 6.06654V4.39932H16.0907V6.06654H15.6907ZM15.8907 4.19932H31.2682V4.59932H15.8907V4.19932ZM31.4682 4.39932V6.06654H31.0682V4.39932H31.4682ZM33.0881 6.26654H32.1235V5.86654H33.0881V6.26654ZM31.9235 6.06654V1.87674H32.3235V6.06654H31.9235ZM32.1235 1.67674H33.0881V2.07675H32.1235V1.67674ZM33.2881 1.87674V6.06654H32.8881V1.87674H33.2881ZM15.463 6.72187H33.5157V7.12188H15.463V6.72187ZM33.5157 6.72187C35.0323 6.72187 36.266 5.48767 36.266 3.97165H36.666C36.666 5.70853 35.2533 7.12188 33.5157 7.12188V6.72187ZM36.266 3.97165C36.266 2.45501 35.0324 1.22141 33.5157 1.22141V0.821414C35.2533 0.821414 36.666 2.23409 36.666 3.97165H36.266ZM33.5157 1.22141H15.463V0.821414H33.5157V1.22141ZM15.5035 1.21727L15.3318 1.2528L15.2507 0.861094L15.4225 0.825562L15.5035 1.21727ZM15.3714 1.24018L9.60518 3.76275L9.44486 3.39629L15.2111 0.873713L15.3714 1.24018ZM9.72502 3.57952V4.36313H9.32502V3.57952H9.72502ZM9.6052 4.1799L15.3714 6.70313L15.2111 7.06958L9.44485 4.54635L9.6052 4.1799ZM15.3318 6.6905L15.5035 6.72602L15.4225 7.11773L15.2508 7.08221L15.3318 6.6905Z" fill="#1476D2" mask="url(#path-8-outside-3)"/>
</svg>
