<svg width="47" height="29" viewBox="0 0 47 29" fill="none" xmlns="http://www.w3.org/2000/svg">
<path d="M32.3843 25.4185V25.5185H32.2843H22.0969H21.9969V25.4185V24.0001V23.9001H22.0969H32.2843H32.3843V24.0001V25.4185Z" fill="#1476D2" stroke="#1476D2" stroke-width="0.2"/>
<mask id="path-2-outside-1" maskUnits="userSpaceOnUse" x="30.5737" y="8.41846" width="17" height="18" fill="black">
<rect fill="white" x="30.5737" y="8.41846" width="17" height="18"/>
<path d="M44.5655 25.4185H41.3934C41.0019 25.4185 40.6842 25.1007 40.6842 24.7093C40.6842 23.3328 39.5648 22.2134 38.1884 22.2134C36.814 22.2134 35.696 23.3328 35.696 24.7093C35.696 25.1007 35.3783 25.4185 34.9869 25.4185H32.2842V24.0001H34.3419C34.6762 22.1789 36.274 20.7951 38.1884 20.7951C40.1045 20.7951 41.7037 22.1789 42.0384 24.0001H44.5655C44.9491 24.0001 45.2608 23.6881 45.2608 23.3044V17.1418C45.2608 16.756 44.9491 16.4422 44.5655 16.4422H44.0996C43.0376 16.4422 41.909 15.6657 41.5296 14.6743L40.2687 11.3685C40.0967 10.9214 39.5031 10.5125 39.0237 10.5125H32.9934L32.992 19.5522H31.5737L31.5751 9.80337C31.5751 9.41153 31.8928 9.09421 32.2842 9.09421H39.0237C40.0832 9.09421 41.2119 9.87 41.5934 10.8607L42.8546 14.1679C43.0259 14.6158 43.6194 15.0238 44.0996 15.0238H44.5655C45.731 15.0238 46.6791 15.9742 46.6791 17.1418V23.3044C46.6791 24.47 45.731 25.4185 44.5655 25.4185Z"/>
</mask>
<path d="M44.5655 25.4185H41.3934C41.0019 25.4185 40.6842 25.1007 40.6842 24.7093C40.6842 23.3328 39.5648 22.2134 38.1884 22.2134C36.814 22.2134 35.696 23.3328 35.696 24.7093C35.696 25.1007 35.3783 25.4185 34.9869 25.4185H32.2842V24.0001H34.3419C34.6762 22.1789 36.274 20.7951 38.1884 20.7951C40.1045 20.7951 41.7037 22.1789 42.0384 24.0001H44.5655C44.9491 24.0001 45.2608 23.6881 45.2608 23.3044V17.1418C45.2608 16.756 44.9491 16.4422 44.5655 16.4422H44.0996C43.0376 16.4422 41.909 15.6657 41.5296 14.6743L40.2687 11.3685C40.0967 10.9214 39.5031 10.5125 39.0237 10.5125H32.9934L32.992 19.5522H31.5737L31.5751 9.80337C31.5751 9.41153 31.8928 9.09421 32.2842 9.09421H39.0237C40.0832 9.09421 41.2119 9.87 41.5934 10.8607L42.8546 14.1679C43.0259 14.6158 43.6194 15.0238 44.0996 15.0238H44.5655C45.731 15.0238 46.6791 15.9742 46.6791 17.1418V23.3044C46.6791 24.47 45.731 25.4185 44.5655 25.4185Z" fill="#1476D2"/>
<path d="M32.2842 25.4185V25.6185H32.0842V25.4185H32.2842ZM32.2842 24.0001H32.0842V23.8001H32.2842V24.0001ZM34.3419 24.0001L34.5386 24.0363L34.5085 24.2001H34.3419V24.0001ZM42.0384 24.0001V24.2001H41.8718L41.8417 24.0363L42.0384 24.0001ZM41.5296 14.6743L41.3428 14.7457L41.3427 14.7455L41.5296 14.6743ZM40.2687 11.3685L40.4553 11.2967L40.4555 11.2972L40.2687 11.3685ZM32.9934 10.5125L32.7934 10.5125L32.7934 10.3125H32.9934V10.5125ZM32.992 19.5522L33.192 19.5523L33.192 19.7522H32.992V19.5522ZM31.5737 19.5522V19.7522H31.3736L31.3737 19.5522L31.5737 19.5522ZM31.5751 9.80337H31.7751V9.8034L31.5751 9.80337ZM41.5934 10.8607L41.78 10.7889L41.7803 10.7895L41.5934 10.8607ZM42.8546 14.1679L42.6678 14.2393L42.6677 14.2392L42.8546 14.1679ZM44.5655 25.6185H41.3934V25.2185H44.5655V25.6185ZM41.3934 25.6185C40.8915 25.6185 40.4842 25.2112 40.4842 24.7093H40.8842C40.8842 24.9903 41.1124 25.2185 41.3934 25.2185V25.6185ZM40.4842 24.7093C40.4842 23.4432 39.4544 22.4134 38.1884 22.4134V22.0134C39.6753 22.0134 40.8842 23.2223 40.8842 24.7093H40.4842ZM38.1884 22.4134C36.9247 22.4134 35.896 23.443 35.896 24.7093H35.496C35.496 23.2226 36.7033 22.0134 38.1884 22.0134V22.4134ZM35.896 24.7093C35.896 25.2112 35.4888 25.6185 34.9869 25.6185V25.2185C35.2678 25.2185 35.496 24.9903 35.496 24.7093H35.896ZM34.9869 25.6185H32.2842V25.2185H34.9869V25.6185ZM32.0842 25.4185V24.0001H32.4842V25.4185H32.0842ZM32.2842 23.8001H34.3419V24.2001H32.2842V23.8001ZM34.1452 23.964C34.4966 22.0498 36.1755 20.5951 38.1884 20.5951V20.9951C36.3725 20.9951 34.8559 22.308 34.5386 24.0363L34.1452 23.964ZM38.1884 20.5951C40.2029 20.5951 41.8833 22.0496 42.2351 23.964L41.8417 24.0363C41.5241 22.3081 40.0061 20.9951 38.1884 20.9951V20.5951ZM42.0384 23.8001H44.5655V24.2001H42.0384V23.8001ZM44.5655 23.8001C44.8385 23.8001 45.0608 23.5778 45.0608 23.3044H45.4608C45.4608 23.7984 45.0597 24.2001 44.5655 24.2001V23.8001ZM45.0608 23.3044V17.1418H45.4608V23.3044H45.0608ZM45.0608 17.1418C45.0608 16.8653 44.8375 16.6422 44.5655 16.6422V16.2422C45.0608 16.2422 45.4608 16.6468 45.4608 17.1418H45.0608ZM44.5655 16.6422H44.0996V16.2422H44.5655V16.6422ZM44.0996 16.6422C42.9547 16.6422 41.7518 15.8146 41.3428 14.7457L41.7163 14.6028C42.0661 15.5168 43.1204 16.2422 44.0996 16.2422V16.6422ZM41.3427 14.7455L40.0818 11.4398L40.4555 11.2972L41.7164 14.603L41.3427 14.7455ZM40.082 11.4403C40.0146 11.2651 39.8556 11.0803 39.6481 10.9376C39.4407 10.7949 39.2114 10.7125 39.0237 10.7125V10.3125C39.3155 10.3125 39.6227 10.4346 39.8748 10.6081C40.127 10.7816 40.3507 11.0248 40.4553 11.2967L40.082 11.4403ZM39.0237 10.7125H32.9934V10.3125H39.0237V10.7125ZM33.1934 10.5126L33.192 19.5523L32.792 19.5522L32.7934 10.5125L33.1934 10.5126ZM32.992 19.7522H31.5737V19.3522H32.992V19.7522ZM31.3737 19.5522L31.3751 9.80334L31.7751 9.8034L31.7737 19.5522L31.3737 19.5522ZM31.3751 9.80337C31.3751 9.301 31.7824 8.89421 32.2842 8.89421V9.29421C32.0032 9.29421 31.7751 9.52206 31.7751 9.80337H31.3751ZM32.2842 8.89421H39.0237V9.29421H32.2842V8.89421ZM39.0237 8.89421C40.1662 8.89421 41.3688 9.72112 41.78 10.7889L41.4067 10.9326C41.0549 10.0189 40.0003 9.29421 39.0237 9.29421V8.89421ZM41.7803 10.7895L43.0415 14.0966L42.6677 14.2392L41.4065 10.932L41.7803 10.7895ZM43.0414 14.0965C43.1085 14.2718 43.2672 14.4565 43.4746 14.599C43.6819 14.7416 43.9114 14.8238 44.0996 14.8238V15.2238C43.8076 15.2238 43.5003 15.1021 43.248 14.9287C42.9957 14.7552 42.772 14.5119 42.6678 14.2393L43.0414 14.0965ZM44.0996 14.8238H44.5655V15.2238H44.0996V14.8238ZM44.5655 14.8238C45.8418 14.8238 46.8791 15.8641 46.8791 17.1418H46.4791C46.4791 16.0842 45.6201 15.2238 44.5655 15.2238V14.8238ZM46.8791 17.1418V23.3044H46.4791V17.1418H46.8791ZM46.8791 23.3044C46.8791 24.5804 45.8415 25.6185 44.5655 25.6185V25.2185C45.6205 25.2185 46.4791 24.3595 46.4791 23.3044H46.8791Z" fill="#1476D2" mask="url(#path-2-outside-1)"/>
<path d="M34.9854 16.6225H34.8854V16.5225V15.1041V15.0041H34.9854H37.9999L36.9333 13.2951L36.8804 13.2103L36.9653 13.1573L38.1687 12.4067L38.2535 12.3538L38.3065 12.4387L40.145 15.3849C40.3007 15.6344 40.3088 15.9488 40.166 16.2058C40.0235 16.4631 39.7524 16.6225 39.4584 16.6225H34.9854Z" fill="#1476D2" stroke="#1476D2" stroke-width="0.2"/>
<path d="M12.4852 22.3143C11.1654 22.3143 10.0915 23.3882 10.0915 24.708C10.0915 26.0278 11.1654 27.1018 12.4852 27.1018C13.8051 27.1018 14.8794 26.0278 14.8794 24.708C14.8794 23.3882 13.8051 22.3143 12.4852 22.3143ZM12.4852 28.7201C10.2727 28.7201 8.47317 26.9205 8.47317 24.708C8.47317 22.4955 10.2728 20.696 12.4852 20.696C14.6977 20.696 16.4977 22.4955 16.4977 24.708C16.4977 26.9205 14.6977 28.7201 12.4852 28.7201Z" fill="#1476D2" stroke="#1476D2" stroke-width="0.2"/>
<path d="M18.8934 22.3143C17.5736 22.3143 16.4996 23.3882 16.4996 24.708C16.4996 26.0278 17.5736 27.1018 18.8934 27.1018C20.2132 27.1018 21.2875 26.0278 21.2875 24.708C21.2875 23.3882 20.2132 22.3143 18.8934 22.3143ZM18.8934 28.7201C16.6809 28.7201 14.8813 26.9205 14.8813 24.708C14.8813 22.4955 16.6809 20.696 18.8934 20.696C21.1059 20.696 22.9058 22.4955 22.9058 24.708C22.9058 26.9205 21.1059 28.7201 18.8934 28.7201Z" fill="#1476D2" stroke="#1476D2" stroke-width="0.2"/>
<path d="M38.1883 22.3136C36.8694 22.3136 35.796 23.3881 35.796 24.7095C35.796 26.0285 36.8692 27.1018 38.1883 27.1018C39.5097 27.1018 40.5842 26.0284 40.5842 24.7095C40.5842 23.3882 39.5096 22.3136 38.1883 22.3136ZM38.1883 28.7201C35.9766 28.7201 34.1777 26.9211 34.1777 24.7095C34.1777 22.496 35.9765 20.6953 38.1883 20.6953C40.4019 20.6953 42.2025 22.4959 42.2025 24.7095C42.2025 26.9212 40.4018 28.7201 38.1883 28.7201Z" fill="#1476D2" stroke="#1476D2" stroke-width="0.2"/>
<path d="M9.38192 25.417V25.517H9.28192H5.9322C5.48555 25.517 5.12304 25.1549 5.12304 24.7078V22.9087L1.12333 18.711L1.12331 18.711C0.980095 18.5605 0.9 18.3603 0.9 18.1528V6.93924C0.9 6.62319 1.08367 6.33634 1.37051 6.20409L1.37054 6.20407L5.9705 4.08546L6.01234 4.17629L5.97051 4.08545C6.07678 4.03652 6.19209 4.01104 6.30912 4.01104H26.3722L28.3761 1.23539C28.5283 1.02458 28.7723 0.89996 29.032 0.89996H32.2828C32.7298 0.89996 33.092 1.26208 33.092 1.70912V7.38247V7.48247H32.992H31.5736H31.4736V7.38247V2.51835H29.4459L27.4423 5.29397C27.4423 5.29397 27.4423 5.29398 27.4423 5.29398C27.2901 5.50486 27.0461 5.62936 26.7861 5.62936H6.48635L2.51832 7.457V17.8291L6.51797 22.0267C6.66169 22.1772 6.74136 22.3772 6.74136 22.5851V23.8987H9.28192H9.38192V23.9987V25.417Z" fill="#1476D2" stroke="#1476D2" stroke-width="0.2"/>
<path d="M8.79713 12.3467V12.4467H8.69713H7.27882H7.17882V12.3467V7.20527V7.10527H7.27882H8.69713H8.79713V7.20527V12.3467Z" fill="#1476D2" stroke="#1476D2" stroke-width="0.2"/>
<path d="M17.8052 12.3467V12.4467H17.7052H16.2868H16.1868V12.3467V7.20527V7.10527H16.2868H17.7052H17.8052V7.20527V12.3467Z" fill="#1476D2" stroke="#1476D2" stroke-width="0.2"/>
<path d="M26.8129 12.3467V12.4467H26.7129H25.2946H25.1946V12.3467V7.20527V7.10527H25.2946H26.7129H26.8129V7.20527V12.3467Z" fill="#1476D2" stroke="#1476D2" stroke-width="0.2"/>
</svg>
