<svg width="36" height="39" viewBox="0 0 36 39" fill="none" xmlns="http://www.w3.org/2000/svg">
<mask id="path-1-outside-1" maskUnits="userSpaceOnUse" x="0" y="0" width="36" height="39" fill="black">
<rect fill="white" width="36" height="39"/>
<path d="M32.0045 7.76504C31.7722 7.77502 31.5925 7.97611 31.601 8.21449L31.6931 10.6375L29.5575 10.7294C29.3252 10.7401 29.1443 10.9418 29.154 11.1802L29.2526 13.6019L27.1105 13.6944C26.8783 13.7044 26.6979 13.9068 26.707 14.1452L26.8056 16.5669L24.6635 16.6595C24.4313 16.6695 24.2502 16.8706 24.26 17.1089L24.3547 19.5359L22.2198 19.6285C21.9875 19.6385 21.8072 19.8403 21.8162 20.0786L21.9149 22.5003L19.7728 22.5935C19.6605 22.5989 19.5555 22.6488 19.4802 22.7334C19.4043 22.8179 19.3641 22.9298 19.3693 23.0443L19.4828 25.725L17.8571 27.6946L17.3959 26.1751C17.3303 25.9621 17.2162 25.767 17.0624 25.6098L11.2738 19.6691L28.271 2.22383L33.601 7.6958L32.0045 7.76504ZM17.4121 30.069L10.7458 36.912C10.4655 37.1983 9.9751 37.2003 9.6942 36.912C9.40422 36.6137 9.40422 36.1296 9.6942 35.832C10.2962 35.2141 10.2962 34.208 9.6942 33.5901L6.26179 30.0664C5.70843 29.4998 4.96566 29.1961 4.20925 29.1961C3.86672 29.1961 3.52161 29.2587 3.19011 29.3865C2.82553 29.529 2.41097 29.4365 2.13527 29.1522C1.94714 28.9597 1.84334 28.7034 1.84334 28.4304C1.84334 28.1574 1.94714 27.9004 2.13527 27.7079L9.66955 19.9754C9.86417 19.7743 10.1853 19.7743 10.3799 19.9754L16.4656 26.2218C16.5233 26.281 16.5668 26.3543 16.5914 26.4328L17.5373 29.5497C17.5931 29.7335 17.5451 29.9325 17.4121 30.069ZM34.8731 7.77703C34.8673 7.77171 28.271 1 28.271 1L10.6245 19.1105C10.1204 18.8528 9.49309 18.9327 9.07272 19.3635L1.53843 27.0954C1.19136 27.4523 1 27.9263 1 28.4304C1 28.9344 1.19136 29.4085 1.53843 29.7648C2.04897 30.2888 2.81514 30.4579 3.48786 30.1969C4.24103 29.9053 5.09605 30.095 5.66498 30.6783L9.09736 34.202C9.2297 34.3378 9.30237 34.5189 9.30237 34.7114C9.30237 34.9031 9.2297 35.0836 9.09736 35.2194C8.47913 35.8546 8.47914 36.888 9.09802 37.5239C9.39774 37.8315 9.79605 38 10.2197 38C10.6446 38 11.0429 37.8315 11.3426 37.5233L18.0083 30.681C18.3638 30.3168 18.4915 29.7854 18.3423 29.2927L18.1542 28.6741L20.2327 26.1552C20.3008 26.072 20.3365 25.9654 20.332 25.8562L20.2301 23.4398L22.3716 23.3473C22.6038 23.3366 22.7842 23.1349 22.7751 22.8965L22.6765 20.4755L24.8114 20.3816C25.0436 20.3723 25.224 20.1712 25.2149 19.9328L25.1195 17.5058L27.2623 17.4132C27.4945 17.4032 27.6755 17.2015 27.6658 16.9631L27.5678 14.5414L29.7093 14.4482C29.9422 14.4389 30.1225 14.2364 30.1128 13.9981L30.0142 11.5764L32.1485 11.4838C32.3807 11.4738 32.5611 11.2727 32.552 11.0344L32.4605 8.612L34.5961 8.51878C34.829 8.50813 35.0094 8.30704 34.9996 8.06734C34.9944 7.95481 34.9451 7.85161 34.8731 7.77703Z"/>
</mask>
<path d="M32.0045 7.76504C31.7722 7.77502 31.5925 7.97611 31.601 8.21449L31.6931 10.6375L29.5575 10.7294C29.3252 10.7401 29.1443 10.9418 29.154 11.1802L29.2526 13.6019L27.1105 13.6944C26.8783 13.7044 26.6979 13.9068 26.707 14.1452L26.8056 16.5669L24.6635 16.6595C24.4313 16.6695 24.2502 16.8706 24.26 17.1089L24.3547 19.5359L22.2198 19.6285C21.9875 19.6385 21.8072 19.8403 21.8162 20.0786L21.9149 22.5003L19.7728 22.5935C19.6605 22.5989 19.5555 22.6488 19.4802 22.7334C19.4043 22.8179 19.3641 22.9298 19.3693 23.0443L19.4828 25.725L17.8571 27.6946L17.3959 26.1751C17.3303 25.9621 17.2162 25.767 17.0624 25.6098L11.2738 19.6691L28.271 2.22383L33.601 7.6958L32.0045 7.76504ZM17.4121 30.069L10.7458 36.912C10.4655 37.1983 9.9751 37.2003 9.6942 36.912C9.40422 36.6137 9.40422 36.1296 9.6942 35.832C10.2962 35.2141 10.2962 34.208 9.6942 33.5901L6.26179 30.0664C5.70843 29.4998 4.96566 29.1961 4.20925 29.1961C3.86672 29.1961 3.52161 29.2587 3.19011 29.3865C2.82553 29.529 2.41097 29.4365 2.13527 29.1522C1.94714 28.9597 1.84334 28.7034 1.84334 28.4304C1.84334 28.1574 1.94714 27.9004 2.13527 27.7079L9.66955 19.9754C9.86417 19.7743 10.1853 19.7743 10.3799 19.9754L16.4656 26.2218C16.5233 26.281 16.5668 26.3543 16.5914 26.4328L17.5373 29.5497C17.5931 29.7335 17.5451 29.9325 17.4121 30.069ZM34.8731 7.77703C34.8673 7.77171 28.271 1 28.271 1L10.6245 19.1105C10.1204 18.8528 9.49309 18.9327 9.07272 19.3635L1.53843 27.0954C1.19136 27.4523 1 27.9263 1 28.4304C1 28.9344 1.19136 29.4085 1.53843 29.7648C2.04897 30.2888 2.81514 30.4579 3.48786 30.1969C4.24103 29.9053 5.09605 30.095 5.66498 30.6783L9.09736 34.202C9.2297 34.3378 9.30237 34.5189 9.30237 34.7114C9.30237 34.9031 9.2297 35.0836 9.09736 35.2194C8.47913 35.8546 8.47914 36.888 9.09802 37.5239C9.39774 37.8315 9.79605 38 10.2197 38C10.6446 38 11.0429 37.8315 11.3426 37.5233L18.0083 30.681C18.3638 30.3168 18.4915 29.7854 18.3423 29.2927L18.1542 28.6741L20.2327 26.1552C20.3008 26.072 20.3365 25.9654 20.332 25.8562L20.2301 23.4398L22.3716 23.3473C22.6038 23.3366 22.7842 23.1349 22.7751 22.8965L22.6765 20.4755L24.8114 20.3816C25.0436 20.3723 25.224 20.1712 25.2149 19.9328L25.1195 17.5058L27.2623 17.4132C27.4945 17.4032 27.6755 17.2015 27.6658 16.9631L27.5678 14.5414L29.7093 14.4482C29.9422 14.4389 30.1225 14.2364 30.1128 13.9981L30.0142 11.5764L32.1485 11.4838C32.3807 11.4738 32.5611 11.2727 32.552 11.0344L32.4605 8.612L34.5961 8.51878C34.829 8.50813 35.0094 8.30704 34.9996 8.06734C34.9944 7.95481 34.9451 7.85161 34.8731 7.77703Z" fill="#1476D2"/>
<path d="M32.0045 7.76504L32.0175 8.06475L32.0174 8.06476L32.0045 7.76504ZM31.601 8.21449L31.3012 8.22588L31.3011 8.22509L31.601 8.21449ZM31.6931 10.6375L31.9928 10.6261L32.0042 10.9244L31.706 10.9372L31.6931 10.6375ZM29.5575 10.7294L29.5437 10.4297L29.5446 10.4297L29.5575 10.7294ZM29.154 11.1802L29.4537 11.168L29.4537 11.168L29.154 11.1802ZM29.2526 13.6019L29.5523 13.5897L29.5645 13.8887L29.2655 13.9016L29.2526 13.6019ZM27.1105 13.6944L27.1234 13.9942L27.1234 13.9942L27.1105 13.6944ZM26.707 14.1452L26.4072 14.1574L26.4072 14.1566L26.707 14.1452ZM26.8056 16.5669L27.1053 16.5547L27.1175 16.8537L26.8185 16.8667L26.8056 16.5669ZM24.6635 16.6595L24.6765 16.9592L24.6764 16.9592L24.6635 16.6595ZM24.26 17.1089L24.5597 17.0967L24.5598 17.0972L24.26 17.1089ZM24.3547 19.5359L24.6545 19.5242L24.6661 19.8227L24.3677 19.8357L24.3547 19.5359ZM22.2198 19.6285L22.2328 19.9282L22.2327 19.9282L22.2198 19.6285ZM21.8162 20.0786L21.5165 20.0908L21.5165 20.09L21.8162 20.0786ZM21.9149 22.5003L22.2146 22.4881L22.2268 22.787L21.9279 22.8L21.9149 22.5003ZM19.7728 22.5935L19.7585 22.2939L19.7597 22.2938L19.7728 22.5935ZM19.4802 22.7334L19.7043 22.9328L19.7035 22.9338L19.4802 22.7334ZM19.3693 23.0443L19.669 23.0307L19.669 23.0316L19.3693 23.0443ZM19.4828 25.725L19.7825 25.7123L19.7874 25.8273L19.7142 25.916L19.4828 25.725ZM17.8571 27.6946L18.0885 27.8856L17.7325 28.3169L17.57 27.7818L17.8571 27.6946ZM17.3959 26.1751L17.6826 26.087L17.6829 26.088L17.3959 26.1751ZM17.0624 25.6098L16.848 25.8196L16.8475 25.8192L17.0624 25.6098ZM11.2738 19.6691L11.059 19.8785L10.855 19.6691L11.059 19.4598L11.2738 19.6691ZM28.271 2.22383L28.0562 2.01447L28.2711 1.7939L28.4859 2.0145L28.271 2.22383ZM33.601 7.6958L33.8159 7.48648L34.2834 7.96649L33.614 7.99552L33.601 7.6958ZM10.7458 36.912L10.9607 37.1213L10.9602 37.1218L10.7458 36.912ZM9.6942 36.912L9.47932 37.1213L9.47909 37.1211L9.6942 36.912ZM9.6942 33.5901L9.47932 33.7994L9.4793 33.7994L9.6942 33.5901ZM6.26179 30.0664L6.47642 29.8568L6.47669 29.8571L6.26179 30.0664ZM3.19011 29.3865L3.0809 29.1071L3.08216 29.1066L3.19011 29.3865ZM2.13527 29.1522L2.34978 28.9425L2.35063 28.9433L2.13527 29.1522ZM2.13527 27.7079L2.35014 27.9173L2.34978 27.9177L2.13527 27.7079ZM9.66955 19.9754L9.88513 20.1841L9.88442 20.1848L9.66955 19.9754ZM10.3799 19.9754L10.165 20.1848L10.1643 20.1841L10.3799 19.9754ZM16.5914 26.4328L16.8777 26.343L16.8785 26.3457L16.5914 26.4328ZM17.5373 29.5497L17.2502 29.6368L17.2502 29.6368L17.5373 29.5497ZM28.271 1L28.0562 0.790638L28.2711 0.570087L28.4859 0.790668L28.271 1ZM10.6245 19.1105L10.8393 19.3198L10.6849 19.4783L10.4879 19.3776L10.6245 19.1105ZM9.07272 19.3635L8.85786 19.1541L8.858 19.154L9.07272 19.3635ZM1.53843 27.0954L1.32336 26.8862L1.32357 26.886L1.53843 27.0954ZM3.48786 30.1969L3.37935 29.9172L3.37953 29.9171L3.48786 30.1969ZM5.66498 30.6783L5.87974 30.4688L5.87988 30.469L5.66498 30.6783ZM9.09736 34.202L8.88248 34.4113L8.88246 34.4113L9.09736 34.202ZM9.09736 35.2194L8.88237 35.0102L8.88248 35.0101L9.09736 35.2194ZM9.09802 37.5239L8.88315 37.7333L8.88304 37.7332L9.09802 37.5239ZM11.3426 37.5233L11.1275 37.3141L11.1277 37.3139L11.3426 37.5233ZM18.0083 30.681L17.7934 30.4716L17.7936 30.4714L18.0083 30.681ZM18.3423 29.2927L18.6294 29.2054L18.6295 29.2057L18.3423 29.2927ZM18.1542 28.6741L17.8672 28.7614L17.8203 28.6073L17.9228 28.4832L18.1542 28.6741ZM20.2327 26.1552L20.4649 26.3452L20.4641 26.3461L20.2327 26.1552ZM20.332 25.8562L20.6317 25.8436L20.6317 25.8438L20.332 25.8562ZM20.2301 23.4398L19.9304 23.4525L19.9178 23.1531L20.2172 23.1401L20.2301 23.4398ZM22.3716 23.3473L22.3853 23.647L22.3845 23.647L22.3716 23.3473ZM22.7751 22.8965L23.0748 22.8843L23.0749 22.8851L22.7751 22.8965ZM22.6765 20.4755L22.3767 20.4877L22.3645 20.1889L22.6633 20.1758L22.6765 20.4755ZM24.8114 20.3816L24.7982 20.0819L24.7994 20.0818L24.8114 20.3816ZM25.2149 19.9328L25.5147 19.921L25.5147 19.9214L25.2149 19.9328ZM25.1195 17.5058L24.8198 17.5176L24.808 17.2189L25.1066 17.2061L25.1195 17.5058ZM27.2623 17.4132L27.2493 17.1135L27.2494 17.1135L27.2623 17.4132ZM27.6658 16.9631L27.366 16.9753L27.366 16.9752L27.6658 16.9631ZM27.5678 14.5414L27.2681 14.5535L27.256 14.2547L27.5548 14.2417L27.5678 14.5414ZM29.7093 14.4482L29.6962 14.1485L29.6973 14.1484L29.7093 14.4482ZM30.1128 13.9981L29.813 14.0103V14.0103L30.1128 13.9981ZM30.0142 11.5764L29.7144 11.5886L29.7022 11.2896L30.0012 11.2766L30.0142 11.5764ZM32.1485 11.4838L32.1355 11.1841L32.1356 11.1841L32.1485 11.4838ZM32.552 11.0344L32.2522 11.0458L32.2522 11.0457L32.552 11.0344ZM32.4605 8.612L32.1607 8.62332L32.1495 8.32529L32.4474 8.31228L32.4605 8.612ZM34.5961 8.51878L34.6098 8.81847L34.6092 8.8185L34.5961 8.51878ZM34.9996 8.06734L35.2993 8.05351L35.2994 8.05517L34.9996 8.06734ZM32.0174 8.06476C31.9583 8.0673 31.8978 8.1215 31.9008 8.20388L31.3011 8.22509C31.2872 7.83072 31.5861 7.48275 31.9916 7.46531L32.0174 8.06476ZM31.9007 8.20309L31.9928 10.6261L31.3933 10.6489L31.3012 8.22588L31.9007 8.20309ZM31.706 10.9372L29.5704 11.0291L29.5446 10.4297L31.6802 10.3378L31.706 10.9372ZM29.5712 11.0291C29.5104 11.0319 29.4505 11.0879 29.4537 11.168L28.8542 11.1924C28.838 10.7957 29.14 10.4482 29.5437 10.4297L29.5712 11.0291ZM29.4537 11.168L29.5523 13.5897L28.9528 13.6141L28.8542 11.1924L29.4537 11.168ZM29.2655 13.9016L27.1234 13.9942L27.0976 13.3947L29.2396 13.3022L29.2655 13.9016ZM27.1234 13.9942C27.0647 13.9967 27.0036 14.0516 27.0068 14.1338L26.4072 14.1566C26.3922 13.7621 26.6918 13.4122 27.0976 13.3947L27.1234 13.9942ZM27.0067 14.133L27.1053 16.5547L26.5058 16.5791L26.4072 14.1574L27.0067 14.133ZM26.8185 16.8667L24.6765 16.9592L24.6506 16.3598L26.7926 16.2672L26.8185 16.8667ZM24.6764 16.9592C24.6159 16.9618 24.5565 17.0171 24.5597 17.0967L23.9602 17.1212C23.944 16.724 24.2466 16.3771 24.6506 16.3598L24.6764 16.9592ZM24.5598 17.0972L24.6545 19.5242L24.055 19.5477L23.9602 17.1206L24.5598 17.0972ZM24.3677 19.8357L22.2328 19.9282L22.2068 19.3288L24.3417 19.2362L24.3677 19.8357ZM22.2327 19.9282C22.1734 19.9308 22.1129 19.9856 22.116 20.0672L21.5165 20.09C21.5014 19.6949 21.8016 19.3462 22.2069 19.3288L22.2327 19.9282ZM22.116 20.0664L22.2146 22.4881L21.6151 22.5125L21.5165 20.0908L22.116 20.0664ZM21.9279 22.8L19.7858 22.8933L19.7597 22.2938L21.9018 22.2006L21.9279 22.8ZM19.787 22.8932C19.7552 22.8947 19.7258 22.9086 19.7043 22.9328L19.2561 22.5339C19.3851 22.389 19.5658 22.303 19.7585 22.2939L19.787 22.8932ZM19.7035 22.9338C19.68 22.9599 19.6673 22.9949 19.669 23.0307L19.0696 23.0579C19.0608 22.8647 19.1286 22.676 19.2569 22.533L19.7035 22.9338ZM19.669 23.0316L19.7825 25.7123L19.1831 25.7377L19.0695 23.057L19.669 23.0316ZM19.7142 25.916L18.0885 27.8856L17.6257 27.5037L19.2514 25.5341L19.7142 25.916ZM17.57 27.7818L17.1088 26.2623L17.6829 26.088L18.1442 27.6075L17.57 27.7818ZM17.1091 26.2633C17.0571 26.0943 16.967 25.9413 16.848 25.8196L17.2768 25.4C17.4653 25.5926 17.6036 25.8299 17.6826 26.087L17.1091 26.2633ZM16.8475 25.8192L11.059 19.8785L11.4887 19.4598L17.2773 25.4005L16.8475 25.8192ZM11.059 19.4598L28.0562 2.01447L28.4859 2.43318L11.4887 19.8785L11.059 19.4598ZM28.4859 2.0145L33.8159 7.48648L33.3861 7.90512L28.0561 2.43315L28.4859 2.0145ZM33.614 7.99552L32.0175 8.06475L31.9915 7.46532L33.588 7.39608L33.614 7.99552ZM17.627 30.2784L10.9607 37.1213L10.5309 36.7027L17.1972 29.8597L17.627 30.2784ZM10.9602 37.1218C10.5631 37.5275 9.87876 37.5313 9.47932 37.1213L9.90908 36.7026C10.0714 36.8693 10.368 36.8691 10.5314 36.7021L10.9602 37.1218ZM9.47909 37.1211C9.07605 36.7065 9.07572 36.0369 9.47932 35.6226L9.90908 36.0413C9.73272 36.2223 9.73239 36.5209 9.90931 36.7029L9.47909 37.1211ZM9.47932 35.6226C9.96784 35.1212 9.96784 34.3008 9.47932 33.7994L9.90908 33.3807C10.6246 34.1151 10.6246 35.3069 9.90908 36.0413L9.47932 35.6226ZM9.4793 33.7994L6.04689 30.2757L6.47669 29.8571L9.90909 33.3807L9.4793 33.7994ZM6.04716 30.276C5.55056 29.7675 4.88531 29.4961 4.20925 29.4961V28.8961C5.04601 28.8961 5.8663 29.232 6.47642 29.8568L6.04716 30.276ZM4.20925 29.4961C3.90336 29.4961 3.59486 29.552 3.29805 29.6665L3.08216 29.1066C3.44835 28.9654 3.83009 28.8961 4.20925 28.8961V29.4961ZM3.29931 29.666C2.82005 29.8533 2.2781 29.7304 1.9199 29.361L2.35063 28.9433C2.54385 29.1426 2.831 29.2048 3.0809 29.1071L3.29931 29.666ZM1.92075 29.3619C1.67703 29.1126 1.54334 28.7806 1.54334 28.4304H2.14334C2.14334 28.6261 2.21724 28.8069 2.34978 28.9425L1.92075 29.3619ZM1.54334 28.4304C1.54334 28.0803 1.67689 27.7477 1.92075 27.4982L2.34978 27.9177C2.21738 28.0531 2.14334 28.2344 2.14334 28.4304H1.54334ZM1.9204 27.4986L9.45469 19.7661L9.88442 20.1848L2.35014 27.9173L1.9204 27.4986ZM9.45398 19.7668C9.7665 19.4439 10.2829 19.4439 10.5955 19.7668L10.1643 20.1841C10.0876 20.1048 9.96184 20.1048 9.88513 20.1841L9.45398 19.7668ZM10.5948 19.7661L16.6804 26.0124L16.2507 26.4311L10.165 20.1848L10.5948 19.7661ZM16.6804 26.0124C16.7713 26.1057 16.8391 26.22 16.8777 26.343L16.3052 26.5226C16.2945 26.4885 16.2753 26.4564 16.2507 26.4311L16.6804 26.0124ZM16.8785 26.3457L17.8243 29.4626L17.2502 29.6368L16.3043 26.52L16.8785 26.3457ZM17.8243 29.4625C17.9116 29.7499 17.837 30.0628 17.627 30.2784L17.1972 29.8597C17.2532 29.8023 17.2745 29.717 17.2502 29.6368L17.8243 29.4625ZM34.6709 7.99865C34.6593 7.98805 32.9966 6.28103 31.355 4.59585C30.5301 3.74905 29.7054 2.90242 29.0869 2.26749C28.7777 1.95003 28.52 1.68549 28.3396 1.50031C28.2494 1.40773 28.1785 1.33498 28.1302 1.28538C28.1061 1.26058 28.0876 1.24157 28.0751 1.22876C28.0688 1.22235 28.0641 1.21749 28.0609 1.21424C28.0593 1.21261 28.0581 1.21138 28.0573 1.21056C28.0569 1.21015 28.0566 1.20984 28.0564 1.20964C28.0563 1.20953 28.0563 1.20946 28.0562 1.20941C28.0562 1.20935 28.0561 1.20933 28.271 1C28.4859 0.790668 28.486 0.790695 28.486 0.790749C28.4861 0.790798 28.4861 0.790878 28.4862 0.790981C28.4864 0.791183 28.4867 0.791492 28.4871 0.791904C28.4879 0.792725 28.4891 0.793949 28.4907 0.795578C28.4939 0.798832 28.4986 0.803688 28.5049 0.810097C28.5173 0.82291 28.5359 0.841923 28.56 0.866722C28.6083 0.916321 28.6792 0.989063 28.7694 1.08165C28.9498 1.26683 29.2074 1.53136 29.5167 1.84883C30.1352 2.48376 30.9599 3.33039 31.7848 4.17719C33.4428 5.87919 35.0811 7.56069 35.0753 7.55541L34.6709 7.99865ZM28.4859 1.20936L10.8393 19.3198L10.4096 18.9011L28.0562 0.790638L28.4859 1.20936ZM10.4879 19.3776C10.096 19.1773 9.61222 19.2402 9.28743 19.573L8.858 19.154C9.37395 18.6252 10.1448 18.5283 10.761 18.8434L10.4879 19.3776ZM9.28757 19.5729L1.75329 27.3047L1.32357 26.886L8.85786 19.1541L9.28757 19.5729ZM1.7535 27.3045C1.46158 27.6047 1.3 28.0035 1.3 28.4304H0.7C0.7 27.8492 0.921142 27.2998 1.32336 26.8862L1.7535 27.3045ZM1.3 28.4304C1.3 28.8574 1.46161 29.256 1.75331 29.5554L1.32355 29.9741C0.921115 29.5611 0.7 29.0115 0.7 28.4304H1.3ZM1.75331 29.5554C2.18116 29.9946 2.82044 30.1341 3.37935 29.9172L3.59638 30.4766C2.80983 30.7818 1.91679 30.583 1.32355 29.9741L1.75331 29.5554ZM3.37953 29.9171C4.24638 29.5815 5.22813 29.8008 5.87974 30.4688L5.45022 30.8878C4.96398 30.3893 4.23569 30.229 3.59619 30.4767L3.37953 29.9171ZM5.87988 30.469L9.31226 33.9927L8.88246 34.4113L5.45009 30.8876L5.87988 30.469ZM9.31224 33.9926C9.50031 34.1857 9.60237 34.4424 9.60237 34.7114H9.00237C9.00237 34.5955 8.95909 34.49 8.88248 34.4113L9.31224 33.9926ZM9.60237 34.7114C9.60237 34.9801 9.5 35.236 9.31224 35.4288L8.88248 35.0101C8.9594 34.9311 9.00237 34.8261 9.00237 34.7114H9.60237ZM9.31235 35.4286C8.80754 35.9473 8.8074 36.7952 9.31301 37.3147L8.88304 37.7332C8.15088 36.9809 8.15071 35.7619 8.88237 35.0102L9.31235 35.4286ZM9.3129 37.3146C9.5567 37.5648 9.87777 37.7 10.2197 37.7V38.3C9.71433 38.3 9.23877 38.0983 8.88315 37.7333L9.3129 37.3146ZM10.2197 37.7C10.563 37.7 10.8839 37.5648 11.1275 37.3141L11.5577 37.7324C11.2019 38.0983 10.7262 38.3 10.2197 38.3V37.7ZM11.1277 37.3139L17.7934 30.4716L18.2231 30.8903L11.5575 37.7326L11.1277 37.3139ZM17.7936 30.4714C18.0716 30.1866 18.1732 29.7693 18.0552 29.3796L18.6295 29.2057C18.8099 29.8015 18.6559 30.4469 18.2229 30.8905L17.7936 30.4714ZM18.0553 29.38L17.8672 28.7614L18.4412 28.5868L18.6294 29.2054L18.0553 29.38ZM17.9228 28.4832L20.0013 25.9642L20.4641 26.3461L18.3856 28.865L17.9228 28.4832ZM20.0006 25.9652C20.0218 25.9392 20.0337 25.9048 20.0322 25.8687L20.6317 25.8438C20.6393 26.026 20.5799 26.2047 20.4649 26.3452L20.0006 25.9652ZM20.0322 25.8689L19.9304 23.4525L20.5299 23.4272L20.6317 25.8436L20.0322 25.8689ZM20.2172 23.1401L22.3586 23.0476L22.3845 23.647L20.2431 23.7396L20.2172 23.1401ZM22.3578 23.0476C22.4179 23.0448 22.4784 22.9893 22.4753 22.9079L23.0749 22.8851C23.0899 23.2804 22.7897 23.6284 22.3853 23.647L22.3578 23.0476ZM22.4753 22.9087L22.3767 20.4877L22.9762 20.4633L23.0748 22.8843L22.4753 22.9087ZM22.6633 20.1758L24.7982 20.0819L24.8246 20.6813L22.6896 20.7752L22.6633 20.1758ZM24.7994 20.0818C24.8583 20.0795 24.9182 20.0254 24.9151 19.9442L25.5147 19.9214C25.5298 20.3169 25.229 20.6651 24.8234 20.6813L24.7994 20.0818ZM24.9151 19.9446L24.8198 17.5176L25.4193 17.494L25.5147 19.921L24.9151 19.9446ZM25.1066 17.2061L27.2493 17.1135L27.2752 17.7129L25.1325 17.8055L25.1066 17.2061ZM27.2494 17.1135C27.3093 17.1109 27.3693 17.0556 27.366 16.9753L27.9655 16.9509C27.9817 17.3474 27.6798 17.6955 27.2752 17.7129L27.2494 17.1135ZM27.366 16.9752L27.2681 14.5535L27.8676 14.5293L27.9655 16.951L27.366 16.9752ZM27.5548 14.2417L29.6962 14.1485L29.7223 14.7479L27.5809 14.8411L27.5548 14.2417ZM29.6973 14.1484C29.7561 14.1461 29.8164 14.0916 29.813 14.0103L30.4125 13.9858C30.4287 14.3813 30.1283 14.7317 29.7213 14.7479L29.6973 14.1484ZM29.813 14.0103L29.7144 11.5886L30.3139 11.5642L30.4125 13.9859L29.813 14.0103ZM30.0012 11.2766L32.1355 11.1841L32.1615 11.7835L30.0272 11.8761L30.0012 11.2766ZM32.1356 11.1841C32.1954 11.1815 32.2553 11.1268 32.2522 11.0458L32.8518 11.0229C32.8668 11.4187 32.5661 11.7661 32.1614 11.7835L32.1356 11.1841ZM32.2522 11.0457L32.1607 8.62332L32.7603 8.60067L32.8518 11.023L32.2522 11.0457ZM32.4474 8.31228L34.583 8.21907L34.6092 8.8185L32.4736 8.91171L32.4474 8.31228ZM34.5824 8.2191C34.6435 8.2163 34.7032 8.16126 34.6999 8.0795L35.2994 8.05517C35.3155 8.45283 35.0145 8.79996 34.6098 8.81847L34.5824 8.2191ZM34.6999 8.08116C34.6984 8.04708 34.6826 8.01164 34.6573 7.98542L35.0889 7.56865C35.2076 7.69158 35.2905 7.86254 35.2993 8.05351L34.6999 8.08116Z" fill="#1476D2" mask="url(#path-1-outside-1)"/>
</svg>
