<svg width="37" height="37" viewBox="0 0 37 37" fill="none" xmlns="http://www.w3.org/2000/svg">
<path d="M11.8016 15.1539C11.3846 15.1542 10.9714 15.075 10.5847 14.9205C9.87828 14.6418 9.29122 14.1293 8.92344 13.4703C8.55565 12.8112 8.42987 12.0464 8.56751 11.3058C8.70514 10.5653 9.09767 9.89488 9.67831 9.40867C10.2589 8.92245 10.9918 8.65048 11.7521 8.63905C12.5125 8.62762 13.2533 8.87743 13.8486 9.34596C14.4439 9.8145 14.8568 10.4728 15.0171 11.2089C15.1774 11.9449 15.0751 12.7132 14.7277 13.383C14.3803 14.0528 13.8092 14.5827 13.1117 14.8825C12.6981 15.06 12.2524 15.1524 11.8016 15.1539ZM11.8016 10.0465C11.5487 10.0461 11.2986 10.0978 11.0671 10.1985C10.8429 10.2936 10.6399 10.4316 10.4697 10.6047C10.2996 10.7777 10.1656 10.9822 10.0754 11.2066C9.98527 11.431 9.94077 11.6708 9.94444 11.9123C9.94812 12.1538 9.99991 12.3922 10.0968 12.6138C10.2175 12.8921 10.4056 13.1367 10.6446 13.3257C10.8836 13.5148 11.1661 13.6425 11.4669 13.6976C11.7677 13.7526 12.0776 13.7332 12.3691 13.6412C12.6605 13.5492 12.9245 13.3873 13.1376 13.17C13.3507 12.9527 13.5064 12.6867 13.5907 12.3955C13.675 12.1043 13.6855 11.7971 13.6211 11.5009C13.5567 11.2048 13.4195 10.929 13.2216 10.698C13.0237 10.467 12.7713 10.288 12.4868 10.1768C12.2687 10.0909 12.0362 10.0467 11.8016 10.0465Z" fill="#1476D2"/>
<path d="M9.40069 11.6749C9.23316 11.673 9.07108 11.6157 8.94024 11.5121C8.39234 11.0415 7.956 10.457 7.66229 9.80026C7.36858 9.14356 7.22473 8.43081 7.24099 7.71278C7.2673 6.9258 7.4751 6.15521 7.84848 5.45999C8.22187 4.76477 8.75094 4.16336 9.39521 3.70177C10.0783 3.17348 10.9043 2.8575 11.7687 2.79374C12.6331 2.72998 13.4972 2.92131 14.2518 3.34355C14.6137 3.5174 14.9193 3.78785 15.1343 4.12445C15.3493 4.46104 15.4651 4.85039 15.4687 5.24864C15.4765 5.64459 15.3716 6.03471 15.1661 6.37447C14.9606 6.71422 14.6628 6.9899 14.3066 7.17002L13.9119 7.38169C13.5636 7.51828 13.2794 7.77883 13.1151 8.11222C12.9509 8.4456 12.9183 8.82775 13.0239 9.18366C13.0589 9.30246 13.0626 9.42811 13.0348 9.54873C13.0069 9.66934 12.9485 9.78094 12.865 9.87297C12.7807 9.96472 12.6736 10.033 12.5543 10.0711C12.4351 10.1092 12.3079 10.1157 12.1853 10.0901C11.7554 9.99878 11.3067 10.0623 10.9199 10.2692C10.533 10.4762 10.2334 10.8129 10.0749 11.219C10.0326 11.3245 9.96594 11.4187 9.88028 11.4941C9.79461 11.5695 9.69232 11.624 9.58158 11.6532C9.52206 11.6658 9.46152 11.6731 9.40069 11.6749ZM12.0208 4.22282C11.3849 4.22767 10.7697 4.44794 10.2777 4.847C9.8023 5.17377 9.41051 5.60596 9.13358 6.10915C8.85664 6.61234 8.70222 7.17262 8.68261 7.74534C8.67572 8.46454 8.88566 9.16943 9.28558 9.76984C9.84646 9.11404 10.6464 8.70434 11.5111 8.63004C11.5419 8.09978 11.7158 7.58742 12.0147 7.14637C12.3135 6.70532 12.7264 6.35174 13.2103 6.12249L13.6324 5.90538C13.751 5.84528 13.8505 5.75393 13.92 5.64141C13.9895 5.52888 14.0262 5.39954 14.0262 5.26764C14.0262 5.13574 13.9895 5.0064 13.92 4.89387C13.8505 4.78134 13.751 4.69 13.6324 4.62989C13.1333 4.37505 12.5822 4.23585 12.0208 4.22282Z" fill="#1476D2"/>
<path d="M17.2229 18.1714C16.9127 18.17 16.6063 18.1034 16.324 17.976C15.9595 17.8152 15.6478 17.5567 15.424 17.2296C15.2002 16.9025 15.0734 16.52 15.0578 16.1252C15.0578 15.9841 15.0578 15.8375 15.0578 15.6801C15.082 15.3044 14.9613 14.9336 14.7202 14.6425C14.4791 14.3514 14.1355 14.1616 13.7586 14.1115C13.6341 14.0941 13.5163 14.0447 13.4169 13.9684C13.3175 13.8921 13.2399 13.7915 13.1917 13.6764C13.1436 13.5613 13.1265 13.4358 13.1423 13.3122C13.1581 13.1887 13.2062 13.0713 13.2818 12.9717C13.5124 12.6749 13.6445 12.3147 13.66 11.9405C13.6687 11.6977 13.6286 11.4556 13.542 11.2282C13.4554 11.0009 13.3241 10.7928 13.1557 10.6162C13.0758 10.535 13.0166 10.4361 12.9831 10.3278C12.9496 10.2194 12.9428 10.1046 12.9631 9.99311C12.9835 9.88157 13.0305 9.77648 13.1003 9.6866C13.17 9.59671 13.2604 9.52463 13.364 9.47637C14.0238 9.18402 14.7404 9.03881 15.4631 9.051C16.1858 9.06319 16.897 9.2325 17.5464 9.54693C18.2524 9.90542 18.8663 10.4189 19.3413 11.0482C19.8163 11.6775 20.1398 12.406 20.2871 13.178C20.483 14.0135 20.4246 14.8878 20.1193 15.6905C19.8139 16.4932 19.2753 17.1884 18.5714 17.6883C18.1917 17.9987 17.7153 18.1693 17.2229 18.1714ZM14.8988 13.026C15.3707 13.2791 15.7655 13.6527 16.0421 14.108C16.3188 14.5633 16.4672 15.0837 16.472 15.615C16.472 15.7778 16.472 15.9352 16.4994 16.0872C16.5076 16.218 16.552 16.344 16.6275 16.4516C16.7031 16.5592 16.807 16.6441 16.928 16.6973C17.0489 16.7505 17.1823 16.7698 17.3135 16.7531C17.4448 16.7365 17.5689 16.6845 17.6724 16.6028C18.7687 15.7235 19.1634 14.714 18.8893 13.5145C18.7919 12.9484 18.5615 12.4128 18.2169 11.9509C17.8722 11.4889 17.4229 11.1136 16.905 10.855C16.2529 10.5376 15.52 10.4204 14.8001 10.5185C15.0156 10.9748 15.1189 11.4751 15.1016 11.9785C15.095 12.3366 15.0264 12.6909 14.8988 13.026Z" fill="#1476D2"/>
<path d="M8.33746 19.1053C7.89667 19.104 7.45735 19.0549 7.02738 18.9588C6.17958 18.7816 5.4038 18.3596 4.79797 17.7462C4.19214 17.1328 3.78341 16.3555 3.62338 15.5123C3.54055 15.1305 3.56322 14.7337 3.689 14.3637C3.81478 13.9936 4.03901 13.664 4.33808 13.4096C4.63715 13.1551 4.99999 12.9852 5.38839 12.9178C5.77678 12.8504 6.17635 12.8879 6.54501 13.0264L6.96161 13.1947C7.29155 13.3708 7.67595 13.419 8.0398 13.3297C8.40365 13.2403 8.72083 13.02 8.92946 12.7116C8.99742 12.607 9.0919 12.5219 9.20348 12.4647C9.31505 12.4076 9.43982 12.3804 9.56531 12.386C9.69043 12.3922 9.81178 12.4305 9.91747 12.4971C10.0232 12.5637 10.1096 12.6563 10.1683 12.7659C10.3742 13.1507 10.712 13.4501 11.121 13.6102C11.5299 13.7704 11.9832 13.7809 12.3992 13.6397C12.5071 13.6039 12.622 13.5937 12.7346 13.6101C12.8472 13.6264 12.9543 13.6688 13.0472 13.7339C13.1401 13.7989 13.2163 13.8847 13.2694 13.9844C13.3225 14.084 13.3512 14.1947 13.353 14.3073C13.3437 14.9498 13.2065 15.5841 12.9493 16.1739C12.6921 16.7638 12.3199 17.2976 11.854 17.7448C11.3881 18.192 10.8376 18.5438 10.2342 18.7801C9.63081 19.0163 8.98625 19.1324 8.33746 19.1216V19.1053ZM5.02116 15.1649C5.3665 16.5164 6.11746 17.3034 7.33435 17.5639C8.24729 17.8264 9.22805 17.7202 10.0621 17.2686C10.8962 16.817 11.5158 16.0567 11.7853 15.154C10.9137 15.149 10.0797 14.8015 9.46664 14.1879C9.03695 14.5058 8.52874 14.7033 7.99537 14.7597C7.462 14.816 6.92314 14.7292 6.43538 14.5082L5.99138 14.3345C5.87035 14.2822 5.73663 14.2656 5.60632 14.2868C5.47601 14.308 5.35466 14.366 5.25687 14.4539C5.15368 14.5382 5.07675 14.6497 5.03503 14.7756C4.99331 14.9014 4.9885 15.0364 5.02116 15.1649Z" fill="#1476D2"/>
<path d="M17.6997 23.507H3.28889C2.41662 23.507 1.58008 23.1639 0.963293 22.5531C0.346507 21.9424 0 21.1141 0 20.2504L0 3.25656C0 2.39287 0.346507 1.56455 0.963293 0.953826C1.58008 0.343101 2.41662 0 3.28889 0L33.7056 0C34.1375 0 34.5652 0.0842335 34.9642 0.247891C35.3633 0.411549 35.7258 0.651426 36.0312 0.953826C36.3366 1.25623 36.5789 1.61523 36.7442 2.01033C36.9095 2.40544 36.9945 2.82891 36.9945 3.25656V20.2395C36.9962 20.7424 36.8803 21.2388 36.6559 21.6898C36.4315 22.1409 36.1046 22.5343 35.7009 22.8394C35.6279 22.9111 35.5402 22.9666 35.4438 23.0022C35.3474 23.0377 35.2445 23.0525 35.1419 23.0456C35.0392 23.0386 34.9393 23.0101 34.8487 22.9619C34.7581 22.9136 34.6789 22.8468 34.6164 22.7659C34.5539 22.685 34.5096 22.5918 34.4864 22.4926C34.4631 22.3934 34.4616 22.2904 34.4817 22.1905C34.5019 22.0906 34.5433 21.9961 34.6032 21.9133C34.6632 21.8305 34.7403 21.7614 34.8293 21.7104C35.0566 21.5382 35.2407 21.3164 35.3671 21.0622C35.4936 20.808 35.559 20.5283 35.5584 20.245V3.25656C35.5584 2.76952 35.3634 2.30234 35.0161 1.95743C34.6688 1.61253 34.1975 1.41804 33.7056 1.41661H3.28889C2.79796 1.41947 2.32813 1.61459 1.98201 1.95934C1.63589 2.30409 1.44162 2.77045 1.44163 3.25656V20.2395C1.44162 20.7257 1.63589 21.192 1.98201 21.5368C2.32813 21.8815 2.79796 22.0766 3.28889 22.0795H17.6997C17.7996 22.0709 17.9003 22.0829 17.9953 22.1148C18.0903 22.1468 18.1775 22.198 18.2515 22.2651C18.3255 22.3322 18.3845 22.4138 18.4249 22.5047C18.4653 22.5956 18.4862 22.6939 18.4862 22.7932C18.4862 22.8926 18.4653 22.9908 18.4249 23.0817C18.3845 23.1727 18.3255 23.2543 18.2515 23.3214C18.1775 23.3885 18.0903 23.4397 17.9953 23.4716C17.9003 23.5036 17.7996 23.5156 17.6997 23.507Z" fill="#1476D2"/>
<path d="M32.2311 6.1116H23.214C23.0221 6.1116 22.8381 6.03612 22.7024 5.90176C22.5667 5.7674 22.4905 5.58517 22.4905 5.39516C22.4905 5.20514 22.5667 5.02291 22.7024 4.88855C22.8381 4.75419 23.0221 4.67871 23.214 4.67871H32.2311C32.423 4.67871 32.607 4.75419 32.7427 4.88855C32.8784 5.02291 32.9546 5.20514 32.9546 5.39516C32.9546 5.58517 32.8784 5.7674 32.7427 5.90176C32.607 6.03612 32.423 6.1116 32.2311 6.1116Z" fill="#1476D2"/>
<path d="M32.2311 10.3504H23.7951C23.6032 10.3504 23.4192 10.2749 23.2835 10.1405C23.1478 10.0062 23.0715 9.82394 23.0715 9.63392C23.0715 9.44391 23.1478 9.26168 23.2835 9.12732C23.4192 8.99296 23.6032 8.91748 23.7951 8.91748H32.2311C32.423 8.91748 32.607 8.99296 32.7427 9.12732C32.8784 9.26168 32.9546 9.44391 32.9546 9.63392C32.9546 9.82394 32.8784 10.0062 32.7427 10.1405C32.607 10.2749 32.423 10.3504 32.2311 10.3504Z" fill="#1476D2"/>
<path d="M32.2313 14.5894H23.7953C23.6953 14.598 23.5947 14.586 23.4997 14.554C23.4047 14.5221 23.3174 14.4709 23.2435 14.4038C23.1695 14.3367 23.1105 14.2551 23.0701 14.1641C23.0297 14.0732 23.0088 13.975 23.0088 13.8756C23.0088 13.7763 23.0297 13.678 23.0701 13.5871C23.1105 13.4962 23.1695 13.4146 23.2435 13.3475C23.3174 13.2803 23.4047 13.2292 23.4997 13.1972C23.5947 13.1653 23.6953 13.1533 23.7953 13.1619H32.2313C32.3312 13.1533 32.4319 13.1653 32.5269 13.1972C32.6219 13.2292 32.7091 13.2803 32.7831 13.3475C32.857 13.4146 32.9161 13.4962 32.9565 13.5871C32.9969 13.678 33.0177 13.7763 33.0177 13.8756C33.0177 13.975 32.9969 14.0732 32.9565 14.1641C32.9161 14.2551 32.857 14.3367 32.7831 14.4038C32.7091 14.4709 32.6219 14.5221 32.5269 14.554C32.4319 14.586 32.3312 14.598 32.2313 14.5894Z" fill="#1476D2"/>
<path d="M31.4033 36.9997H21.9587C21.3772 36.9997 20.8195 36.771 20.4083 36.3639C19.9971 35.9567 19.7661 35.4045 19.7661 34.8287V20.0819C19.7733 19.5108 20.0075 18.9655 20.4179 18.5642C20.8283 18.163 21.3819 17.9379 21.9587 17.938H31.4033C31.9801 17.9379 32.5337 18.163 32.9441 18.5642C33.3545 18.9655 33.5887 19.5108 33.5959 20.0819V34.8558C33.5887 35.4269 33.3545 35.9722 32.9441 36.3735C32.5337 36.7748 31.9801 36.9998 31.4033 36.9997ZM21.9587 19.3709C21.7678 19.3709 21.5845 19.4456 21.449 19.5788C21.3135 19.712 21.2366 19.8928 21.2352 20.0819V34.8558C21.2352 35.0459 21.3114 35.2281 21.4471 35.3624C21.5828 35.4968 21.7668 35.5723 21.9587 35.5723H31.4033C31.5952 35.5723 31.7792 35.4968 31.9149 35.3624C32.0506 35.2281 32.1269 35.0459 32.1269 34.8558V20.0819C32.1269 19.8919 32.0506 19.7097 31.9149 19.5753C31.7792 19.4409 31.5952 19.3654 31.4033 19.3654L21.9587 19.3709Z" fill="#1476D2"/>
<path d="M26.6838 23.1163C26.4919 23.1163 26.3079 23.0408 26.1722 22.9064C26.0365 22.7721 25.9603 22.5898 25.9603 22.3998V21.1352C25.9515 21.0362 25.9637 20.9366 25.996 20.8425C26.0282 20.7484 26.0799 20.662 26.1477 20.5888C26.2154 20.5156 26.2979 20.4571 26.3897 20.4171C26.4815 20.3771 26.5808 20.3564 26.6811 20.3564C26.7814 20.3564 26.8806 20.3771 26.9725 20.4171C27.0643 20.4571 27.1467 20.5156 27.2145 20.5888C27.2823 20.662 27.3339 20.7484 27.3662 20.8425C27.3985 20.9366 27.4106 21.0362 27.4019 21.1352V22.3998C27.4019 22.5889 27.3264 22.7703 27.1919 22.9045C27.0574 23.0387 26.8748 23.1148 26.6838 23.1163Z" fill="#1476D2"/>
<path d="M30.1482 25.2871H28.8765C28.6961 25.2715 28.5283 25.1896 28.406 25.0575C28.2837 24.9253 28.2158 24.7526 28.2158 24.5734C28.2158 24.3942 28.2837 24.2214 28.406 24.0893C28.5283 23.9572 28.6961 23.8752 28.8765 23.8596H30.1482C30.2481 23.851 30.3488 23.863 30.4438 23.895C30.5388 23.9269 30.626 23.9781 30.7 24.0452C30.7739 24.1123 30.833 24.1939 30.8734 24.2849C30.9138 24.3758 30.9346 24.474 30.9346 24.5734C30.9346 24.6727 30.9138 24.771 30.8734 24.8619C30.833 24.9528 30.7739 25.0344 30.7 25.1015C30.626 25.1687 30.5388 25.2198 30.4438 25.2518C30.3488 25.2837 30.2481 25.2957 30.1482 25.2871Z" fill="#1476D2"/>
<path d="M24.4858 25.2871H23.2086C23.1087 25.2957 23.008 25.2837 22.913 25.2518C22.818 25.2198 22.7308 25.1687 22.6568 25.1015C22.5828 25.0344 22.5238 24.9528 22.4834 24.8619C22.443 24.771 22.4221 24.6727 22.4221 24.5734C22.4221 24.474 22.443 24.3758 22.4834 24.2849C22.5238 24.1939 22.5828 24.1123 22.6568 24.0452C22.7308 23.9781 22.818 23.9269 22.913 23.895C23.008 23.863 23.1087 23.851 23.2086 23.8596H24.4858C24.5857 23.851 24.6864 23.863 24.7814 23.895C24.8764 23.9269 24.9636 23.9781 25.0376 24.0452C25.1115 24.1123 25.1706 24.1939 25.211 24.2849C25.2514 24.3758 25.2723 24.474 25.2723 24.5734C25.2723 24.6727 25.2514 24.771 25.211 24.8619C25.1706 24.9528 25.1115 25.0344 25.0376 25.1015C24.9636 25.1687 24.8764 25.2198 24.7814 25.2518C24.6864 25.2837 24.5857 25.2957 24.4858 25.2871Z" fill="#1476D2"/>
<path d="M26.6838 28.7282C25.8529 28.7293 25.0403 28.4862 24.349 28.0298C23.6577 27.5733 23.1186 26.9241 22.8002 26.1642C22.4817 25.4043 22.3981 24.5679 22.5599 23.7609C22.7217 22.9539 23.1218 22.2126 23.7093 21.6308C24.2968 21.049 25.0455 20.653 25.8605 20.4927C26.6755 20.3325 27.5202 20.4153 28.2877 20.7306C29.0551 21.0459 29.7108 21.5797 30.1718 22.2642C30.6327 22.9487 30.8782 23.7533 30.8771 24.5761C30.8757 25.6768 30.4334 26.7321 29.6473 27.5105C28.8612 28.2888 27.7955 28.7267 26.6838 28.7282ZM26.6838 21.8514C26.1417 21.8514 25.6118 22.0106 25.1611 22.3088C24.7104 22.607 24.3591 23.0308 24.1517 23.5267C23.9442 24.0226 23.89 24.5682 23.9957 25.0946C24.1015 25.6211 24.3625 26.1046 24.7458 26.4842C25.1291 26.8637 25.6174 27.1221 26.1491 27.2269C26.6807 27.3316 27.2318 27.2778 27.7326 27.0724C28.2334 26.867 28.6615 26.5192 28.9626 26.0729C29.2638 25.6266 29.4245 25.1019 29.4245 24.5652C29.4245 23.8455 29.1358 23.1552 28.6218 22.6463C28.1078 22.1373 27.4107 21.8514 26.6838 21.8514Z" fill="#1476D2"/>
<path d="M30.1481 31.48H28.2131C28.0328 31.4644 27.8649 31.3825 27.7426 31.2503C27.6203 31.1182 27.5525 30.9455 27.5525 30.7662C27.5525 30.587 27.6203 30.4143 27.7426 30.2822C27.8649 30.15 28.0328 30.0681 28.2131 30.0525H30.1481C30.248 30.0439 30.3487 30.0559 30.4437 30.0879C30.5387 30.1198 30.6259 30.171 30.6999 30.2381C30.7738 30.3052 30.8329 30.3868 30.8733 30.4777C30.9137 30.5687 30.9346 30.6669 30.9346 30.7662C30.9346 30.8656 30.9137 30.9638 30.8733 31.0548C30.8329 31.1457 30.7738 31.2273 30.6999 31.2944C30.6259 31.3615 30.5387 31.4127 30.4437 31.4446C30.3487 31.4766 30.248 31.4886 30.1481 31.48Z" fill="#1476D2"/>
<path d="M30.1481 34.3189H28.2131C28.0328 34.3033 27.8649 34.2213 27.7426 34.0892C27.6203 33.9571 27.5525 33.7843 27.5525 33.6051C27.5525 33.4259 27.6203 33.2532 27.7426 33.121C27.8649 32.9889 28.0328 32.907 28.2131 32.8914H30.1481C30.248 32.8827 30.3487 32.8948 30.4437 32.9267C30.5387 32.9587 30.6259 33.0098 30.6999 33.0769C30.7738 33.1441 30.8329 33.2257 30.8733 33.3166C30.9137 33.4075 30.9346 33.5058 30.9346 33.6051C30.9346 33.7045 30.9137 33.8027 30.8733 33.8936C30.8329 33.9846 30.7738 34.0662 30.6999 34.1333C30.6259 34.2004 30.5387 34.2516 30.4437 34.2835C30.3487 34.3155 30.248 34.3275 30.1481 34.3189Z" fill="#1476D2"/>
<path d="M25.149 31.48H23.2086C23.1087 31.4886 23.008 31.4766 22.913 31.4446C22.818 31.4127 22.7308 31.3615 22.6568 31.2944C22.5828 31.2273 22.5238 31.1457 22.4834 31.0548C22.443 30.9638 22.4221 30.8656 22.4221 30.7662C22.4221 30.6669 22.443 30.5687 22.4834 30.4777C22.5238 30.3868 22.5828 30.3052 22.6568 30.2381C22.7308 30.171 22.818 30.1198 22.913 30.0879C23.008 30.0559 23.1087 30.0439 23.2086 30.0525H25.149C25.249 30.0439 25.3496 30.0559 25.4446 30.0879C25.5396 30.1198 25.6269 30.171 25.7008 30.2381C25.7748 30.3052 25.8339 30.3868 25.8743 30.4777C25.9146 30.5687 25.9355 30.6669 25.9355 30.7662C25.9355 30.8656 25.9146 30.9638 25.8743 31.0548C25.8339 31.1457 25.7748 31.2273 25.7008 31.2944C25.6269 31.3615 25.5396 31.4127 25.4446 31.4446C25.3496 31.4766 25.249 31.4886 25.149 31.48Z" fill="#1476D2"/>
<path d="M25.149 34.3189H23.2086C23.1087 34.3275 23.008 34.3155 22.913 34.2835C22.818 34.2516 22.7308 34.2004 22.6568 34.1333C22.5828 34.0662 22.5238 33.9846 22.4834 33.8936C22.443 33.8027 22.4221 33.7045 22.4221 33.6051C22.4221 33.5058 22.443 33.4075 22.4834 33.3166C22.5238 33.2257 22.5828 33.1441 22.6568 33.0769C22.7308 33.0098 22.818 32.9587 22.913 32.9267C23.008 32.8948 23.1087 32.8827 23.2086 32.8914H25.149C25.249 32.8827 25.3496 32.8948 25.4446 32.9267C25.5396 32.9587 25.6269 33.0098 25.7008 33.0769C25.7748 33.1441 25.8339 33.2257 25.8743 33.3166C25.9146 33.4075 25.9355 33.5058 25.9355 33.6051C25.9355 33.7045 25.9146 33.8027 25.8743 33.8936C25.8339 33.9846 25.7748 34.0662 25.7008 34.1333C25.6269 34.2004 25.5396 34.2516 25.4446 34.2835C25.3496 34.3155 25.249 34.3275 25.149 34.3189Z" fill="#1476D2"/>
<path d="M35.2075 37.0002H7.35058C7.17026 36.9846 7.00238 36.9027 6.88008 36.7706C6.75778 36.6384 6.68994 36.4657 6.68994 36.2865C6.68994 36.1073 6.75778 35.9345 6.88008 35.8024C7.00238 35.6703 7.17026 35.5883 7.35058 35.5728H35.2075C35.3878 35.5883 35.5557 35.6703 35.678 35.8024C35.8003 35.9345 35.8681 36.1073 35.8681 36.2865C35.8681 36.4657 35.8003 36.6384 35.678 36.7706C35.5557 36.9027 35.3878 36.9846 35.2075 37.0002Z" fill="#1476D2"/>
</svg>
