<svg width="39" height="37" viewBox="0 0 39 37" fill="none" xmlns="http://www.w3.org/2000/svg">
<path d="M7.07618 35.3048C9.12527 35.5205 11.1631 34.7018 12.5135 33.0503C13.7814 31.5001 14.2044 29.3995 13.6464 27.432C13.5704 27.1675 13.6445 26.8843 13.8386 26.6902L26.6874 13.8414C26.8824 13.6463 27.1675 13.5723 27.432 13.6492C29.6011 14.2719 31.9372 13.6726 33.5258 12.083C34.8631 10.7457 35.4952 8.91048 35.3039 7.07708L34.7149 7.66508C33.191 9.189 30.7124 9.189 29.1894 7.66508C27.6655 6.14116 27.6655 3.66164 29.1894 2.13772L29.7774 1.54972C27.7283 1.33496 25.6896 2.15179 24.3401 3.80418C23.1781 5.22495 22.7224 7.09677 23.0909 8.94047C23.1406 9.18899 23.0628 9.44501 22.8837 9.62413L9.62511 22.8837C9.44412 23.0628 9.18715 23.1406 8.93864 23.0909C6.89049 22.6755 4.79359 23.3038 3.32781 24.7714C1.98958 26.1078 1.35748 27.944 1.54879 29.7783L2.13773 29.1894C3.66071 27.6664 6.14027 27.6664 7.66419 29.1894C9.1881 30.7133 9.1881 33.1928 7.66419 34.7168L7.07618 35.3048ZM7.72607 36.854C6.92707 36.854 6.11774 36.7293 5.32436 36.4723C5.07303 36.3907 4.88267 36.1853 4.82078 35.9293C4.75982 35.6724 4.83577 35.4032 5.02146 35.2166L6.59321 33.6449C7.52631 32.7118 7.52631 31.1935 6.59321 30.2604C5.6601 29.3282 4.14182 29.3282 3.20871 30.2604L1.63696 31.8312C1.45128 32.0178 1.18025 32.0937 0.924228 32.0328C0.66821 31.9709 0.462828 31.7805 0.38124 31.5301C-0.518107 28.7561 0.200244 25.7561 2.25589 23.6995C3.98613 21.9712 6.41879 21.1787 8.83174 21.5341L14.3901 15.9758L21.5361 8.82982C21.2191 6.67383 21.8033 4.51314 23.1678 2.8448C25.1991 0.360573 28.4805 -0.606297 31.5292 0.382141C31.7806 0.46373 31.9709 0.670048 32.0319 0.925129C32.0938 1.18209 32.0169 1.45218 31.8312 1.63786L30.2595 3.20867C29.3263 4.14272 29.3263 5.66102 30.2595 6.59413C31.1935 7.5263 32.7118 7.5263 33.6449 6.59413L35.2166 5.02238C35.4023 4.8367 35.6705 4.75978 35.9284 4.82168C36.1845 4.88357 36.3908 5.07396 36.4714 5.32435C37.3708 8.09835 36.6524 11.0993 34.5968 13.154C32.7249 15.0268 30.0241 15.7967 27.4526 15.2172L15.2134 27.4563C15.7302 29.7708 15.1741 32.1903 13.6858 34.0087C12.1834 35.8468 9.99648 36.854 7.72607 36.854Z" fill="#1476D2"/>
<path d="M25.564 26.5193L32.9267 34.53C33.3909 35.0345 34.0239 35.3196 34.7094 35.3346C35.4006 35.3374 36.0383 35.0899 36.5222 34.605C37.007 34.1202 37.2659 33.4768 37.2518 32.7913C37.2368 32.1077 36.9508 31.4746 36.4472 31.0104L28.1167 23.3908C27.8213 23.1198 27.7876 22.6659 28.0398 22.3546C28.3887 21.9241 28.3596 21.308 27.9723 20.9188C27.5512 20.4987 26.8666 20.4996 26.4474 20.9188L22.836 24.5312C22.6334 24.7347 22.5209 25.0048 22.5209 25.2927C22.5209 25.5806 22.6334 25.8507 22.836 26.0551C23.2383 26.4565 23.8873 26.4715 24.313 26.0898C24.6094 25.8244 25.0604 25.8329 25.3455 26.1104C25.4637 26.2249 25.5368 26.3684 25.564 26.5193ZM34.7638 36.8501C34.7347 36.8501 34.7066 36.8492 34.6766 36.8482C33.5756 36.8248 32.5581 36.3662 31.8126 35.555L24.5784 27.686C23.6387 28.0733 22.5209 27.881 21.7659 27.1261C21.2755 26.6366 21.0063 25.9848 21.0063 25.2927C21.0063 24.6006 21.2755 23.9498 21.7659 23.4602L25.3765 19.8488C25.8669 19.3592 26.5168 19.0892 27.2099 19.0892C27.902 19.0892 28.5528 19.3592 29.0433 19.8488C29.8057 20.6112 29.997 21.7375 29.5919 22.6866L37.4703 29.8935C38.2824 30.641 38.7419 31.6584 38.7654 32.7604C38.7888 33.8613 38.3725 34.8976 37.5931 35.676C36.8345 36.4347 35.8329 36.8501 34.7638 36.8501Z" fill="#1476D2"/>
<path d="M24.1067 22.9478C23.9135 22.9478 23.7194 22.8737 23.5712 22.7255L12.2145 11.3688C11.9191 11.0734 11.9191 10.5942 12.2145 10.2978C12.5109 10.0024 12.9891 10.0024 13.2855 10.2978L24.6422 21.6545C24.9385 21.9499 24.9385 22.4301 24.6422 22.7255C24.494 22.8737 24.3008 22.9478 24.1067 22.9478Z" fill="#1476D2"/>
<path d="M7.50683 7.34426L8.79257 7.89286C9.34775 8.13012 9.70222 8.66936 9.71723 9.30143C9.72942 9.7572 9.94792 10.1745 10.3202 10.4493C10.836 10.83 11.5759 10.8169 12.0795 10.4183C12.4171 10.152 12.616 9.77127 12.6413 9.34926C12.6657 8.93194 12.5109 8.52213 12.2146 8.22672C11.9436 7.9557 11.5825 7.80471 11.198 7.80002C10.5922 7.79345 10.0408 7.41458 9.79226 6.83408L9.26147 5.58963L7.50683 7.34426ZM11.1764 12.2349C10.5556 12.2349 9.93387 12.0464 9.42183 11.6684C8.66972 11.1142 8.22614 10.2645 8.20363 9.33894C8.2027 9.30424 8.19237 9.28362 8.18861 9.27987L5.88071 8.29706C5.65001 8.19859 5.48308 7.99132 5.43526 7.74468C5.38743 7.49804 5.46526 7.24296 5.64251 7.06572L8.98199 3.72624C9.15923 3.54805 9.41431 3.47022 9.66189 3.51805C9.90759 3.56588 10.1158 3.7328 10.2133 3.96444L11.1858 6.2386C11.1971 6.26767 11.2177 6.28455 11.2252 6.28736C11.997 6.29393 12.7332 6.60246 13.2865 7.15576C13.8867 7.75689 14.2027 8.5887 14.1539 9.43741C14.1033 10.2861 13.6897 11.0758 13.0183 11.6065C12.4894 12.0248 11.832 12.2349 11.1764 12.2349Z" fill="#1476D2"/>
<path d="M24.8185 27.4111C24.6253 27.4111 24.4312 27.337 24.283 27.1889C23.9876 26.8935 23.9876 26.4133 24.283 26.1179L26.4015 23.9994C26.6979 23.704 27.1762 23.704 27.4725 23.9994C27.7679 24.2958 27.7679 24.775 27.4725 25.0704L25.354 27.1889C25.2058 27.337 25.0126 27.4111 24.8185 27.4111Z" fill="#1476D2"/>
<path d="M33.3946 32.3252C33.2014 32.3252 33.0073 32.2511 32.8592 32.1039L28.1055 27.3492C27.8091 27.0529 27.8091 26.5737 28.1055 26.2783C28.4009 25.9829 28.881 25.9829 29.1764 26.2783L33.9301 31.0329C34.2265 31.3283 34.2265 31.8075 33.9301 32.1039C33.7819 32.2511 33.5888 32.3252 33.3946 32.3252Z" fill="#1476D2"/>
<path d="M11.5101 26.1001C11.3169 26.1001 11.1237 26.0269 10.9755 25.8788C10.6801 25.5834 10.6792 25.1042 10.9746 24.8078L24.808 10.9462C25.1034 10.6499 25.5827 10.649 25.88 10.9453C26.1754 11.2407 26.1754 11.7199 25.8809 12.0153L12.0465 25.8778C11.8983 26.026 11.7042 26.1001 11.5101 26.1001Z" fill="#1476D2"/>
</svg>
