<svg width="37" height="38" viewBox="0 0 37 38" fill="none" xmlns="http://www.w3.org/2000/svg">
<path d="M2.87852 2.3171C2.15719 2.3171 1.57096 2.90428 1.57096 3.62561V34.8676C1.57096 35.5889 2.15719 36.1761 2.87852 36.1761H34.1214C34.8418 36.1761 35.4299 35.5889 35.4299 34.8676V3.62561C35.4299 2.90428 34.8418 2.3171 34.1214 2.3171H2.87852ZM34.1214 37.7471H2.87852C1.291 37.7471 0 36.4551 0 34.8676V3.62561C0 2.03809 1.291 0.74707 2.87852 0.74707H34.1214C35.708 0.74707 37 2.03809 37 3.62561V34.8676C37 36.4551 35.708 37.7471 34.1214 37.7471Z" fill="#1476D2"/>
<path d="M12.1821 17.3892C11.1574 17.3892 10.3233 18.2224 10.3233 19.247C10.3233 20.2717 11.1574 21.1048 12.1821 21.1048C13.2057 21.1048 14.0398 20.2717 14.0398 19.247C14.0398 18.2224 13.2057 17.3892 12.1821 17.3892ZM12.1821 22.6748C10.2912 22.6748 8.7533 21.1369 8.7533 19.247C8.7533 17.3562 10.2912 15.8192 12.1821 15.8192C14.0719 15.8192 15.6098 17.3562 15.6098 19.247C15.6098 21.1369 14.0719 22.6748 12.1821 22.6748Z" fill="#1476D2"/>
<path d="M24.819 17.3892C23.7943 17.3892 22.9602 18.2224 22.9602 19.247C22.9602 20.2717 23.7943 21.1048 24.819 21.1048C25.8426 21.1048 26.6767 20.2717 26.6767 19.247C26.6767 18.2224 25.8426 17.3892 24.819 17.3892ZM24.819 22.6748C22.9281 22.6748 21.3902 21.1369 21.3902 19.247C21.3902 17.3562 22.9281 15.8192 24.819 15.8192C26.7088 15.8192 28.2468 17.3562 28.2468 19.247C28.2468 21.1369 26.7088 22.6748 24.819 22.6748Z" fill="#1476D2"/>
<path d="M17.1256 2.31733V9.57733C17.1256 10.3356 17.7429 10.951 18.5002 10.951C19.2575 10.951 19.8748 10.3356 19.8748 9.57733V2.31733H17.1256ZM18.5002 12.522C16.8777 12.522 15.5555 11.2008 15.5555 9.57733V1.5328C15.5555 1.09922 15.9084 0.747293 16.341 0.747293H20.6584C21.0929 0.747293 21.4439 1.09922 21.4439 1.5328V9.57733C21.4439 11.2008 20.1227 12.522 18.5002 12.522Z" fill="#1476D2"/>
<path d="M17.1256 36.1761H19.8748V28.9161C19.8748 28.1588 19.2575 27.5424 18.5002 27.5424C17.7429 27.5424 17.1256 28.1588 17.1256 28.9161V36.1761ZM20.6584 37.7471H16.341C15.9084 37.7471 15.5555 37.3942 15.5555 36.9616V28.9161C15.5555 27.2926 16.8777 25.9714 18.5002 25.9714C20.1227 25.9714 21.4439 27.2926 21.4439 28.9161V36.9616C21.4439 37.3942 21.0929 37.7471 20.6584 37.7471Z" fill="#1476D2"/>
<path d="M18.5002 25.9716C20.1227 25.9716 21.4439 27.2927 21.4439 28.9162V32.1223C27.3555 30.7701 31.7068 25.3902 31.7068 19.2472C31.7068 13.1032 27.3555 7.72334 21.4439 6.37108V9.57722C21.4439 11.2007 20.1227 12.5219 18.5002 12.5219C16.8777 12.5219 15.5555 11.2007 15.5555 9.57722V6.37108C9.64487 7.72334 5.29452 13.1032 5.29452 19.2472C5.29452 25.3902 9.64487 30.7701 15.5555 32.1223V28.9162C15.5555 27.2927 16.8777 25.9716 18.5002 25.9716ZM20.6584 33.8566C20.4737 33.8566 20.2909 33.7905 20.148 33.6681C19.974 33.5193 19.8748 33.3015 19.8748 33.0721V28.9162C19.8748 28.1589 19.2575 27.5425 18.5002 27.5425C17.7429 27.5425 17.1255 28.1589 17.1255 28.9162V33.0721C17.1255 33.3015 17.0264 33.5193 16.8514 33.6681C16.6793 33.8168 16.4489 33.8839 16.2215 33.8479C8.97993 32.727 3.72351 26.585 3.72351 19.2472C3.72351 11.9075 8.97993 5.76738 16.2215 4.64552C16.447 4.61052 16.6784 4.67663 16.8514 4.82537C17.0264 4.97508 17.1255 5.19186 17.1255 5.42129V9.57722C17.1255 10.3355 17.7429 10.9509 18.5002 10.9509C19.2575 10.9509 19.8748 10.3355 19.8748 9.57722V5.42129C19.8748 5.19186 19.974 4.97508 20.148 4.82537C20.323 4.67663 20.5514 4.61052 20.7789 4.64552C28.0214 5.76738 33.2768 11.9075 33.2768 19.2472C33.2768 26.585 28.0214 32.727 20.7789 33.8479C20.739 33.8547 20.6982 33.8566 20.6584 33.8566Z" fill="#1476D2"/>
</svg>
