<svg width="39" height="39" viewBox="0 0 39 39" fill="none" xmlns="http://www.w3.org/2000/svg">
<mask id="path-1-outside-1" maskUnits="userSpaceOnUse" x="0" y="0.453613" width="39" height="39" fill="black">
<rect fill="white" y="0.453613" width="39" height="39"/>
<path d="M2.23279 8.84773L8.84683 2.2344L10.3741 3.76164L8.96219 5.1735L9.57858 5.7899L10.9905 4.37803L12.5626 5.94952L11.1501 7.36142L11.7665 7.97782L13.179 6.56592L14.7506 8.13744L11.684 11.204L12.3004 11.8204L15.367 8.75452L16.9385 10.326L15.5266 11.7379L16.1437 12.3543L17.5549 10.9424L19.1271 12.5139L17.7145 13.9258L18.3309 14.5422L19.7434 13.1303L21.315 14.7018L18.2484 17.7684L18.8648 18.3855L21.9313 15.3189L23.5029 16.8904L22.0917 18.3023L22.7081 18.9187L24.1193 17.5068L25.6914 19.0783L24.2796 20.4902L24.896 21.1066L26.3078 19.6947L27.8794 21.2669L24.8128 24.3335L25.4292 24.9499L28.4958 21.8833L30.0673 23.4548L28.6561 24.8667L29.2725 25.4831L30.6837 24.0712L32.2558 25.6427L30.844 27.0546L31.4604 27.671L32.8722 26.2591L34.4438 27.8313L31.3779 30.8979L31.9943 31.5143L35.0601 28.4477L37.2192 30.6061L30.6052 37.2195L2.23279 8.84773ZM10.5156 34.116L9.26737 32.8678L17.1437 24.9915L18.3919 26.2397L10.5156 34.116ZM7.88231 36.7493C7.20287 37.424 6.10087 37.4247 5.42612 36.7499L2.70297 34.0268C2.02822 33.3527 2.02889 32.2507 2.70297 31.572L3.54876 30.7262L8.72676 35.9042L7.88231 36.7493ZM7.20153 30.802L15.0779 22.9256L16.5273 24.375L8.65096 32.2514L7.20153 30.802ZM9.89919 34.7317L9.34316 35.2878L4.16515 30.1091L4.72052 29.5537L9.89919 34.7317ZM14.4615 22.3092L6.58514 30.1856L5.33691 28.9373L13.2132 21.061L14.4615 22.3092ZM28.3677 5.90662L29.357 7.41441L22.3083 14.4624L21.0601 13.2142L28.3677 5.90662ZM35.8939 5.33044C35.5397 5.10173 35.201 4.84887 34.9012 4.54905C34.6 4.24857 34.3485 3.91119 34.1218 3.55973L36.9516 2.50134L35.8939 5.33044ZM34.0165 10.3502L32.2599 9.19852L30.2551 7.19305L29.1021 5.43642L33.2901 3.87027C33.5718 4.33509 33.8951 4.77576 34.2848 5.16545C34.6738 5.55447 35.1151 5.87911 35.5826 6.16283L34.0165 10.3502ZM29.921 8.08245L31.3665 9.53657L24.3741 16.5282L22.9247 15.0788L29.921 8.08245ZM24.9905 17.1446L32.0446 10.0906L33.5477 11.084L26.2388 18.3928L24.9905 17.1446ZM26.8552 19.0092L34.5417 11.322L34.6423 11.1665L38.1032 1.91043L37.5425 1.34968L28.2865 4.81063L28.1309 4.91124L20.4437 12.5978L8.84683 1.00023L1 8.84773L12.5969 20.4446L2.08523 30.9562C1.07243 31.9771 1.07311 33.6304 2.08657 34.6432L4.80971 37.3664C5.31611 37.8734 5.98283 38.1263 6.6502 38.1263C7.31824 38.1263 7.98696 37.8734 8.49738 37.3664L19.0083 26.8561L30.6052 38.4536L38.452 30.6061L26.8552 19.0092Z"/>
</mask>
<path d="M2.23279 8.84773L8.84683 2.2344L10.3741 3.76164L8.96219 5.1735L9.57858 5.7899L10.9905 4.37803L12.5626 5.94952L11.1501 7.36142L11.7665 7.97782L13.179 6.56592L14.7506 8.13744L11.684 11.204L12.3004 11.8204L15.367 8.75452L16.9385 10.326L15.5266 11.7379L16.1437 12.3543L17.5549 10.9424L19.1271 12.5139L17.7145 13.9258L18.3309 14.5422L19.7434 13.1303L21.315 14.7018L18.2484 17.7684L18.8648 18.3855L21.9313 15.3189L23.5029 16.8904L22.0917 18.3023L22.7081 18.9187L24.1193 17.5068L25.6914 19.0783L24.2796 20.4902L24.896 21.1066L26.3078 19.6947L27.8794 21.2669L24.8128 24.3335L25.4292 24.9499L28.4958 21.8833L30.0673 23.4548L28.6561 24.8667L29.2725 25.4831L30.6837 24.0712L32.2558 25.6427L30.844 27.0546L31.4604 27.671L32.8722 26.2591L34.4438 27.8313L31.3779 30.8979L31.9943 31.5143L35.0601 28.4477L37.2192 30.6061L30.6052 37.2195L2.23279 8.84773ZM10.5156 34.116L9.26737 32.8678L17.1437 24.9915L18.3919 26.2397L10.5156 34.116ZM7.88231 36.7493C7.20287 37.424 6.10087 37.4247 5.42612 36.7499L2.70297 34.0268C2.02822 33.3527 2.02889 32.2507 2.70297 31.572L3.54876 30.7262L8.72676 35.9042L7.88231 36.7493ZM7.20153 30.802L15.0779 22.9256L16.5273 24.375L8.65096 32.2514L7.20153 30.802ZM9.89919 34.7317L9.34316 35.2878L4.16515 30.1091L4.72052 29.5537L9.89919 34.7317ZM14.4615 22.3092L6.58514 30.1856L5.33691 28.9373L13.2132 21.061L14.4615 22.3092ZM28.3677 5.90662L29.357 7.41441L22.3083 14.4624L21.0601 13.2142L28.3677 5.90662ZM35.8939 5.33044C35.5397 5.10173 35.201 4.84887 34.9012 4.54905C34.6 4.24857 34.3485 3.91119 34.1218 3.55973L36.9516 2.50134L35.8939 5.33044ZM34.0165 10.3502L32.2599 9.19852L30.2551 7.19305L29.1021 5.43642L33.2901 3.87027C33.5718 4.33509 33.8951 4.77576 34.2848 5.16545C34.6738 5.55447 35.1151 5.87911 35.5826 6.16283L34.0165 10.3502ZM29.921 8.08245L31.3665 9.53657L24.3741 16.5282L22.9247 15.0788L29.921 8.08245ZM24.9905 17.1446L32.0446 10.0906L33.5477 11.084L26.2388 18.3928L24.9905 17.1446ZM26.8552 19.0092L34.5417 11.322L34.6423 11.1665L38.1032 1.91043L37.5425 1.34968L28.2865 4.81063L28.1309 4.91124L20.4437 12.5978L8.84683 1.00023L1 8.84773L12.5969 20.4446L2.08523 30.9562C1.07243 31.9771 1.07311 33.6304 2.08657 34.6432L4.80971 37.3664C5.31611 37.8734 5.98283 38.1263 6.6502 38.1263C7.31824 38.1263 7.98696 37.8734 8.49738 37.3664L19.0083 26.8561L30.6052 38.4536L38.452 30.6061L26.8552 19.0092Z" fill="#1476D2"/>
<path d="M2.23279 8.84773L8.84683 2.2344L10.3741 3.76164L8.96219 5.1735L9.57858 5.7899L10.9905 4.37803L12.5626 5.94952L11.1501 7.36142L11.7665 7.97782L13.179 6.56592L14.7506 8.13744L11.684 11.204L12.3004 11.8204L15.367 8.75452L16.9385 10.326L15.5266 11.7379L16.1437 12.3543L17.5549 10.9424L19.1271 12.5139L17.7145 13.9258L18.3309 14.5422L19.7434 13.1303L21.315 14.7018L18.2484 17.7684L18.8648 18.3855L21.9313 15.3189L23.5029 16.8904L22.0917 18.3023L22.7081 18.9187L24.1193 17.5068L25.6914 19.0783L24.2796 20.4902L24.896 21.1066L26.3078 19.6947L27.8794 21.2669L24.8128 24.3335L25.4292 24.9499L28.4958 21.8833L30.0673 23.4548L28.6561 24.8667L29.2725 25.4831L30.6837 24.0712L32.2558 25.6427L30.844 27.0546L31.4604 27.671L32.8722 26.2591L34.4438 27.8313L31.3779 30.8979L31.9943 31.5143L35.0601 28.4477L37.2192 30.6061L30.6052 37.2195L2.23279 8.84773ZM10.5156 34.116L9.26737 32.8678L17.1437 24.9915L18.3919 26.2397L10.5156 34.116ZM7.88231 36.7493C7.20287 37.424 6.10087 37.4247 5.42612 36.7499L2.70297 34.0268C2.02822 33.3527 2.02889 32.2507 2.70297 31.572L3.54876 30.7262L8.72676 35.9042L7.88231 36.7493ZM7.20153 30.802L15.0779 22.9256L16.5273 24.375L8.65096 32.2514L7.20153 30.802ZM9.89919 34.7317L9.34316 35.2878L4.16515 30.1091L4.72052 29.5537L9.89919 34.7317ZM14.4615 22.3092L6.58514 30.1856L5.33691 28.9373L13.2132 21.061L14.4615 22.3092ZM28.3677 5.90662L29.357 7.41441L22.3083 14.4624L21.0601 13.2142L28.3677 5.90662ZM35.8939 5.33044C35.5397 5.10173 35.201 4.84887 34.9012 4.54905C34.6 4.24857 34.3485 3.91119 34.1218 3.55973L36.9516 2.50134L35.8939 5.33044ZM34.0165 10.3502L32.2599 9.19852L30.2551 7.19305L29.1021 5.43642L33.2901 3.87027C33.5718 4.33509 33.8951 4.77576 34.2848 5.16545C34.6738 5.55447 35.1151 5.87911 35.5826 6.16283L34.0165 10.3502ZM29.921 8.08245L31.3665 9.53657L24.3741 16.5282L22.9247 15.0788L29.921 8.08245ZM24.9905 17.1446L32.0446 10.0906L33.5477 11.084L26.2388 18.3928L24.9905 17.1446ZM26.8552 19.0092L34.5417 11.322L34.6423 11.1665L38.1032 1.91043L37.5425 1.34968L28.2865 4.81063L28.1309 4.91124L20.4437 12.5978L8.84683 1.00023L1 8.84773L12.5969 20.4446L2.08523 30.9562C1.07243 31.9771 1.07311 33.6304 2.08657 34.6432L4.80971 37.3664C5.31611 37.8734 5.98283 38.1263 6.6502 38.1263C7.31824 38.1263 7.98696 37.8734 8.49738 37.3664L19.0083 26.8561L30.6052 38.4536L38.452 30.6061L26.8552 19.0092Z" stroke="#1476D2" stroke-width="0.4" mask="url(#path-1-outside-1)"/>
</svg>
