<svg width="31" height="38" viewBox="0 0 31 38" fill="none" xmlns="http://www.w3.org/2000/svg">
<path d="M27.0014 31.8979C26.5766 31.8979 26.2514 31.5185 26.2514 31.0733V16.4614C26.2514 16.0167 26.5765 15.6361 27.0014 15.6361C27.4255 15.6361 27.7505 16.0168 27.7505 16.4614L27.7505 31.0733C27.7505 31.5184 27.4254 31.8979 27.0014 31.8979Z" fill="#1476D2" stroke="#1476D2" stroke-width="0.2"/>
<mask id="path-2-outside-1" maskUnits="userSpaceOnUse" x="2.31091" y="15" width="26" height="23" fill="black">
<rect fill="white" x="2.31091" y="15" width="26" height="23"/>
<path d="M27.0014 37H3.96003C3.60128 37 3.31091 36.6752 3.31091 36.2747V16.6476C3.31091 16.2475 3.60128 15.9223 3.96003 15.9223C4.31878 15.9223 4.60997 16.2475 4.60997 16.6476V35.5501H26.3515V34.3415C26.3515 33.9414 26.6419 33.6162 27.0014 33.6162C27.3602 33.6162 27.6505 33.9414 27.6505 34.3415V36.2747C27.6505 36.6752 27.3602 37 27.0014 37Z"/>
</mask>
<path d="M27.0014 37H3.96003C3.60128 37 3.31091 36.6752 3.31091 36.2747V16.6476C3.31091 16.2475 3.60128 15.9223 3.96003 15.9223C4.31878 15.9223 4.60997 16.2475 4.60997 16.6476V35.5501H26.3515V34.3415C26.3515 33.9414 26.6419 33.6162 27.0014 33.6162C27.3602 33.6162 27.6505 33.9414 27.6505 34.3415V36.2747C27.6505 36.6752 27.3602 37 27.0014 37Z" fill="#1476D2"/>
<path d="M4.60997 35.5501V35.7501H4.40997V35.5501H4.60997ZM26.3515 35.5501H26.5515V35.7501H26.3515V35.5501ZM27.0014 37.2H3.96003V36.8H27.0014V37.2ZM3.96003 37.2C3.47047 37.2 3.11091 36.7642 3.11091 36.2747H3.51091C3.51091 36.5863 3.73208 36.8 3.96003 36.8V37.2ZM3.11091 36.2747V16.6476H3.51091V36.2747H3.11091ZM3.11091 16.6476C3.11091 16.1586 3.47039 15.7223 3.96003 15.7223V16.1223C3.73217 16.1223 3.51091 16.3363 3.51091 16.6476H3.11091ZM3.96003 15.7223C4.44936 15.7223 4.80997 16.1583 4.80997 16.6476H4.40997C4.40997 16.3367 4.1882 16.1223 3.96003 16.1223V15.7223ZM4.80997 16.6476V35.5501H4.40997V16.6476H4.80997ZM4.60997 35.3501H26.3515V35.7501H4.60997V35.3501ZM26.1515 35.5501V34.3415H26.5515V35.5501H26.1515ZM26.1515 34.3415C26.1515 33.8523 26.5112 33.4162 27.0014 33.4162V33.8162C26.7726 33.8162 26.5515 34.0304 26.5515 34.3415H26.1515ZM27.0014 33.4162C27.491 33.4162 27.8505 33.8525 27.8505 34.3415H27.4505C27.4505 34.0302 27.2293 33.8162 27.0014 33.8162V33.4162ZM27.8505 34.3415V36.2747H27.4505V34.3415H27.8505ZM27.8505 36.2747C27.8505 36.7642 27.491 37.2 27.0014 37.2V36.8C27.2294 36.8 27.4505 36.5863 27.4505 36.2747H27.8505Z" fill="#1476D2" mask="url(#path-2-outside-1)"/>
<mask id="path-4-outside-2" maskUnits="userSpaceOnUse" x="0" y="-0.0483398" width="31" height="20" fill="black">
<rect fill="white" y="-0.0483398" width="31" height="20"/>
<path d="M2.29987 12.9314V16.8521L15.1136 7.05642C15.3348 6.88772 15.6268 6.88772 15.8472 7.05642L28.6617 16.8521V12.9314L15.4804 2.61037L2.29987 12.9314ZM29.3108 18.9512C29.1829 18.9512 29.0534 18.9102 28.944 18.8246L15.4804 8.53437L2.01753 18.8246C1.81804 18.9775 1.56064 18.9926 1.34667 18.8688C1.13351 18.7422 1 18.4959 1 18.2266V12.554C1 12.318 1.10376 12.0963 1.2767 11.9606L15.108 1.13278C15.3316 0.955631 15.63 0.955631 15.8536 1.13278L29.6841 11.9606C29.857 12.0963 29.96 12.318 29.96 12.554V18.2266C29.96 18.4959 29.8272 18.7422 29.6141 18.8688C29.5192 18.9235 29.4154 18.9512 29.3108 18.9512Z"/>
</mask>
<path d="M2.29987 12.9314V16.8521L15.1136 7.05642C15.3348 6.88772 15.6268 6.88772 15.8472 7.05642L28.6617 16.8521V12.9314L15.4804 2.61037L2.29987 12.9314ZM29.3108 18.9512C29.1829 18.9512 29.0534 18.9102 28.944 18.8246L15.4804 8.53437L2.01753 18.8246C1.81804 18.9775 1.56064 18.9926 1.34667 18.8688C1.13351 18.7422 1 18.4959 1 18.2266V12.554C1 12.318 1.10376 12.0963 1.2767 11.9606L15.108 1.13278C15.3316 0.955631 15.63 0.955631 15.8536 1.13278L29.6841 11.9606C29.857 12.0963 29.96 12.318 29.96 12.554V18.2266C29.96 18.4959 29.8272 18.7422 29.6141 18.8688C29.5192 18.9235 29.4154 18.9512 29.3108 18.9512Z" fill="#1476D2"/>
<path d="M2.29987 12.9314H2.09987V12.834L2.17656 12.7739L2.29987 12.9314ZM2.29987 16.8521L2.42133 17.011L2.09987 17.2568V16.8521H2.29987ZM15.1136 7.05642L14.9921 6.89753L14.9923 6.8974L15.1136 7.05642ZM15.8472 7.05642L15.7257 7.21532L15.7256 7.21524L15.8472 7.05642ZM28.6617 16.8521H28.8617V17.2568L28.5402 17.011L28.6617 16.8521ZM28.6617 12.9314L28.785 12.7739L28.8617 12.834V12.9314H28.6617ZM15.4804 2.61037L15.3571 2.4529L15.4804 2.35635L15.6037 2.4529L15.4804 2.61037ZM28.944 18.8246L29.0655 18.6657L29.0673 18.6671L28.944 18.8246ZM15.4804 8.53437L15.3589 8.37547L15.4804 8.28264L15.6018 8.37547L15.4804 8.53437ZM2.01753 18.8246L1.89586 18.6659L1.89607 18.6657L2.01753 18.8246ZM1.34667 18.8688L1.24649 19.0419L1.24454 19.0407L1.34667 18.8688ZM1.2767 11.9606L1.15321 11.8032L1.15342 11.8031L1.2767 11.9606ZM15.108 1.13278L15.2321 1.28955L15.2312 1.29026L15.108 1.13278ZM15.8536 1.13278L15.7303 1.29026L15.7294 1.28955L15.8536 1.13278ZM29.6841 11.9606L29.8073 11.8031L29.8076 11.8032L29.6841 11.9606ZM29.6141 18.8688L29.7162 19.0408L29.7139 19.0421L29.6141 18.8688ZM2.49987 12.9314V16.8521H2.09987V12.9314H2.49987ZM2.1784 16.6932L14.9921 6.89753L15.2351 7.21531L2.42133 17.011L2.1784 16.6932ZM14.9923 6.8974C15.285 6.67416 15.6765 6.67389 15.9687 6.89761L15.7256 7.21524C15.5771 7.10155 15.3846 7.10128 15.2349 7.21545L14.9923 6.8974ZM15.9686 6.89753L28.7832 16.6932L28.5402 17.011L15.7257 7.21532L15.9686 6.89753ZM28.4617 16.8521V12.9314H28.8617V16.8521H28.4617ZM28.5384 13.0889L15.3571 2.76784L15.6037 2.4529L28.785 12.7739L28.5384 13.0889ZM15.6037 2.76783L2.42317 13.0889L2.17656 12.7739L15.3571 2.4529L15.6037 2.76783ZM29.3108 19.1512C29.14 19.1512 28.9667 19.0963 28.8208 18.9822L29.0673 18.6671C29.1401 18.7241 29.2258 18.7512 29.3108 18.7512V19.1512ZM28.8226 18.9835L15.3589 8.69328L15.6018 8.37547L29.0655 18.6657L28.8226 18.9835ZM15.6018 8.69327L2.13898 18.9835L1.89607 18.6657L15.3589 8.37547L15.6018 8.69327ZM2.1392 18.9834C1.87524 19.1857 1.53025 19.2061 1.2465 19.0419L1.44684 18.6957C1.59102 18.7791 1.76084 18.7694 1.89586 18.6659L2.1392 18.9834ZM1.24454 19.0407C0.965023 18.8747 0.8 18.5596 0.8 18.2266H1.2C1.2 18.4322 1.302 18.6096 1.4488 18.6968L1.24454 19.0407ZM0.8 18.2266V12.554H1.2V18.2266H0.8ZM0.8 12.554C0.8 12.2614 0.928306 11.9798 1.15321 11.8032L1.40019 12.1179C1.27921 12.2128 1.2 12.3746 1.2 12.554H0.8ZM1.15342 11.8031L14.9847 0.975294L15.2312 1.29026L1.39999 12.118L1.15342 11.8031ZM14.9838 0.976007C15.2801 0.74122 15.6814 0.74122 15.9778 0.976007L15.7294 1.28955C15.5786 1.17004 15.383 1.17004 15.2321 1.28955L14.9838 0.976007ZM15.9769 0.975298L29.8073 11.8031L29.5608 12.118L15.7303 1.29026L15.9769 0.975298ZM29.8076 11.8032C30.0328 11.9801 30.16 12.2619 30.16 12.554H29.76C29.76 12.3741 29.6812 12.2126 29.5606 12.1179L29.8076 11.8032ZM30.16 12.554V18.2266H29.76V12.554H30.16ZM30.16 18.2266C30.16 18.5592 29.9961 18.8745 29.7162 19.0407L29.512 18.6968C29.6584 18.6099 29.76 18.4327 29.76 18.2266H30.16ZM29.7139 19.0421C29.5894 19.1138 29.4513 19.1512 29.3108 19.1512V18.7512C29.3795 18.7512 29.449 18.7331 29.5143 18.6955L29.7139 19.0421Z" fill="#1476D2" mask="url(#path-4-outside-2)"/>
<path d="M12.0336 35.4501H18.9274V25.7548H12.0336V35.4501ZM19.6766 37.1H11.2845C10.8596 37.1 10.5346 36.7198 10.5346 36.2747V24.9303C10.5346 24.4856 10.8596 24.1049 11.2845 24.1049H19.6766C20.1015 24.1049 20.4265 24.4856 20.4265 24.9303V36.2747C20.4265 36.7198 20.1014 37.1 19.6766 37.1Z" fill="#1476D2" stroke="#1476D2" stroke-width="0.2"/>
<mask id="path-7-outside-3" maskUnits="userSpaceOnUse" x="5.80394" y="10.6392" width="11" height="10" fill="black">
<rect fill="white" x="5.80394" y="10.6392" width="11" height="10"/>
<path d="M7.4541 19.6392C7.2522 19.6392 7.05351 19.5343 6.92642 19.3376C6.71648 19.0124 6.78325 18.5599 7.07444 18.3257L15.1013 11.8791C15.3917 11.6459 15.7979 11.7202 16.0078 12.0453C16.217 12.3704 16.151 12.8229 15.8598 13.0571L7.83296 19.5027C7.71793 19.5943 7.58521 19.6392 7.4541 19.6392Z"/>
</mask>
<path d="M7.4541 19.6392C7.2522 19.6392 7.05351 19.5343 6.92642 19.3376C6.71648 19.0124 6.78325 18.5599 7.07444 18.3257L15.1013 11.8791C15.3917 11.6459 15.7979 11.7202 16.0078 12.0453C16.217 12.3704 16.151 12.8229 15.8598 13.0571L7.83296 19.5027C7.71793 19.5943 7.58521 19.6392 7.4541 19.6392Z" fill="#1476D2"/>
<path d="M6.92642 19.3376L6.75843 19.4461L6.7584 19.446L6.92642 19.3376ZM7.07444 18.3257L6.94907 18.1699L6.9492 18.1698L7.07444 18.3257ZM15.1013 11.8791L14.9761 11.7231L14.9761 11.7231L15.1013 11.8791ZM16.0078 12.0453L16.1758 11.9368L16.176 11.9371L16.0078 12.0453ZM15.8598 13.0571L15.9852 13.213L15.9851 13.2131L15.8598 13.0571ZM7.83296 19.5027L7.95818 19.6586L7.95753 19.6592L7.83296 19.5027ZM7.4541 19.8392C7.18083 19.8392 6.92044 19.6969 6.75843 19.4461L7.09441 19.229C7.18659 19.3717 7.32357 19.4392 7.4541 19.4392V19.8392ZM6.7584 19.446C6.49574 19.0392 6.5741 18.4715 6.94907 18.1699L7.1998 18.4815C6.9924 18.6484 6.93722 18.9856 7.09445 19.2291L6.7584 19.446ZM6.9492 18.1698L14.9761 11.7231L15.2265 12.035L7.19967 18.4816L6.9492 18.1698ZM14.9761 11.7231C15.3653 11.4105 15.9061 11.5191 16.1758 11.9368L15.8398 12.1538C15.6897 11.9213 15.418 11.8812 15.2265 12.035L14.9761 11.7231ZM16.176 11.9371C16.4374 12.3435 16.3604 12.9111 15.9852 13.213L15.7345 12.9013C15.9416 12.7347 15.9965 12.3974 15.8396 12.1535L16.176 11.9371ZM15.9851 13.2131L7.95818 19.6586L7.70773 19.3467L15.7346 12.9012L15.9851 13.2131ZM7.95753 19.6592C7.8081 19.7781 7.63173 19.8392 7.4541 19.8392V19.4392C7.5387 19.4392 7.62776 19.4104 7.70838 19.3462L7.95753 19.6592Z" fill="#1476D2" mask="url(#path-7-outside-3)"/>
<mask id="path-9-outside-4" maskUnits="userSpaceOnUse" x="13.8307" y="10.6392" width="11" height="10" fill="black">
<rect fill="white" x="13.8307" y="10.6392" width="11" height="10"/>
<path d="M23.5072 19.6392C23.3753 19.6392 23.2433 19.5943 23.1283 19.5027L15.1014 13.0571C14.8095 12.8229 14.7435 12.3704 14.9535 12.0453C15.1626 11.7202 15.568 11.6459 15.86 11.8791L23.8868 18.3257C24.178 18.5599 24.2448 19.0124 24.0349 19.3376C23.9078 19.5343 23.7091 19.6392 23.5072 19.6392Z"/>
</mask>
<path d="M23.5072 19.6392C23.3753 19.6392 23.2433 19.5943 23.1283 19.5027L15.1014 13.0571C14.8095 12.8229 14.7435 12.3704 14.9535 12.0453C15.1626 11.7202 15.568 11.6459 15.86 11.8791L23.8868 18.3257C24.178 18.5599 24.2448 19.0124 24.0349 19.3376C23.9078 19.5343 23.7091 19.6392 23.5072 19.6392Z" fill="#1476D2"/>
<path d="M23.1283 19.5027L23.0037 19.6592L23.0031 19.6586L23.1283 19.5027ZM15.1014 13.0571L15.2266 12.9011L15.2267 12.9012L15.1014 13.0571ZM14.9535 12.0453L15.1217 12.1535L15.1215 12.1538L14.9535 12.0453ZM15.86 11.8791L15.9848 11.7228L15.9852 11.7231L15.86 11.8791ZM23.8868 18.3257L24.0121 18.1698L24.0122 18.1699L23.8868 18.3257ZM24.0349 19.3376L24.2029 19.446L24.2028 19.4461L24.0349 19.3376ZM23.5072 19.8392C23.3286 19.8392 23.1531 19.778 23.0037 19.6592L23.2529 19.3462C23.3336 19.4105 23.4219 19.4392 23.5072 19.4392V19.8392ZM23.0031 19.6586L14.9762 13.2131L15.2267 12.9012L23.2535 19.3467L23.0031 19.6586ZM14.9763 13.2131C14.6 12.9113 14.5229 12.3433 14.7854 11.9368L15.1215 12.1538C14.9641 12.3976 15.0189 12.7345 15.2266 12.9011L14.9763 13.2131ZM14.7852 11.9371C15.0544 11.5187 15.5944 11.411 15.9848 11.7228L15.7352 12.0353C15.5416 11.8807 15.2707 11.9218 15.1217 12.1535L14.7852 11.9371ZM15.9852 11.7231L24.0121 18.1698L23.7616 18.4816L15.7347 12.035L15.9852 11.7231ZM24.0122 18.1699C24.3872 18.4715 24.4655 19.0392 24.2029 19.446L23.8668 19.2291C24.0241 18.9856 23.9689 18.6484 23.7615 18.4815L24.0122 18.1699ZM24.2028 19.4461C24.0408 19.6969 23.7804 19.8392 23.5072 19.8392V19.4392C23.6377 19.4392 23.7747 19.3717 23.8669 19.229L24.2028 19.4461Z" fill="#1476D2" mask="url(#path-9-outside-4)"/>
</svg>
