<svg width="47" height="32" viewBox="0 0 47 32" fill="none" xmlns="http://www.w3.org/2000/svg">
<mask id="path-1-outside-1" maskUnits="userSpaceOnUse" x="10.2737" y="3.53369" width="26" height="19" fill="black">
<rect fill="white" x="10.2737" y="3.53369" width="26" height="19"/>
<path d="M32.1832 21.5337L30.9882 20.8033C31.456 20.038 31.8009 19.2047 32.013 18.3266C32.089 18.0122 32.3701 17.791 32.6937 17.791H34.4922V14.7803H32.6937C32.3701 14.7803 32.0887 14.5591 32.013 14.2447C31.8012 13.3676 31.4564 12.534 30.9879 11.7666C30.8195 11.4907 30.8619 11.1353 31.0905 10.9067L32.3607 9.63646L30.2324 7.50706L28.9611 8.77833C28.7325 9.0073 28.3764 9.04931 28.1009 8.88056C27.3362 8.4128 26.5029 8.06795 25.6238 7.85543C25.3098 7.77946 25.0881 7.49797 25.0881 7.17481V5.37663H22.0778V7.17481C22.0778 7.49797 21.8562 7.77911 21.5422 7.85543C20.6637 8.0676 19.8305 8.4128 19.0655 8.88056C18.7896 9.04966 18.4335 9.0073 18.2049 8.77833L16.9336 7.50706L14.8053 9.63646L16.0755 10.9067C16.3041 11.1353 16.3465 11.491 16.1777 11.7669C15.71 12.5326 15.3651 13.3659 15.1536 14.2433C15.0777 14.558 14.7965 14.7793 14.473 14.7793H12.6741V17.791H14.473C14.7965 17.791 15.078 18.0126 15.1536 18.327C15.3655 19.2051 15.71 20.0376 16.1777 20.8023L14.9831 21.5333C14.535 20.8009 14.1842 20.0152 13.9373 19.1914H11.9739C11.587 19.1914 11.2737 18.8777 11.2737 18.4912V14.079C11.2737 13.6925 11.587 13.3788 11.9739 13.3788H13.9373C14.131 12.7332 14.3886 12.1104 14.7065 11.518L13.3201 10.1315C13.0467 9.85807 13.0467 9.41484 13.3197 9.1414L16.4386 6.02188C16.7008 5.75929 17.1657 5.75859 17.4287 6.02188L18.8165 7.40938C19.4082 7.09112 20.0311 6.83344 20.6774 6.63913V4.6764C20.6774 4.28953 20.9907 3.97617 21.3776 3.97617H25.7884C26.1752 3.97617 26.4886 4.28953 26.4886 4.6764V6.63913C27.1352 6.83344 27.7581 7.09112 28.3498 7.40938L29.7373 6.02188C29.8686 5.89059 30.0468 5.81672 30.2324 5.81672C30.4183 5.81672 30.5965 5.89059 30.7278 6.02188L33.8462 9.1414C34.1197 9.41484 34.1197 9.85807 33.8459 10.1315L32.4591 11.5183C32.7777 12.1114 33.0354 12.7343 33.2293 13.3799H35.1924C35.5789 13.3799 35.8927 13.6936 35.8927 14.0801V18.4912C35.8927 18.8777 35.5789 19.1914 35.1924 19.1914H33.2293C32.9818 20.0152 32.631 20.8013 32.1832 21.5337Z"/>
</mask>
<path d="M32.1832 21.5337L30.9882 20.8033C31.456 20.038 31.8009 19.2047 32.013 18.3266C32.089 18.0122 32.3701 17.791 32.6937 17.791H34.4922V14.7803H32.6937C32.3701 14.7803 32.0887 14.5591 32.013 14.2447C31.8012 13.3676 31.4564 12.534 30.9879 11.7666C30.8195 11.4907 30.8619 11.1353 31.0905 10.9067L32.3607 9.63646L30.2324 7.50706L28.9611 8.77833C28.7325 9.0073 28.3764 9.04931 28.1009 8.88056C27.3362 8.4128 26.5029 8.06795 25.6238 7.85543C25.3098 7.77946 25.0881 7.49797 25.0881 7.17481V5.37663H22.0778V7.17481C22.0778 7.49797 21.8562 7.77911 21.5422 7.85543C20.6637 8.0676 19.8305 8.4128 19.0655 8.88056C18.7896 9.04966 18.4335 9.0073 18.2049 8.77833L16.9336 7.50706L14.8053 9.63646L16.0755 10.9067C16.3041 11.1353 16.3465 11.491 16.1777 11.7669C15.71 12.5326 15.3651 13.3659 15.1536 14.2433C15.0777 14.558 14.7965 14.7793 14.473 14.7793H12.6741V17.791H14.473C14.7965 17.791 15.078 18.0126 15.1536 18.327C15.3655 19.2051 15.71 20.0376 16.1777 20.8023L14.9831 21.5333C14.535 20.8009 14.1842 20.0152 13.9373 19.1914H11.9739C11.587 19.1914 11.2737 18.8777 11.2737 18.4912V14.079C11.2737 13.6925 11.587 13.3788 11.9739 13.3788H13.9373C14.131 12.7332 14.3886 12.1104 14.7065 11.518L13.3201 10.1315C13.0467 9.85807 13.0467 9.41484 13.3197 9.1414L16.4386 6.02188C16.7008 5.75929 17.1657 5.75859 17.4287 6.02188L18.8165 7.40938C19.4082 7.09112 20.0311 6.83344 20.6774 6.63913V4.6764C20.6774 4.28953 20.9907 3.97617 21.3776 3.97617H25.7884C26.1752 3.97617 26.4886 4.28953 26.4886 4.6764V6.63913C27.1352 6.83344 27.7581 7.09112 28.3498 7.40938L29.7373 6.02188C29.8686 5.89059 30.0468 5.81672 30.2324 5.81672C30.4183 5.81672 30.5965 5.89059 30.7278 6.02188L33.8462 9.1414C34.1197 9.41484 34.1197 9.85807 33.8459 10.1315L32.4591 11.5183C32.7777 12.1114 33.0354 12.7343 33.2293 13.3799H35.1924C35.5789 13.3799 35.8927 13.6936 35.8927 14.0801V18.4912C35.8927 18.8777 35.5789 19.1914 35.1924 19.1914H33.2293C32.9818 20.0152 32.631 20.8013 32.1832 21.5337Z" fill="#1476D2"/>
<path d="M30.9882 20.8033L30.8839 20.974L30.7133 20.8697L30.8176 20.699L30.9882 20.8033ZM32.013 18.3266L31.8186 18.2797L31.8186 18.2797L32.013 18.3266ZM34.4922 17.791H34.6922V17.991H34.4922V17.791ZM34.4922 14.7803V14.5803H34.6922V14.7803H34.4922ZM32.013 14.2447L32.2074 14.1977L32.2075 14.1979L32.013 14.2447ZM30.9879 11.7666L31.1586 11.6624L30.9879 11.7666ZM31.0905 10.9067L30.9491 10.7652L31.0905 10.9067ZM32.3607 9.63646L32.5022 9.49508L32.6435 9.6365L32.5021 9.77789L32.3607 9.63646ZM30.2324 7.50706L30.0909 7.36564L30.2324 7.22418L30.3738 7.36567L30.2324 7.50706ZM28.9611 8.77833L28.8196 8.63701L28.8197 8.6369L28.9611 8.77833ZM28.1009 8.88056L28.2052 8.70995L28.2053 8.71L28.1009 8.88056ZM25.6238 7.85543L25.5768 8.04983L25.5768 8.04982L25.6238 7.85543ZM25.0881 5.37663V5.17663H25.2881V5.37663H25.0881ZM22.0778 5.37663H21.8778V5.17663H22.0778V5.37663ZM21.5422 7.85543L21.5894 8.04977L21.5891 8.04984L21.5422 7.85543ZM19.0655 8.88056L18.9609 8.71004L18.9611 8.70993L19.0655 8.88056ZM18.2049 8.77833L18.3463 8.6369L18.3464 8.63701L18.2049 8.77833ZM16.9336 7.50706L16.7922 7.36567L16.9336 7.22418L17.075 7.36564L16.9336 7.50706ZM14.8053 9.63646L14.6639 9.77789L14.5225 9.6365L14.6638 9.49508L14.8053 9.63646ZM16.0755 10.9067L16.2169 10.7652L16.2169 10.7652L16.0755 10.9067ZM16.1777 11.7669L16.007 11.6627L16.0071 11.6626L16.1777 11.7669ZM15.1536 14.2433L15.3481 14.2901L15.3481 14.2902L15.1536 14.2433ZM12.6741 14.7793H12.4741V14.5793H12.6741V14.7793ZM12.6741 17.791V17.991H12.4741V17.791H12.6741ZM15.1536 18.327L14.9592 18.3739L14.9592 18.3738L15.1536 18.327ZM16.1777 20.8023L16.3483 20.6979L16.4527 20.8685L16.2821 20.9729L16.1777 20.8023ZM14.9831 21.5333L15.0875 21.7039L14.9169 21.8083L14.8125 21.6377L14.9831 21.5333ZM13.9373 19.1914V18.9914H14.0862L14.1289 19.134L13.9373 19.1914ZM13.9373 13.3788L14.1289 13.4363L14.0862 13.5788H13.9373V13.3788ZM14.7065 11.518L14.848 11.3765L14.953 11.4816L14.8828 11.6125L14.7065 11.518ZM13.3201 10.1315L13.4615 9.99009H13.4615L13.3201 10.1315ZM13.3197 9.1414L13.1782 9.00007L13.1783 8.99999L13.3197 9.1414ZM16.4386 6.02188L16.5801 6.16321L16.58 6.16328L16.4386 6.02188ZM17.4287 6.02188L17.2873 6.16332L17.2872 6.16321L17.4287 6.02188ZM18.8165 7.40938L18.9113 7.58551L18.7803 7.65596L18.6751 7.55082L18.8165 7.40938ZM20.6774 6.63913H20.8774V6.78784L20.735 6.83066L20.6774 6.63913ZM26.4886 6.63913L26.431 6.83067L26.2886 6.78786V6.63913H26.4886ZM28.3498 7.40938L28.4912 7.5508L28.386 7.65597L28.2551 7.58551L28.3498 7.40938ZM30.7278 6.02188L30.8692 5.88046L30.8692 5.88048L30.7278 6.02188ZM33.8462 9.1414L33.7048 9.28282L33.7048 9.2828L33.8462 9.1414ZM33.8459 10.1315L33.7045 9.99009L33.7046 9.99L33.8459 10.1315ZM32.4591 11.5183L32.2829 11.613L32.2125 11.482L32.3177 11.3769L32.4591 11.5183ZM33.2293 13.3799V13.5799H33.0806L33.0378 13.4374L33.2293 13.3799ZM33.2293 19.1914L33.0378 19.1339L33.0806 18.9914H33.2293V19.1914ZM32.0789 21.7043L30.8839 20.974L31.0926 20.6327L32.2875 21.363L32.0789 21.7043ZM30.8176 20.699C31.2744 19.9516 31.6113 19.1377 31.8186 18.2797L32.2074 18.3736C31.9904 19.2718 31.6376 20.1244 31.1589 20.9076L30.8176 20.699ZM31.8186 18.2797C31.9163 17.8755 32.2778 17.591 32.6937 17.591V17.991C32.4625 17.991 32.2617 18.149 32.2074 18.3736L31.8186 18.2797ZM32.6937 17.591H34.4922V17.991H32.6937V17.591ZM34.2922 17.791V14.7803H34.6922V17.791H34.2922ZM34.4922 14.9803H32.6937V14.5803H34.4922V14.9803ZM32.6937 14.9803C32.278 14.9803 31.9159 14.696 31.8186 14.2914L32.2075 14.1979C32.2614 14.4222 32.4623 14.5803 32.6937 14.5803V14.9803ZM31.8186 14.2916C31.6117 13.4347 31.2748 12.6204 30.8172 11.8708L31.1586 11.6624C31.6379 12.4476 31.9908 13.3005 32.2074 14.1977L31.8186 14.2916ZM30.8172 11.8708C30.6007 11.516 30.6552 11.0592 30.9491 10.7652L31.2319 11.0481C31.0686 11.2114 31.0383 11.4653 31.1586 11.6624L30.8172 11.8708ZM30.9491 10.7652L32.2193 9.49504L32.5021 9.77789L31.2319 11.0481L30.9491 10.7652ZM32.2192 9.77785L30.0909 7.64845L30.3738 7.36567L32.5022 9.49508L32.2192 9.77785ZM30.3738 7.64848L29.1025 8.91975L28.8197 8.6369L30.0909 7.36564L30.3738 7.64848ZM29.1026 8.91964C28.8086 9.21415 28.3508 9.26813 27.9964 9.05111L28.2053 8.71C28.402 8.83049 28.6564 8.80046 28.8196 8.63701L29.1026 8.91964ZM27.9965 9.05117C27.2498 8.59438 26.4359 8.2575 25.5768 8.04983L25.6708 7.66103C26.57 7.8784 27.4226 8.23123 28.2052 8.70995L27.9965 9.05117ZM25.5768 8.04982C25.173 7.95214 24.8881 7.59035 24.8881 7.17481H25.2881C25.2881 7.40558 25.4465 7.60677 25.6708 7.66104L25.5768 8.04982ZM24.8881 7.17481V5.37663H25.2881V7.17481H24.8881ZM25.0881 5.57663H22.0778V5.17663H25.0881V5.57663ZM22.2778 5.37663V7.17481H21.8778V5.37663H22.2778ZM22.2778 7.17481C22.2778 7.59051 21.9928 7.95173 21.5894 8.04977L21.4949 7.66109C21.7196 7.60649 21.8778 7.40542 21.8778 7.17481H22.2778ZM21.5891 8.04984C20.7308 8.25714 19.9169 8.59435 19.1698 9.05119L18.9611 8.70993C19.744 8.23125 20.5966 7.87806 21.4952 7.66102L21.5891 8.04984ZM19.17 9.05107C18.8152 9.26856 18.3573 9.21406 18.0634 8.91964L18.3464 8.63701C18.5097 8.80054 18.764 8.83076 18.9609 8.71004L19.17 9.05107ZM18.0635 8.91975L16.7922 7.64848L17.075 7.36564L18.3463 8.6369L18.0635 8.91975ZM17.0751 7.64845L14.9467 9.77785L14.6638 9.49508L16.7922 7.36567L17.0751 7.64845ZM14.9467 9.49504L16.2169 10.7652L15.9341 11.0481L14.6639 9.77789L14.9467 9.49504ZM16.2169 10.7652C16.5109 11.0592 16.5653 11.5165 16.3483 11.8713L16.0071 11.6626C16.1276 11.4655 16.0974 11.2114 15.9341 11.0481L16.2169 10.7652ZM16.3484 11.8712C15.8915 12.619 15.5547 13.4329 15.3481 14.2901L14.9592 14.1964C15.1755 13.2988 15.5284 12.4462 16.007 11.6627L16.3484 11.8712ZM15.3481 14.2902C15.2504 14.6947 14.8889 14.9793 14.473 14.9793V14.5793C14.7041 14.5793 14.9049 14.4213 14.9592 14.1963L15.3481 14.2902ZM14.473 14.9793H12.6741V14.5793H14.473V14.9793ZM12.8741 14.7793V17.791H12.4741V14.7793H12.8741ZM12.6741 17.591H14.473V17.991H12.6741V17.591ZM14.473 17.591C14.8889 17.591 15.2508 17.8758 15.3481 18.2802L14.9592 18.3738C14.9052 18.1493 14.7042 17.991 14.473 17.991V17.591ZM15.3481 18.2801C15.555 19.138 15.8915 19.9512 16.3483 20.6979L16.0071 20.9067C15.5284 20.1241 15.1759 19.2721 14.9592 18.3739L15.3481 18.2801ZM16.2821 20.9729L15.0875 21.7039L14.8787 21.3627L16.0733 20.6317L16.2821 20.9729ZM14.8125 21.6377C14.3554 20.8906 13.9975 20.0891 13.7458 19.2488L14.1289 19.134C14.3708 19.9414 14.7146 20.7112 15.1537 21.429L14.8125 21.6377ZM13.9373 19.3914H11.9739V18.9914H13.9373V19.3914ZM11.9739 19.3914C11.4765 19.3914 11.0737 18.9881 11.0737 18.4912H11.4737C11.4737 18.7673 11.6976 18.9914 11.9739 18.9914V19.3914ZM11.0737 18.4912V14.079H11.4737V18.4912H11.0737ZM11.0737 14.079C11.0737 13.5821 11.4765 13.1788 11.9739 13.1788V13.5788C11.6976 13.5788 11.4737 13.8029 11.4737 14.079H11.0737ZM11.9739 13.1788H13.9373V13.5788H11.9739V13.1788ZM13.7458 13.3214C13.9432 12.6629 14.2061 12.0276 14.5303 11.4234L14.8828 11.6125C14.5712 12.1931 14.3187 12.8035 14.1289 13.4363L13.7458 13.3214ZM14.5651 11.6594L13.1787 10.2729L13.4615 9.99009L14.848 11.3765L14.5651 11.6594ZM13.1787 10.2729C12.8271 9.92141 12.8271 9.35161 13.1782 9.00007L13.4613 9.28273C13.2662 9.47807 13.2662 9.79474 13.4615 9.99009L13.1787 10.2729ZM13.1783 8.99999L16.2971 5.88047L16.58 6.16328L13.4612 9.2828L13.1783 8.99999ZM16.297 5.88055C16.6373 5.53986 17.229 5.53891 17.5702 5.88055L17.2872 6.16321C17.1025 5.97828 16.7643 5.97872 16.5801 6.16321L16.297 5.88055ZM17.5701 5.88044L18.9579 7.26794L18.6751 7.55082L17.2873 6.16332L17.5701 5.88044ZM18.7218 7.23324C19.3254 6.90857 19.9607 6.64575 20.6198 6.44759L20.735 6.83066C20.1014 7.02113 19.491 7.27367 18.9113 7.58551L18.7218 7.23324ZM20.4774 6.63913V4.6764H20.8774V6.63913H20.4774ZM20.4774 4.6764C20.4774 4.17907 20.8803 3.77617 21.3776 3.77617V4.17617C21.1012 4.17617 20.8774 4.39998 20.8774 4.6764H20.4774ZM21.3776 3.77617H25.7884V4.17617H21.3776V3.77617ZM25.7884 3.77617C26.2857 3.77617 26.6886 4.17907 26.6886 4.6764H26.2886C26.2886 4.39998 26.0648 4.17617 25.7884 4.17617V3.77617ZM26.6886 4.6764V6.63913H26.2886V4.6764H26.6886ZM26.5461 6.44759C27.2056 6.64574 27.8409 6.90857 28.4445 7.23324L28.2551 7.58551C27.6753 7.27367 27.0649 7.02113 26.431 6.83067L26.5461 6.44759ZM28.2084 7.26796L29.5959 5.88046L29.8787 6.1633L28.4912 7.5508L28.2084 7.26796ZM29.5959 5.88046C29.7646 5.7117 29.9937 5.61672 30.2324 5.61672V6.01672C30.0999 6.01672 29.9725 6.06948 29.8787 6.1633L29.5959 5.88046ZM30.2324 5.61672C30.4713 5.61672 30.7004 5.71166 30.8692 5.88046L30.5863 6.1633C30.4926 6.06951 30.3652 6.01672 30.2324 6.01672V5.61672ZM30.8692 5.88048L33.9877 9L33.7048 9.2828L30.5863 6.16328L30.8692 5.88048ZM33.9877 8.99998C34.3392 9.35154 34.3392 9.92148 33.9872 10.273L33.7046 9.99C33.9001 9.79467 33.9001 9.47814 33.7048 9.28282L33.9877 8.99998ZM33.9873 10.2729L32.6005 11.6597L32.3177 11.3769L33.7045 9.99009L33.9873 10.2729ZM32.6353 11.4237C32.9602 12.0286 33.2231 12.6639 33.4209 13.3223L33.0378 13.4374C32.8477 12.8046 32.5951 12.1942 32.2829 11.613L32.6353 11.4237ZM33.2293 13.1799H35.1924V13.5799H33.2293V13.1799ZM35.1924 13.1799C35.6894 13.1799 36.0926 13.5831 36.0926 14.0801H35.6926C35.6926 13.804 35.4685 13.5799 35.1924 13.5799V13.1799ZM36.0926 14.0801V18.4912H35.6926V14.0801H36.0926ZM36.0926 18.4912C36.0926 18.9882 35.6894 19.3914 35.1924 19.3914V18.9914C35.4685 18.9914 35.6926 18.7673 35.6926 18.4912H36.0926ZM35.1924 19.3914H33.2293V18.9914H35.1924V19.3914ZM33.4209 19.249C33.1684 20.0891 32.8106 20.8909 32.3538 21.638L32.0126 21.4294C32.4514 20.7116 32.7952 19.9413 33.0378 19.1339L33.4209 19.249Z" fill="#1476D2" mask="url(#path-1-outside-1)"/>
<path d="M23.5832 12.7724C21.6456 12.7724 20.0693 14.3487 20.0693 16.2863C20.0693 18.2236 21.6456 19.7998 23.5832 19.7998C25.5208 19.7998 27.0971 18.2236 27.0971 16.2863C27.0971 14.3487 25.5208 12.7724 23.5832 12.7724ZM23.5832 21.4003C20.7631 21.4003 18.4689 19.1064 18.4689 16.2863C18.4689 13.4662 20.7631 11.172 23.5832 11.172C26.4033 11.172 28.6975 13.4662 28.6975 16.2863C28.6975 19.1064 26.4033 21.4003 23.5832 21.4003Z" fill="#1476D2" stroke="#1476D2" stroke-width="0.2"/>
<path d="M39.7009 21.1841V21.2841H39.6009H38.2004H38.1004V21.1841V3.45081C38.1004 2.92695 37.6739 2.50047 37.1501 2.50047H10.0162C9.49236 2.50047 9.06588 2.92695 9.06588 3.45081V21.1841V21.2841H8.96588H7.56543H7.46543V21.1841V3.45081C7.46543 2.0445 8.60955 0.900007 10.0162 0.900007H37.1501C38.5567 0.900007 39.7009 2.0445 39.7009 3.45081V21.1841Z" fill="#1476D2" stroke="#1476D2" stroke-width="0.2"/>
<mask id="path-5-outside-2" maskUnits="userSpaceOnUse" x="0" y="21.5713" width="47" height="11" fill="black">
<rect fill="white" y="21.5713" width="47" height="11"/>
<path d="M3.18833 30.1708H43.9766L38.5709 23.6353H8.59514L3.18833 30.1708ZM45.4646 31.5713H1.70035C1.42901 31.5713 1.18218 31.4148 1.06664 31.169C0.951106 30.9236 0.987866 30.6337 1.16082 30.4247L7.72616 22.4886C7.85921 22.3279 8.05702 22.2348 8.26569 22.2348H38.9007C39.1093 22.2348 39.3072 22.3279 39.4402 22.4886L46.0041 30.4247C46.1771 30.6337 46.2138 30.9239 46.098 31.169C45.9828 31.4148 45.7359 31.5713 45.4646 31.5713Z"/>
</mask>
<path d="M3.18833 30.1708H43.9766L38.5709 23.6353H8.59514L3.18833 30.1708ZM45.4646 31.5713H1.70035C1.42901 31.5713 1.18218 31.4148 1.06664 31.169C0.951106 30.9236 0.987866 30.6337 1.16082 30.4247L7.72616 22.4886C7.85921 22.3279 8.05702 22.2348 8.26569 22.2348H38.9007C39.1093 22.2348 39.3072 22.3279 39.4402 22.4886L46.0041 30.4247C46.1771 30.6337 46.2138 30.9239 46.098 31.169C45.9828 31.4148 45.7359 31.5713 45.4646 31.5713Z" fill="#1476D2"/>
<path d="M3.18833 30.1708V30.3708H2.76331L3.03423 30.0433L3.18833 30.1708ZM43.9766 30.1708L44.1307 30.0434L44.4016 30.3708H43.9766V30.1708ZM38.5709 23.6353V23.4353H38.665L38.725 23.5078L38.5709 23.6353ZM8.59514 23.6353L8.44104 23.5078L8.50103 23.4353H8.59514V23.6353ZM1.06664 31.169L1.2476 31.0838L1.24764 31.0839L1.06664 31.169ZM1.16082 30.4247L1.31492 30.5522L1.31491 30.5522L1.16082 30.4247ZM7.72616 22.4886L7.57206 22.3612L7.57211 22.3611L7.72616 22.4886ZM39.4402 22.4886L39.5943 22.3611L39.5943 22.3612L39.4402 22.4886ZM46.0041 30.4247L45.85 30.5522L45.85 30.5521L46.0041 30.4247ZM46.098 31.169L45.9169 31.0841L45.9172 31.0835L46.098 31.169ZM3.18833 29.9708H43.9766V30.3708H3.18833V29.9708ZM43.8225 30.2983L38.4167 23.7627L38.725 23.5078L44.1307 30.0434L43.8225 30.2983ZM38.5709 23.8353H8.59514V23.4353H38.5709V23.8353ZM8.74925 23.7628L3.34244 30.2983L3.03423 30.0433L8.44104 23.5078L8.74925 23.7628ZM45.4646 31.7713H1.70035V31.3713H45.4646V31.7713ZM1.70035 31.7713C1.35158 31.7713 1.03418 31.5701 0.885645 31.2541L1.24764 31.0839C1.33018 31.2595 1.50645 31.3713 1.70035 31.3713V31.7713ZM0.885692 31.2542C0.737109 30.9386 0.784434 30.5658 1.00674 30.2972L1.31491 30.5522C1.1913 30.7016 1.1651 30.9086 1.2476 31.0838L0.885692 31.2542ZM1.00672 30.2972L7.57206 22.3612L7.88026 22.6161L1.31492 30.5522L1.00672 30.2972ZM7.57211 22.3611C7.74311 22.1545 7.99739 22.0348 8.26569 22.0348V22.4348C8.11666 22.4348 7.9753 22.5013 7.88022 22.6162L7.57211 22.3611ZM8.26569 22.0348H38.9007V22.4348H8.26569V22.0348ZM38.9007 22.0348C39.169 22.0348 39.4232 22.1545 39.5943 22.3611L39.2861 22.6162C39.1911 22.5013 39.0497 22.4348 38.9007 22.4348V22.0348ZM39.5943 22.3612L46.1582 30.2972L45.85 30.5521L39.2861 22.6161L39.5943 22.3612ZM46.1582 30.2972C46.3805 30.5658 46.4279 30.939 46.2788 31.2545L45.9172 31.0835C45.9998 30.9088 45.9737 30.7016 45.85 30.5522L46.1582 30.2972ZM46.2791 31.2539C46.1309 31.5701 45.8133 31.7713 45.4646 31.7713V31.3713C45.6586 31.3713 45.8347 31.2595 45.9169 31.0841L46.2791 31.2539Z" fill="#1476D2" mask="url(#path-5-outside-2)"/>
<path d="M39.7009 21.1841V21.2841H39.6009H38.2004H38.1004V21.1841V3.45081C38.1004 2.92695 37.6739 2.50047 37.1501 2.50047H10.0162C9.49236 2.50047 9.06588 2.92695 9.06588 3.45081V21.1841V21.2841H8.96588H7.56543H7.46543V21.1841V3.45081C7.46543 2.0445 8.60955 0.900007 10.0162 0.900007H37.1501C38.5567 0.900007 39.7009 2.0445 39.7009 3.45081V21.1841Z" fill="#1476D2" stroke="#1476D2" stroke-width="0.2"/>
<mask id="path-8-outside-3" maskUnits="userSpaceOnUse" x="0" y="21.5713" width="47" height="11" fill="black">
<rect fill="white" y="21.5713" width="47" height="11"/>
<path d="M3.18833 30.1708H43.9766L38.5709 23.6353H8.59514L3.18833 30.1708ZM45.4646 31.5713H1.70035C1.42901 31.5713 1.18218 31.4148 1.06664 31.169C0.951106 30.9236 0.987866 30.6337 1.16082 30.4247L7.72616 22.4886C7.85921 22.3279 8.05702 22.2348 8.26569 22.2348H38.9007C39.1093 22.2348 39.3072 22.3279 39.4402 22.4886L46.0041 30.4247C46.1771 30.6337 46.2138 30.9239 46.098 31.169C45.9828 31.4148 45.7359 31.5713 45.4646 31.5713Z"/>
</mask>
<path d="M3.18833 30.1708H43.9766L38.5709 23.6353H8.59514L3.18833 30.1708ZM45.4646 31.5713H1.70035C1.42901 31.5713 1.18218 31.4148 1.06664 31.169C0.951106 30.9236 0.987866 30.6337 1.16082 30.4247L7.72616 22.4886C7.85921 22.3279 8.05702 22.2348 8.26569 22.2348H38.9007C39.1093 22.2348 39.3072 22.3279 39.4402 22.4886L46.0041 30.4247C46.1771 30.6337 46.2138 30.9239 46.098 31.169C45.9828 31.4148 45.7359 31.5713 45.4646 31.5713Z" fill="#1476D2"/>
<path d="M3.18833 30.1708V30.3708H2.76331L3.03423 30.0433L3.18833 30.1708ZM43.9766 30.1708L44.1307 30.0434L44.4016 30.3708H43.9766V30.1708ZM38.5709 23.6353V23.4353H38.665L38.725 23.5078L38.5709 23.6353ZM8.59514 23.6353L8.44104 23.5078L8.50103 23.4353H8.59514V23.6353ZM1.06664 31.169L1.2476 31.0838L1.24764 31.0839L1.06664 31.169ZM1.16082 30.4247L1.31492 30.5522L1.31491 30.5522L1.16082 30.4247ZM7.72616 22.4886L7.57206 22.3612L7.57211 22.3611L7.72616 22.4886ZM39.4402 22.4886L39.5943 22.3611L39.5943 22.3612L39.4402 22.4886ZM46.0041 30.4247L45.85 30.5522L45.85 30.5521L46.0041 30.4247ZM46.098 31.169L45.9169 31.0841L45.9172 31.0835L46.098 31.169ZM3.18833 29.9708H43.9766V30.3708H3.18833V29.9708ZM43.8225 30.2983L38.4167 23.7627L38.725 23.5078L44.1307 30.0434L43.8225 30.2983ZM38.5709 23.8353H8.59514V23.4353H38.5709V23.8353ZM8.74925 23.7628L3.34244 30.2983L3.03423 30.0433L8.44104 23.5078L8.74925 23.7628ZM45.4646 31.7713H1.70035V31.3713H45.4646V31.7713ZM1.70035 31.7713C1.35158 31.7713 1.03418 31.5701 0.885645 31.2541L1.24764 31.0839C1.33018 31.2595 1.50645 31.3713 1.70035 31.3713V31.7713ZM0.885692 31.2542C0.737109 30.9386 0.784434 30.5658 1.00674 30.2972L1.31491 30.5522C1.1913 30.7016 1.1651 30.9086 1.2476 31.0838L0.885692 31.2542ZM1.00672 30.2972L7.57206 22.3612L7.88026 22.6161L1.31492 30.5522L1.00672 30.2972ZM7.57211 22.3611C7.74311 22.1545 7.99739 22.0348 8.26569 22.0348V22.4348C8.11666 22.4348 7.9753 22.5013 7.88022 22.6162L7.57211 22.3611ZM8.26569 22.0348H38.9007V22.4348H8.26569V22.0348ZM38.9007 22.0348C39.169 22.0348 39.4232 22.1545 39.5943 22.3611L39.2861 22.6162C39.1911 22.5013 39.0497 22.4348 38.9007 22.4348V22.0348ZM39.5943 22.3612L46.1582 30.2972L45.85 30.5521L39.2861 22.6161L39.5943 22.3612ZM46.1582 30.2972C46.3805 30.5658 46.4279 30.939 46.2788 31.2545L45.9172 31.0835C45.9998 30.9088 45.9737 30.7016 45.85 30.5522L46.1582 30.2972ZM46.2791 31.2539C46.1309 31.5701 45.8133 31.7713 45.4646 31.7713V31.3713C45.6586 31.3713 45.8347 31.2595 45.9169 31.0841L46.2791 31.2539Z" fill="#1476D2" mask="url(#path-8-outside-3)"/>
</svg>
