<svg width="37" height="37" viewBox="0 0 37 37" fill="none" xmlns="http://www.w3.org/2000/svg">
<path d="M11.0731 17.9446V15.3075C11.0731 14.9409 10.7759 14.6437 10.4093 14.6437C10.0426 14.6437 9.7454 14.9409 9.7454 15.3075V17.9446C9.7454 18.3113 10.0426 18.6085 10.4093 18.6085C10.7759 18.6085 11.0731 18.3113 11.0731 17.9446Z" fill="#1476D2" stroke="#1476D2" stroke-width="0.2"/>
<path d="M22.362 17.9446V15.3075C22.362 14.9409 22.0648 14.6437 21.6981 14.6437C21.3315 14.6437 21.0342 14.9409 21.0342 15.3075V17.9446C21.0342 18.3113 21.3315 18.6085 21.6981 18.6085C22.0648 18.6085 22.362 18.3113 22.362 17.9446Z" fill="#1476D2" stroke="#1476D2" stroke-width="0.2"/>
<path d="M33.6537 17.9446V15.3075C33.6537 14.9409 33.3565 14.6437 32.9898 14.6437C32.6232 14.6437 32.326 14.9409 32.326 15.3075V17.9446C32.326 18.3113 32.6232 18.6085 32.9898 18.6085C33.3565 18.6085 33.6537 18.3113 33.6537 17.9446Z" fill="#1476D2" stroke="#1476D2" stroke-width="0.2"/>
<path d="M0.9 31.1074V35C0.9 35.6075 1.39249 36.1 2 36.1H4.43165C4.95086 36.1 5.37177 35.6791 5.37177 35.1599C5.37177 34.7511 5.70313 34.4198 6.11188 34.4198H30.8967C31.307 34.4198 31.6396 34.7524 31.6396 35.1627C31.6396 35.6835 32.0618 36.1057 32.5826 36.1057H35.0114C35.6189 36.1057 36.1114 35.6132 36.1114 35.0057V2C36.1114 1.39248 35.6189 0.9 35.0114 0.9H2C1.39249 0.9 0.9 1.39249 0.9 2V31.1074ZM4.03263 34.5875C4.03263 34.6895 3.9499 34.7723 3.84784 34.7723H2.42392C2.32187 34.7723 2.23914 34.6895 2.23914 34.5875C2.23914 34.4854 2.32187 34.4027 2.42392 34.4027H3.84784C3.9499 34.4027 4.03263 34.4854 4.03263 34.5875ZM34.7694 34.5875C34.7694 34.6895 34.6867 34.7723 34.5846 34.7723H33.1607C33.0587 34.7723 32.9759 34.6895 32.9759 34.5875C32.9759 34.4854 33.0587 34.4027 33.1607 34.4027H34.5846C34.6867 34.4027 34.7694 34.4854 34.7694 34.5875ZM34.7792 32.7186C34.7749 32.9214 34.6093 33.0835 34.4065 33.0835H2.61188C2.40602 33.0835 2.23914 32.9166 2.23914 32.7107C2.23914 32.5049 2.40602 32.338 2.61188 32.338H34.4065C34.6155 32.338 34.7836 32.5097 34.7792 32.7186ZM14.4166 31.0074C13.9195 31.0074 13.5166 30.6045 13.5166 30.1074V3.13914C13.5166 2.64208 13.9195 2.23914 14.4166 2.23914H22.5806C23.0776 2.23914 23.4806 2.64208 23.4806 3.13914V30.1074C23.4806 30.6045 23.0776 31.0074 22.5806 31.0074H14.4166ZM34.7695 30.1075C34.7695 30.6045 34.3665 31.0074 33.8695 31.0074H25.7112C25.2141 31.0074 24.8112 30.6045 24.8112 30.1074V3.13914C24.8112 2.64208 25.2141 2.23914 25.7112 2.23914H33.8722C34.3693 2.23914 34.7722 2.64214 34.7722 3.13923L34.7695 30.1075ZM2.23914 3.13914C2.23914 2.64208 2.64208 2.23914 3.13914 2.23914H11.2917C11.7888 2.23914 12.1917 2.64208 12.1917 3.13914V30.1074C12.1917 30.6045 11.7888 31.0074 11.2917 31.0074H3.13914C2.64208 31.0074 2.23914 30.6045 2.23914 30.1074V3.13914Z" fill="#1476D2" stroke="#1476D2" stroke-width="0.2"/>
</svg>
