<svg width="39" height="37" viewBox="0 0 39 37" fill="none" xmlns="http://www.w3.org/2000/svg">
<path d="M37.3242 37H0.764049C0.342307 37 0 36.7564 0 36.4559C0 36.1562 0.342307 35.9118 0.764049 35.9118H37.3242C37.7468 35.9118 38.0882 36.1562 38.0882 36.4559C38.0882 36.7564 37.7468 37 37.3242 37Z" fill="#1476D2"/>
<path d="M6.00589 35.5003H32.0823V12.4957C32.0823 12.0823 32.4157 11.7465 32.8277 11.7465H34.4191V8.92363L30.4105 7.00831C30.1509 6.88504 29.9856 6.62141 29.9856 6.33169V1.81582H26.8397V4.11803C26.8397 4.37396 26.7094 4.61364 26.4924 4.75C26.2762 4.88813 26.0047 4.90484 25.7738 4.79354L19.0441 1.57901L3.66814 8.92363V11.7465H5.25959C5.67153 11.7465 6.00589 12.0823 6.00589 12.4957V35.5003ZM32.8277 37H5.25959C4.84764 37 4.5142 36.6642 4.5142 36.2501V13.2456H2.92183C2.51081 13.2456 2.17645 12.9095 2.17645 12.4957V8.45012C2.17645 8.16031 2.34178 7.89677 2.60225 7.7734L18.7236 0.072422C18.9268 -0.0241203 19.1614 -0.0241203 19.3646 0.072422L25.348 2.93049V1.0666C25.348 0.651848 25.6823 0.316372 26.0943 0.316372H30.731C31.1429 0.316372 31.4764 0.651848 31.4764 1.0666V5.85855L35.4859 7.7734C35.7455 7.89677 35.9117 8.16031 35.9117 8.45012V12.4957C35.9117 12.9095 35.5774 13.2456 35.1654 13.2456H33.574V36.2501C33.574 36.6642 33.2396 37 32.8277 37Z" fill="#1476D2"/>
<path d="M19.0445 28.9177C18.3307 28.9177 17.7511 29.6144 17.7511 30.4711C17.7511 31.3261 18.3307 32.0229 19.0445 32.0229C19.7575 32.0229 20.3379 31.3261 20.3379 30.4711C20.3379 29.6144 19.7575 28.9177 19.0445 28.9177ZM19.0445 33.7354C17.5444 33.7354 16.3235 32.271 16.3235 30.4711C16.3235 28.6695 17.5444 27.2059 19.0445 27.2059C20.5446 27.2059 21.7647 28.6695 21.7647 30.4711C21.7647 32.271 20.5446 33.7354 19.0445 33.7354Z" fill="#1476D2"/>
<path d="M9.42285 22.3666L10.6051 23.2478C12.6548 20.7412 15.7545 19.2669 19.0443 19.2669C22.3341 19.2669 25.4328 20.7412 27.4825 23.2478L28.6658 22.3666C26.3356 19.4981 22.7915 17.8054 19.0443 17.8054C15.2971 17.8054 11.753 19.4981 9.42285 22.3666ZM27.3335 25.0292C27.2934 25.0292 27.2543 25.0263 27.2142 25.0199C27.013 24.9876 26.8322 24.8758 26.7148 24.7097C24.9698 22.2296 22.1021 20.7487 19.0443 20.7487C15.9856 20.7487 13.1179 22.2296 11.3729 24.7097C11.2564 24.8758 11.0756 24.9876 10.8735 25.0199C10.6713 25.0521 10.4645 25.0005 10.3014 24.8793L7.91632 23.1029C7.5921 22.8623 7.52129 22.4096 7.75608 22.0836C10.3461 18.4764 14.5657 16.3234 19.0443 16.3234C23.5229 16.3234 27.7425 18.4764 30.3325 22.0836C30.5673 22.4096 30.4956 22.8623 30.1714 23.1029L27.7872 24.8793C27.6558 24.9768 27.4965 25.0292 27.3335 25.0292Z" fill="#1476D2"/>
<path d="M13.8682 26.4012L14.9885 27.3151C16.1245 25.8516 17.7892 25.0004 19.5884 25.0004C21.3866 25.0004 23.0523 25.8516 24.1873 27.3151L25.3086 26.4012C23.9048 24.559 21.8163 23.4812 19.5884 23.4812C17.3596 23.4812 15.272 24.559 13.8682 26.4012ZM24.0215 29.3823C23.9735 29.3823 23.9244 29.3773 23.8773 29.3679C23.6586 29.3242 23.4673 29.1826 23.3496 28.9796C22.5334 27.5629 21.1276 26.7168 19.5884 26.7168C18.0492 26.7168 16.6434 27.5629 15.8263 28.9796C15.7095 29.1826 15.5182 29.3242 15.2995 29.3679C15.0827 29.4114 14.8561 29.3537 14.6785 29.2105L12.2868 27.2591C11.9503 26.9858 11.8709 26.4743 12.1043 26.096C13.7819 23.3836 16.5797 21.7647 19.5884 21.7647C22.5971 21.7647 25.3949 23.3836 27.0715 26.096C27.3059 26.4743 27.2265 26.9858 26.89 27.2591L24.4973 29.2105C24.36 29.323 24.1922 29.3823 24.0215 29.3823Z" fill="#1476D2"/>
<path d="M32.9805 14.147C32.8778 14.147 32.7742 14.1238 32.6752 14.073L19.0443 7.22838L5.41352 14.073C5.03156 14.2641 4.58705 14.0697 4.41802 13.6397C4.24898 13.2088 4.42082 12.7057 4.8009 12.5134L18.738 5.51471C18.9323 5.41655 19.1555 5.41655 19.3507 5.51471L33.2869 12.5134C33.6679 12.7057 33.8388 13.2088 33.6707 13.6397C33.5455 13.958 33.2691 14.147 32.9805 14.147Z" fill="#1476D2"/>
</svg>
