<svg width="29" height="35" viewBox="0 0 29 35" fill="none" xmlns="http://www.w3.org/2000/svg">
<path d="M5.62683 18.8433H4.69513V24.0775H5.62683V18.8433Z" fill="#1476D2"/>
<path d="M27.8175 11.9263H10.4319V14.6193H27.8175V11.9263Z" stroke="#1476D2" stroke-width="1.4" stroke-linejoin="round"/>
<path d="M22.434 9.96338H15.8153V11.9262H22.434V9.96338Z" stroke="#1476D2" stroke-width="1.4" stroke-linejoin="round"/>
<path d="M18.2414 6.0376H20.008C20.1496 6.0376 20.2898 6.06549 20.4206 6.11967C20.5514 6.17386 20.6703 6.25329 20.7704 6.35341C20.8705 6.45354 20.9499 6.5724 21.0041 6.70322C21.0583 6.83404 21.0862 6.97426 21.0862 7.11585V9.96329H17.1605V7.11847C17.1605 6.83181 17.2744 6.55688 17.4771 6.35418C17.6798 6.15148 17.9547 6.0376 18.2414 6.0376V6.0376Z" stroke="#1476D2" stroke-width="1.4" stroke-linejoin="round"/>
<path d="M11.8896 16.4512V30.8061" stroke="#1476D2" stroke-width="1.4" stroke-linejoin="round" stroke-dasharray="1.83 1.83"/>
<path d="M15.5038 16.4512V30.8061" stroke="#1476D2" stroke-width="1.4" stroke-linejoin="round" stroke-dasharray="1.83 1.83"/>
<path d="M19.1181 16.4512V30.8061" stroke="#1476D2" stroke-width="1.4" stroke-linejoin="round" stroke-dasharray="1.83 1.83"/>
<path d="M22.7507 16.4512V30.8061" stroke="#1476D2" stroke-width="1.4" stroke-linejoin="round" stroke-dasharray="1.83 1.83"/>
<path d="M26.3571 16.4512V30.8061" stroke="#1476D2" stroke-width="1.4" stroke-linejoin="round" stroke-dasharray="1.83 1.83"/>
<path d="M5.62683 18.8433H0.392578V24.0775H5.62683V18.8433Z" stroke="#1476D2" stroke-width="1.4" stroke-linejoin="round"/>
<path d="M0.392578 17.8149V21.5862" stroke="#1476D2" stroke-width="1.4" stroke-linejoin="round"/>
<path d="M0.392578 21.335V25.1062" stroke="#1476D2" stroke-width="1.4" stroke-linejoin="round"/>
<path d="M4.95684 34.9204V24.0776H2.078V34.9204" stroke="#1476D2" stroke-width="1.4" stroke-linejoin="round"/>
<path d="M17.4693 0.392578H5.16883C4.34885 0.393272 3.56269 0.719493 2.98313 1.29955C2.40356 1.87961 2.078 2.66604 2.078 3.48602V18.8433H4.95684V4.28948C4.95753 4.01923 5.06538 3.76029 5.25672 3.56944C5.44805 3.37859 5.70727 3.27142 5.97752 3.27142H16.6659C16.9359 3.27142 17.1948 3.37868 17.3857 3.5696C17.5767 3.76052 17.6839 4.01947 17.6839 4.28948V6.19736C17.8514 6.09362 18.0444 6.03836 18.2414 6.03772H20.0079C20.2042 6.03787 20.3964 6.09319 20.5628 6.19736V3.48602C20.5628 2.66559 20.2368 1.87876 19.6567 1.29863C19.0766 0.718493 18.2898 0.392578 17.4693 0.392578Z" stroke="#1476D2" stroke-width="1.4" stroke-linejoin="round"/>
</svg>
