<svg width="38" height="29" viewBox="0 0 38 29" fill="none" xmlns="http://www.w3.org/2000/svg">
<path d="M24.0111 21.3339C25.3565 22.5654 26.6551 24.1217 27.4461 25.4168V21.3339H24.0111ZM28.0952 28.0137H27.5727C27.4 28.0137 27.2341 27.9445 27.1124 27.8222C26.9904 27.6995 26.9225 27.5333 26.9235 27.3606C26.9229 26.6527 24.5999 23.16 21.8105 21.2174C21.5777 21.0554 21.4771 20.761 21.5622 20.4903C21.6469 20.2196 21.8978 20.0356 22.1815 20.0356H28.0952C28.4535 20.0356 28.7444 20.3264 28.7444 20.6848V27.3645C28.7444 27.7229 28.4535 28.0137 28.0952 28.0137Z" fill="#1476D2"/>
<path d="M28.7454 26.7144H36.596V21.3339H28.7454V26.7144ZM37.2451 28.0127H28.0963C27.7376 28.0127 27.4471 27.7219 27.4471 27.3635V20.6848C27.4471 20.3264 27.7376 20.0356 28.0963 20.0356H37.2451C37.6038 20.0356 37.8943 20.3264 37.8943 20.6848V27.3635C37.8943 27.7219 37.6038 28.0127 37.2451 28.0127Z" fill="#1476D2"/>
<path d="M1.29901 13.357H9.1495V7.97682H1.29901V13.357ZM9.79865 14.6553H0.64986C0.291529 14.6553 0.000709534 14.3645 0.000709534 14.0061V7.32767C0.000709534 6.96901 0.291529 6.67852 0.64986 6.67852H9.79865C10.157 6.67852 10.4478 6.96901 10.4478 7.32767V14.0061C10.4478 14.3645 10.157 14.6553 9.79865 14.6553Z" fill="#1476D2"/>
<path d="M10.4477 13.357H18.2982V7.97682H10.4477V13.357ZM18.9473 14.6553H9.79852C9.43986 14.6553 9.14937 14.3645 9.14937 14.0061V7.32767C9.14937 6.96901 9.43986 6.67852 9.79852 6.67852H18.9473C19.306 6.67852 19.5965 6.96901 19.5965 7.32767V14.0061C19.5965 14.3645 19.306 14.6553 18.9473 14.6553Z" fill="#1476D2"/>
<path d="M19.5965 13.357H27.4471V7.97682H19.5965V13.357ZM28.0962 14.6553H18.9474C18.5891 14.6553 18.2982 14.3645 18.2982 14.0061V7.32767C18.2982 6.96901 18.5891 6.67852 18.9474 6.67852H28.0962C28.4545 6.67852 28.7454 6.96901 28.7454 7.32767V14.0061C28.7454 14.3645 28.4545 14.6553 28.0962 14.6553Z" fill="#1476D2"/>
<path d="M28.7454 13.357H36.596V7.97682H28.7454V13.357ZM37.2451 14.6553H28.0963C27.7376 14.6553 27.4471 14.3645 27.4471 14.0061V7.32767C27.4471 6.96901 27.7376 6.67852 28.0963 6.67852H37.2451C37.6038 6.67852 37.8943 6.96901 37.8943 7.32767V14.0061C37.8943 14.3645 37.6038 14.6553 37.2451 14.6553Z" fill="#1476D2"/>
<path d="M24.1709 20.0357H32.0214V14.6555H24.1709V20.0357ZM32.6705 21.334H23.5217C23.1631 21.334 22.8726 21.0435 22.8726 20.6848V14.0064C22.8726 13.6477 23.1631 13.3572 23.5217 13.3572H32.6705C33.0292 13.3572 33.3197 13.6477 33.3197 14.0064V20.6848C33.3197 21.0435 33.0292 21.334 32.6705 21.334Z" fill="#1476D2"/>
<path d="M22.3816 20.0357H22.873V14.6542H15.0215V18.3154C16.2513 18.8266 17.4919 19.0032 18.8882 18.8734C19.9077 18.7757 21.0813 19.1671 22.3816 20.0357ZM23.5221 21.334H22.1817C22.0495 21.334 21.92 21.2937 21.8113 21.2181C20.7178 20.4593 19.7464 20.0947 19.0105 20.1658C17.2536 20.3304 15.647 20.0552 14.0962 19.3249C13.8686 19.2178 13.7232 18.9889 13.7232 18.7374V14.0051C13.7232 13.6467 14.014 13.3559 14.3724 13.3559H23.5221C23.8805 13.3559 24.1713 13.6467 24.1713 14.0051V20.6848C24.1713 21.0435 23.8805 21.334 23.5221 21.334Z" fill="#1476D2"/>
<path d="M19.5944 6.67875H27.4453V1.29858H19.5944V6.67875ZM28.0944 7.97705H18.9453C18.5869 7.97705 18.2961 7.68623 18.2961 7.3279V0.64943C18.2961 0.290774 18.5869 0.00027895 18.9453 0.00027895H28.0944C28.4527 0.00027895 28.7436 0.290774 28.7436 0.64943V7.3279C28.7436 7.68623 28.4527 7.97705 28.0944 7.97705Z" fill="#1476D2"/>
<path d="M10.4458 6.67875H18.2959V1.29858H10.4458V6.67875ZM18.9451 7.97705H9.79661C9.43796 7.97705 9.14746 7.68623 9.14746 7.3279V0.64943C9.14746 0.290774 9.43796 0.00027895 9.79661 0.00027895H18.9451C19.3037 0.00027895 19.5942 0.290774 19.5942 0.64943V7.3279C19.5942 7.68623 19.3037 7.97705 18.9451 7.97705Z" fill="#1476D2"/>
<path d="M9.61001 14.6539C10.1715 14.9558 10.733 15.3274 11.2575 15.7838C11.9317 16.3722 12.7785 17.0723 13.723 17.6475V14.6539H9.61001ZM14.3722 19.3862C14.2777 19.3862 14.1829 19.3658 14.095 19.3239C12.6344 18.6332 11.3553 17.5923 10.4046 16.7627C8.23219 14.8711 5.21362 14.6546 5.18344 14.6526C4.83387 14.6299 4.56545 14.3339 4.57681 13.9837C4.58817 13.6335 4.87543 13.3556 5.22564 13.3556H14.3722C14.7308 13.3556 15.0213 13.6464 15.0213 14.0048V18.7371C15.0213 18.9597 14.9077 19.1665 14.7198 19.2856C14.6143 19.3525 14.4932 19.3862 14.3722 19.3862Z" fill="#1476D2"/>
<path d="M1.2983 26.7154H26.6996C26.0537 25.4216 24.0874 22.8033 21.8105 21.2174C20.718 20.4592 19.7462 20.0927 19.0104 20.1658C17.2534 20.3293 15.6468 20.0551 14.096 19.3248C12.6344 18.6335 11.3553 17.5925 10.4046 16.7629C8.87162 15.4283 6.90177 14.9261 5.87481 14.7467V20.6848C5.87481 21.0434 5.58399 21.3339 5.22566 21.3339H1.2983V26.7154ZM27.5727 28.0137H0.649151C0.29082 28.0137 0 27.7229 0 27.3645V20.6848C0 20.3264 0.29082 20.0356 0.649151 20.0356H4.57651V14.005C4.57651 13.8255 4.65052 13.6541 4.78197 13.5311C4.91245 13.4088 5.08577 13.3458 5.26785 13.3575C5.40904 13.3666 8.75801 13.6074 11.2576 15.784C12.1456 16.5591 13.3335 17.5283 14.6497 18.1505C16.0029 18.7876 17.3485 19.0171 18.888 18.8733C19.952 18.7707 21.1837 19.2021 22.5518 20.1515C25.1578 21.9665 28.2309 25.8783 28.2218 27.3681C28.2196 27.7255 27.9297 28.0137 27.5727 28.0137Z" fill="#1476D2"/>
</svg>
