<svg width="34" height="34" viewBox="0 0 34 34" fill="none" xmlns="http://www.w3.org/2000/svg">
<path d="M2.86365 1.32137C2.01273 1.32137 1.32138 2.01266 1.32138 2.86283V19.7117C1.32138 20.5618 2.01273 21.2531 2.86365 21.2531H13.1041C13.9542 21.2531 14.6463 20.5618 14.6463 19.7117V2.86283C14.6463 2.01266 13.9542 1.32137 13.1041 1.32137H2.86365ZM13.1041 22.5747H2.86365C1.28455 22.5747 0 21.2908 0 19.7117V2.86283C0 1.28365 1.28455 0.000165939 2.86365 0.000165939H13.1041C14.6832 0.000165939 15.9669 1.28365 15.9669 2.86283V19.7117C15.9669 21.2908 14.6832 22.5747 13.1041 22.5747Z" fill="#1476D2"/>
<path d="M4.23914 7.37842H11.728V4.62441H4.23914V7.37842ZM12.3883 8.69971H3.57886C3.21395 8.69971 2.91778 8.40344 2.91778 8.03878V3.96413C2.91778 3.60012 3.21395 3.30288 3.57886 3.30288H12.3883C12.7532 3.30288 13.0494 3.60012 13.0494 3.96413V8.03878C13.0494 8.40344 12.7532 8.69971 12.3883 8.69971Z" fill="#1476D2"/>
<path d="M21.1429 27.9712H15.0319C13.2098 27.9712 11.7281 26.4889 11.7281 24.6675V24.1848C11.7281 23.8189 12.0234 23.5236 12.3883 23.5236C12.7532 23.5236 13.0494 23.8189 13.0494 24.1848V24.6675C13.0494 25.7605 13.9388 26.649 15.0319 26.649H21.1429C22.236 26.649 23.1254 25.7605 23.1254 24.6675V11.2876C23.1254 10.9229 23.4207 10.6266 23.7864 10.6266C24.1514 10.6266 24.4467 10.9229 24.4467 11.2876V24.6675C24.4467 26.4889 22.965 27.9712 21.1429 27.9712Z" fill="#1476D2"/>
<path d="M26.3187 33.3115H8.86434C5.58588 33.3115 2.91778 30.6435 2.91778 27.365V24.1887C2.91778 23.8241 3.21395 23.5278 3.57886 23.5278C3.94377 23.5278 4.23914 23.8241 4.23914 24.1887V27.365C4.23914 29.9154 6.31406 31.9903 8.86434 31.9903H26.3187C28.869 31.9903 30.9439 29.9154 30.9439 27.365V11.2877C30.9439 10.923 31.2392 10.6267 31.6042 10.6267C31.9699 10.6267 32.2653 10.923 32.2653 11.2877V27.365C32.2653 30.6435 29.5972 33.3115 26.3187 33.3115Z" fill="#1476D2"/>
<path d="M23.0019 8.03871V9.84191C23.0019 10.2746 23.3529 10.6265 23.7865 10.6265C24.2185 10.6265 24.5712 10.2746 24.5712 9.84191V8.03871H23.0019ZM23.7865 11.9478C22.6247 11.9478 21.6805 11.0027 21.6805 9.84191V7.37836C21.6805 7.01246 21.9759 6.7171 22.3408 6.7171H25.2314C25.5963 6.7171 25.8925 7.01246 25.8925 7.37836V9.84191C25.8925 11.0027 24.9475 11.9478 23.7865 11.9478Z" fill="#1476D2"/>
<path d="M30.8195 8.03871V9.84191C30.8195 10.2746 31.1713 10.6265 31.6041 10.6265C32.0377 10.6265 32.3888 10.2746 32.3888 9.84191V8.03871H30.8195ZM31.6041 11.9478C30.4439 11.9478 29.4981 11.0027 29.4981 9.84191V7.37836C29.4981 7.01246 29.7943 6.7171 30.1592 6.7171H33.0499C33.4148 6.7171 33.7109 7.01246 33.7109 7.37836V9.84191C33.7109 11.0027 32.7651 11.9478 31.6041 11.9478Z" fill="#1476D2"/>
<path d="M23.7864 8.03857C23.4207 8.03857 23.1253 7.74223 23.1253 7.37822V4.18378C23.1253 3.81911 23.4207 3.52383 23.7864 3.52383C24.1513 3.52383 24.4467 3.81911 24.4467 4.18378V7.37822C24.4467 7.74223 24.1513 8.03857 23.7864 8.03857Z" fill="#1476D2"/>
<path d="M31.6041 8.03857C31.2392 8.03857 30.9438 7.74223 30.9438 7.37822V4.18378C30.9438 3.81911 31.2392 3.52383 31.6041 3.52383C31.9698 3.52383 32.2652 3.81911 32.2652 4.18378V7.37822C32.2652 7.74223 31.9698 8.03857 31.6041 8.03857Z" fill="#1476D2"/>
<path d="M3.52311 22.5745V23.0152C3.52311 23.3796 3.8193 23.6755 4.18421 23.6755H11.7827C12.1468 23.6755 12.4438 23.3796 12.4438 23.0152V22.5745H3.52311ZM11.7827 24.9971H4.18421C3.09111 24.9971 2.20257 24.1086 2.20257 23.0152V21.9132C2.20257 21.5492 2.49792 21.2529 2.86365 21.2529H13.1041C13.469 21.2529 13.7651 21.5492 13.7651 21.9132V23.0152C13.7651 24.1086 12.8758 24.9971 11.7827 24.9971Z" fill="#1476D2"/>
<path d="M5.45088 14.8667H3.57886C3.21395 14.8667 2.91778 14.5704 2.91778 14.2054V12.0031C2.91778 11.639 3.21395 11.3418 3.57886 11.3418C3.94377 11.3418 4.23914 11.639 4.23914 12.0031V13.5451H5.45088C5.81579 13.5451 6.11116 13.8408 6.11116 14.2054C6.11116 14.5704 5.81579 14.8667 5.45088 14.8667Z" fill="#1476D2"/>
<path d="M12.3882 14.8667H10.5162C10.1512 14.8667 9.85507 14.5704 9.85507 14.2054C9.85507 13.8408 10.1512 13.5451 10.5162 13.5451H11.7279V12.0031C11.7279 11.639 12.0233 11.3418 12.3882 11.3418C12.7531 11.3418 13.0492 11.639 13.0492 12.0031V14.2054C13.0492 14.5704 12.7531 14.8667 12.3882 14.8667Z" fill="#1476D2"/>
</svg>
